<svg width="128" height="152" xmlns="http://www.w3.org/2000/svg" preserveAspectRatio="none">

 <g>
  <title>background</title>
  <rect fill="none" id="canvas_background" height="154" width="130" y="-1" x="-1"/>
 </g>
 <g>
  <title>Layer 1</title>
  <path fill=" #FF5722" d="m3.638,102.037c12,-2.553 21.12,-1.137 30.098,4.4c7.938,4.894 16.422,4.524 27.508,-1.205c13.51,-6.984 26.626,-6.784 37.926,0.578c7.368,4.799 15.992,4.334 23.378,2.286c0.571,-2.732 0.885,-5.536 0.885,-8.402c0,-9.813 -3.502,-18.948 -9.513,-26.628l0.059,-0.036l-50.479,-70.527l-50.48,70.527l0.059,0.036c-6.012,7.681 -9.513,16.816 -9.513,26.628c0,0.786 0.027,1.566 0.072,2.343z" id="XMLID_857_"/>
  <path fill=" #03a9f4d4" d="m95.683,109.428c-9.528,-6.207 -19.818,-6.301 -31.452,-0.287c-6.826,3.528 -13.125,5.291 -18.989,5.291c-5.29,0.001 -10.225,-1.434 -14.875,-4.302c-7.853,-4.843 -15.407,-5.93 -26.19,-3.442c4.131,23.906 29.109,42.292 59.322,42.292c27.404,0 50.496,-15.13 57.637,-35.782c-9.632,1.951 -18.533,0.739 -25.453,-3.77z" id="XMLID_854_"/>
  <ellipse fill=" #2db7f6" ry="4.705" rx="5.721" cy="34.764" cx="63.437" id="XMLID_848_"/>
  <ellipse fill=" #2db7f6" ry="3.323" rx="4.041" cy="83.119" cx="29.936" id="XMLID_828_"/>
  <ellipse fill=" #2db7f6" ry="3.584" rx="4.359" cy="92.609" cx="101.726" id="XMLID_824_"/>
  <path fill=" #ffffff" d="m44.258,123.206c0,-2.771 0,-5.856 0,-9.257c0,-3.398 0,-6.873 0,-10.421c0,-3.547 0,-7.168 0,-10.864c0,-3.695 0,-7.317 0,-10.865c0,-3.547 0,-7.02 0,-10.421c0,-3.473 0,-6.596 0,-9.367c0,-2.772 0,-5.192 0,-7.262l26.424,0c2.426,0 4.762,0.277 7.01,0.831c2.246,0.555 4.359,1.424 6.336,2.605c2.067,1.109 3.594,2.273 4.584,3.493c0.988,1.219 1.483,2.495 1.483,3.824c0,1.552 0,3.345 0,5.377c0,2.034 0,4.268 0,6.707s0,4.916 0,7.428c0,2.513 0,5.063 0,7.65c0,2.587 0,5.155 0,7.705c0,2.549 0,5.044 0,7.483c0,2.438 0,4.656 0,6.652c0,1.995 0,3.807 0,5.432c0,1.33 -0.495,2.605 -1.483,3.824c-0.989,1.219 -2.516,2.383 -4.584,3.492c-1.977,1.109 -4.09,1.923 -6.336,2.439c-2.247,0.518 -4.584,0.776 -7.01,0.776c-1.888,0 -3.933,0 -6.135,0c-2.204,0 -4.607,0 -7.213,0c-2.517,0 -4.876,0 -7.078,0c-2.203,0 -4.203,0 -5.999,0c0.001,-2.067 0.001,-4.489 0.001,-7.261zm9.572,3.049c0.628,0 1.258,0 1.887,0c0.539,0 1.123,0 1.753,0c0.628,0 1.258,0 1.887,0c1.348,0 2.674,0 3.977,0c1.303,0 2.539,0 3.707,0c5.033,0 8.852,-0.702 11.46,-2.107c2.605,-1.403 3.91,-3.473 3.91,-6.208c0,-1.33 0,-2.899 0,-4.712c0,-1.81 0,-3.861 0,-6.152c0,-2.29 0,-4.618 0,-6.984c0,-2.364 0,-4.767 0,-7.206c0,-2.511 0,-4.969 0,-7.372c0,-2.401 0,-4.747 0,-7.04c0,-2.289 0,-4.359 0,-6.207c0,-1.847 0,-3.474 0,-4.879c0,-2.808 -1.305,-4.914 -3.91,-6.319c-2.607,-1.403 -6.427,-2.106 -11.46,-2.106l-15.099,0l0,67.292c0.629,0 1.258,0 1.888,0z" id="XMLID_407_"/>
 </g>
</svg>