<svg data-noselect="" viewBox="0 0 343 356" width="343" height="356" preserveAspectRatio="none" version="1.1" xmlns="http://www.w3.org/2000/svg" style="background: rgba(255, 255, 255, 0);"><defs></defs> <g id="shape_EnJnAcAIBm" transform="translate(30,30) rotate(0,0,0) scale(1,1)" filter="" style="cursor: move; opacity: 1;"><g><rect fill="rgba(0,0,0,0)" width="303" height="246" x="-10" y="-10"></rect><svg version="1.1" id="图层_1" xmlns="http://www.w3.org/2000/svg" xmlns:xlink="http://www.w3.org/1999/xlink" x="0px" y="0px" width="283" height="226" viewBox="0 0 283.46 226.77" style="enable-background:new 0 0 283.46 226.77;" xml:space="preserve" preserveAspectRatio="none" data-parent="shape_EnJnAcAIBm">
<path id="XMLID_857_" style="fill:#1684C4;" d="M82.638,141.037c12-2.553,21.12-1.137,30.098,4.4
	c7.938,4.894,16.422,4.524,27.508-1.205c13.51-6.984,26.626-6.784,37.926,0.578c7.368,4.799,15.992,4.334,23.378,2.286
	c0.571-2.732,0.885-5.536,0.885-8.402c0-9.813-3.502-18.948-9.513-26.628l0.059-0.036l-50.479-70.527L92.02,112.03l0.059,0.036
	c-6.012,7.681-9.513,16.816-9.513,26.628C82.566,139.48,82.593,140.26,82.638,141.037z"></path>
<path id="XMLID_854_" style="fill:#98D0F0;" d="M174.683,148.428c-9.528-6.207-19.818-6.301-31.452-0.287
	c-6.826,3.528-13.125,5.291-18.989,5.291c-5.29,0.001-10.225-1.434-14.875-4.302c-7.853-4.843-15.407-5.93-26.19-3.442
	c4.131,23.906,29.109,42.292,59.322,42.292c27.404,0,50.496-15.13,57.637-35.782C190.504,154.149,181.603,152.937,174.683,148.428z"></path>
<ellipse id="XMLID_848_" style="fill:#98D0F0;" cx="142.437" cy="73.764" rx="5.721" ry="4.705"></ellipse>
<ellipse id="XMLID_828_" style="fill:#98D0F0;" cx="107.936" cy="122.119" rx="4.041" ry="3.323"></ellipse>
<ellipse id="XMLID_824_" style="fill:#98D0F0;" cx="180.726" cy="131.609" rx="4.359" ry="3.584"></ellipse>
<path id="XMLID_407_" style="fill:#FFFFFF;" d="M123.258,162.206c0-2.771,0-5.856,0-9.257c0-3.398,0-6.873,0-10.421
	c0-3.547,0-7.168,0-10.864c0-3.695,0-7.317,0-10.865c0-3.547,0-7.02,0-10.421c0-3.473,0-6.596,0-9.367c0-2.772,0-5.192,0-7.262
	h26.424c2.426,0,4.762,0.277,7.01,0.831c2.246,0.555,4.359,1.424,6.336,2.605c2.067,1.109,3.594,2.273,4.584,3.493
	c0.988,1.219,1.483,2.495,1.483,3.824c0,1.552,0,3.345,0,5.377c0,2.034,0,4.268,0,6.707s0,4.916,0,7.428c0,2.513,0,5.063,0,7.65
	c0,2.587,0,5.155,0,7.705c0,2.549,0,5.044,0,7.483c0,2.438,0,4.656,0,6.652c0,1.995,0,3.807,0,5.432c0,1.33-0.495,2.605-1.483,3.824
	c-0.989,1.219-2.516,2.383-4.584,3.492c-1.977,1.109-4.09,1.923-6.336,2.439c-2.247,0.518-4.584,0.776-7.01,0.776
	c-1.888,0-3.933,0-6.135,0c-2.204,0-4.607,0-7.213,0c-2.517,0-4.876,0-7.078,0c-2.203,0-4.203,0-5.999,0
	C123.258,167.4,123.258,164.978,123.258,162.206z M132.83,165.255c0.628,0,1.258,0,1.887,0c0.539,0,1.123,0,1.753,0
	c0.628,0,1.258,0,1.887,0c1.348,0,2.674,0,3.977,0c1.303,0,2.539,0,3.707,0c5.033,0,8.852-0.702,11.46-2.107
	c2.605-1.403,3.91-3.473,3.91-6.208c0-1.33,0-2.899,0-4.712c0-1.81,0-3.861,0-6.152c0-2.29,0-4.618,0-6.984c0-2.364,0-4.767,0-7.206
	c0-2.511,0-4.969,0-7.372c0-2.401,0-4.747,0-7.04c0-2.289,0-4.359,0-6.207c0-1.847,0-3.474,0-4.879c0-2.808-1.305-4.914-3.91-6.319
	c-2.607-1.403-6.427-2.106-11.46-2.106h-15.099v67.292C131.571,165.255,132.2,165.255,132.83,165.255z"></path>
</svg></g> <!----></g><g id="shapge_80fMcCHKpD" transform="translate(126,262) rotate(0,0,0) scale(1,1)" filter="" style="cursor: move; opacity: 1;"><g><svg xmlns="http://www.w3.org/2000/svg" version="1.1" xmlns:xlink="http://www.w3.org/1999/xlink" overflow="hidden" style="top:0; left: 0" width="91" height="34" viewBox="0 0 91.785 34.104" preserveAspectRatio="none" data-parent="shapge_80fMcCHKpD"><rect fill="rgba(0,0,0,0)" width="91" height="34"></rect> <rect opacity="0"></rect><g transform="translate(0 0)" data-width="91.785"><path fill="#1684C4" d="M8.35 0L2.90 0L2.90-21.26L8.24-21.26L8.24-21.26Q13.14-21.26 15.70-18.52L15.70-18.52L15.70-18.52Q18.27-15.78 18.27-10.70L18.27-10.70L18.27-10.70Q18.27-5.66 15.72-2.83L15.72-2.83L15.72-2.83Q13.17 0 8.35 0L8.35 0ZM5.60-19.08L5.60-2.20L8.00-2.20L8.00-2.20Q11.77-2.20 13.63-4.44L13.63-4.44L13.63-4.44Q15.49-6.67 15.49-10.70L15.49-10.70L15.49-10.70Q15.49-14.76 13.63-16.92L13.63-16.92L13.63-16.92Q11.77-19.08 8.00-19.08L8.00-19.08L5.60-19.08Z" transform="translate(0 25.52)"></path><path fill="#1684C4" d="M6.29 0.38L6.29 0.38L6.29 0.38Q4.32 0.38 3.00-0.80L3.00-0.80L3.00-0.80Q1.68-1.97 1.68-4.09L1.68-4.09L1.68-4.09Q1.68-6.67 4.03-8.05L4.03-8.05L4.03-8.05Q6.38-9.43 11.37-9.98L11.37-9.98L11.37-9.98Q11.37-10.99 11.09-11.90L11.09-11.90L11.09-11.90Q10.82-12.82 10.12-13.38L10.12-13.38L10.12-13.38Q9.43-13.95 8.12-13.95L8.12-13.95L8.12-13.95Q6.76-13.95 5.55-13.44L5.55-13.44L5.55-13.44Q4.35-12.93 3.39-12.27L3.39-12.27L2.35-14.09L2.35-14.09Q3.45-14.82 5.06-15.49L5.06-15.49L5.06-15.49Q6.67-16.15 8.55-16.15L8.55-16.15L8.55-16.15Q11.43-16.15 12.72-14.38L12.72-14.38L12.72-14.38Q14.01-12.62 14.01-9.69L14.01-9.69L14.01 0L11.83 0L11.60-1.89L11.51-1.89L11.51-1.89Q10.38-0.93 9.06-0.28L9.06-0.28L9.06-0.28Q7.74 0.38 6.29 0.38ZM7.05-1.74L7.05-1.74L7.05-1.74Q8.21-1.74 9.22-2.28L9.22-2.28L9.22-2.28Q10.24-2.81 11.37-3.83L11.37-3.83L11.37-8.24L11.37-8.24Q7.45-7.77 5.86-6.79L5.86-6.79L5.86-6.79Q4.26-5.80 4.26-4.26L4.26-4.26L4.26-4.26Q4.26-2.93 5.08-2.33L5.08-2.33L5.08-2.33Q5.89-1.74 7.05-1.74Z" transform="translate(19.923000000000002 25.52)"></path><path fill="#1684C4" d="M7.63 0.38L7.63 0.38L7.63 0.38Q5.10 0.38 4.12-1.06L4.12-1.06L4.12-1.06Q3.13-2.49 3.13-4.87L3.13-4.87L3.13-13.60L0.78-13.60L0.78-15.60L3.25-15.75L3.57-20.16L5.77-20.16L5.77-15.75L10.03-15.75L10.03-13.60L5.77-13.60L5.77-4.81L5.77-4.81Q5.77-3.36 6.31-2.57L6.31-2.57L6.31-2.57Q6.84-1.77 8.21-1.77L8.21-1.77L8.21-1.77Q8.61-1.77 9.11-1.90L9.11-1.90L9.11-1.90Q9.60-2.03 10.01-2.18L10.01-2.18L10.53-0.20L10.53-0.20Q9.86 0.03 9.11 0.20L9.11 0.20L9.11 0.20Q8.35 0.38 7.63 0.38Z" transform="translate(36.279 25.52)"></path><path fill="#1684C4" d="M6.29 0.38L6.29 0.38L6.29 0.38Q4.32 0.38 3.00-0.80L3.00-0.80L3.00-0.80Q1.68-1.97 1.68-4.09L1.68-4.09L1.68-4.09Q1.68-6.67 4.03-8.05L4.03-8.05L4.03-8.05Q6.38-9.43 11.37-9.98L11.37-9.98L11.37-9.98Q11.37-10.99 11.09-11.90L11.09-11.90L11.09-11.90Q10.82-12.82 10.12-13.38L10.12-13.38L10.12-13.38Q9.43-13.95 8.12-13.95L8.12-13.95L8.12-13.95Q6.76-13.95 5.55-13.44L5.55-13.44L5.55-13.44Q4.35-12.93 3.39-12.27L3.39-12.27L2.35-14.09L2.35-14.09Q3.45-14.82 5.06-15.49L5.06-15.49L5.06-15.49Q6.67-16.15 8.55-16.15L8.55-16.15L8.55-16.15Q11.43-16.15 12.72-14.38L12.72-14.38L12.72-14.38Q14.01-12.62 14.01-9.69L14.01-9.69L14.01 0L11.83 0L11.60-1.89L11.51-1.89L11.51-1.89Q10.38-0.93 9.06-0.28L9.06-0.28L9.06-0.28Q7.74 0.38 6.29 0.38ZM7.05-1.74L7.05-1.74L7.05-1.74Q8.21-1.74 9.22-2.28L9.22-2.28L9.22-2.28Q10.24-2.81 11.37-3.83L11.37-3.83L11.37-8.24L11.37-8.24Q7.45-7.77 5.86-6.79L5.86-6.79L5.86-6.79Q4.26-5.80 4.26-4.26L4.26-4.26L4.26-4.26Q4.26-2.93 5.08-2.33L5.08-2.33L5.08-2.33Q5.89-1.74 7.05-1.74Z" transform="translate(47.212 25.52)"></path><path fill="#1684C4" d="" transform="translate(63.568000000000005 25.52)"></path><path fill="#1684C4" d="M9.92 0L6.82 0L0.03-21.26L2.84-21.26L6.29-9.74L6.29-9.74Q6.76-8.24 7.13-6.84L7.13-6.84L7.13-6.84Q7.66-4.90 8.35-2.73L8.35-2.73L8.47-2.73L8.47-2.73Q9.11-4.79 9.63-6.67L9.63-6.67L9.63-6.67Q10.03-8.12 10.53-9.74L10.53-9.74L13.95-21.26L16.68-21.26L9.92 0Z" transform="translate(75.11 25.52)"></path></g></svg></g> <!----></g><g id="shapge_KFO0onoTLb" transform="translate(82,302) rotate(0,0,0) scale(1,1)" filter="" style="cursor: move; opacity: 1;"><g><svg xmlns="http://www.w3.org/2000/svg" version="1.1" xmlns:xlink="http://www.w3.org/1999/xlink" overflow="hidden" style="top:0; left: 0" width="179" height="24" viewBox="0 0 179.466 24.695999999999998" preserveAspectRatio="none" data-parent="shapge_KFO0onoTLb"><rect fill="rgba(0,0,0,0)" width="179" height="24"></rect> <rect opacity="0"></rect><g transform="translate(0 0)" data-width="179.466"><path fill="#98D0F0" d="M6.05 0L2.10 0L2.10-15.39L5.96-15.39L5.96-15.39Q9.51-15.39 11.37-13.41L11.37-13.41L11.37-13.41Q13.23-11.42 13.23-7.75L13.23-7.75L13.23-7.75Q13.23-4.10 11.38-2.05L11.38-2.05L11.38-2.05Q9.53 0 6.05 0L6.05 0ZM4.05-13.82L4.05-1.60L5.80-1.60L5.80-1.60Q8.53-1.60 9.87-3.21L9.87-3.21L9.87-3.21Q11.21-4.83 11.21-7.75L11.21-7.75L11.21-7.75Q11.21-10.69 9.87-12.25L9.87-12.25L9.87-12.25Q8.53-13.82 5.80-13.82L5.80-13.82L4.05-13.82Z" transform="translate(0 18.48)"></path><path fill="#98D0F0" d="M4.56 0.27L4.56 0.27L4.56 0.27Q3.13 0.27 2.17-0.58L2.17-0.58L2.17-0.58Q1.22-1.43 1.22-2.96L1.22-2.96L1.22-2.96Q1.22-4.83 2.92-5.83L2.92-5.83L2.92-5.83Q4.62-6.83 8.23-7.22L8.23-7.22L8.23-7.22Q8.23-7.96 8.03-8.62L8.03-8.62L8.03-8.62Q7.83-9.28 7.33-9.69L7.33-9.69L7.33-9.69Q6.83-10.10 5.88-10.10L5.88-10.10L5.88-10.10Q4.89-10.10 4.02-9.73L4.02-9.73L4.02-9.73Q3.15-9.37 2.46-8.88L2.46-8.88L1.70-10.21L1.70-10.21Q2.50-10.73 3.66-11.21L3.66-11.21L3.66-11.21Q4.83-11.70 6.20-11.70L6.20-11.70L6.20-11.70Q8.27-11.70 9.21-10.42L9.21-10.42L9.21-10.42Q10.14-9.13 10.14-7.01L10.14-7.01L10.14 0L8.57 0L8.40-1.36L8.34-1.36L8.34-1.36Q7.52-0.67 6.56-0.20L6.56-0.20L6.56-0.20Q5.61 0.27 4.56 0.27ZM5.10-1.26L5.10-1.26L5.10-1.26Q5.94-1.26 6.68-1.65L6.68-1.65L6.68-1.65Q7.41-2.04 8.23-2.77L8.23-2.77L8.23-5.96L8.23-5.96Q5.40-5.63 4.24-4.91L4.24-4.91L4.24-4.91Q3.09-4.20 3.09-3.09L3.09-3.09L3.09-3.09Q3.09-2.12 3.68-1.69L3.68-1.69L3.68-1.69Q4.26-1.26 5.10-1.26Z" transform="translate(14.427000000000001 18.48)"></path><path fill="#98D0F0" d="M5.52 0.27L5.52 0.27L5.52 0.27Q3.70 0.27 2.98-0.77L2.98-0.77L2.98-0.77Q2.27-1.81 2.27-3.53L2.27-3.53L2.27-9.85L0.57-9.85L0.57-11.30L2.35-11.40L2.58-14.60L4.18-14.60L4.18-11.40L7.27-11.40L7.27-9.85L4.18-9.85L4.18-3.49L4.18-3.49Q4.18-2.44 4.57-1.86L4.57-1.86L4.57-1.86Q4.96-1.28 5.94-1.28L5.94-1.28L5.94-1.28Q6.24-1.28 6.59-1.38L6.59-1.38L6.59-1.38Q6.95-1.47 7.25-1.58L7.25-1.58L7.62-0.15L7.62-0.15Q7.14 0.02 6.59 0.15L6.59 0.15L6.59 0.15Q6.05 0.27 5.52 0.27Z" transform="translate(26.271 18.48)"></path><path fill="#98D0F0" d="M4.56 0.27L4.56 0.27L4.56 0.27Q3.13 0.27 2.17-0.58L2.17-0.58L2.17-0.58Q1.22-1.43 1.22-2.96L1.22-2.96L1.22-2.96Q1.22-4.83 2.92-5.83L2.92-5.83L2.92-5.83Q4.62-6.83 8.23-7.22L8.23-7.22L8.23-7.22Q8.23-7.96 8.03-8.62L8.03-8.62L8.03-8.62Q7.83-9.28 7.33-9.69L7.33-9.69L7.33-9.69Q6.83-10.10 5.88-10.10L5.88-10.10L5.88-10.10Q4.89-10.10 4.02-9.73L4.02-9.73L4.02-9.73Q3.15-9.37 2.46-8.88L2.46-8.88L1.70-10.21L1.70-10.21Q2.50-10.73 3.66-11.21L3.66-11.21L3.66-11.21Q4.83-11.70 6.20-11.70L6.20-11.70L6.20-11.70Q8.27-11.70 9.21-10.42L9.21-10.42L9.21-10.42Q10.14-9.13 10.14-7.01L10.14-7.01L10.14 0L8.57 0L8.40-1.36L8.34-1.36L8.34-1.36Q7.52-0.67 6.56-0.20L6.56-0.20L6.56-0.20Q5.61 0.27 4.56 0.27ZM5.10-1.26L5.10-1.26L5.10-1.26Q5.94-1.26 6.68-1.65L6.68-1.65L6.68-1.65Q7.41-2.04 8.23-2.77L8.23-2.77L8.23-5.96L8.23-5.96Q5.40-5.63 4.24-4.91L4.24-4.91L4.24-4.91Q3.09-4.20 3.09-3.09L3.09-3.09L3.09-3.09Q3.09-2.12 3.68-1.69L3.68-1.69L3.68-1.69Q4.26-1.26 5.10-1.26Z" transform="translate(34.188 18.48)"></path><path fill="#98D0F0" d="" transform="translate(46.032000000000004 18.48)"></path><path fill="#98D0F0" d="M7.18 0L4.94 0L0.02-15.39L2.06-15.39L4.56-7.06L4.56-7.06Q4.89-5.96 5.17-4.96L5.17-4.96L5.17-4.96Q5.54-3.55 6.05-1.97L6.05-1.97L6.13-1.97L6.13-1.97Q6.59-3.47 6.97-4.83L6.97-4.83L6.97-4.83Q7.27-5.88 7.62-7.06L7.62-7.06L10.10-15.39L12.08-15.39L7.18 0Z" transform="translate(54.39 18.48)"></path><path fill="#98D0F0" d="M3.84 0L1.93 0L1.93-11.40L3.84-11.40L3.84 0ZM2.90-13.76L2.90-13.76L2.90-13.76Q2.33-13.76 1.95-14.11L1.95-14.11L1.95-14.11Q1.58-14.47 1.58-14.99L1.58-14.99L1.58-14.99Q1.58-16.17 2.90-16.23L2.90-16.23L2.90-16.23Q3.47-16.23 3.84-15.91L3.84-15.91L3.84-15.91Q4.22-15.58 4.22-14.99L4.22-14.99L4.22-14.99Q4.22-14.47 3.84-14.11L3.84-14.11L3.84-14.11Q3.47-13.76 2.90-13.76Z" transform="translate(66.465 18.48)"></path><path fill="#98D0F0" d="M4.91 0.27L4.91 0.27L4.91 0.27Q3.70 0.27 2.59-0.17L2.59-0.17L2.59-0.17Q1.49-0.61 0.65-1.30L0.65-1.30L1.60-2.56L1.60-2.56Q2.33-1.95 3.14-1.59L3.14-1.59L3.14-1.59Q3.95-1.22 4.98-1.22L4.98-1.22L4.98-1.22Q6.11-1.22 6.67-1.74L6.67-1.74L6.67-1.74Q7.22-2.27 7.22-3.00L7.22-3.00L7.22-3.00Q7.22-3.59 6.84-3.98L6.84-3.98L6.84-3.98Q6.45-4.37 5.86-4.65L5.86-4.65L5.86-4.65Q5.27-4.94 4.62-5.17L4.62-5.17L4.62-5.17Q3.80-5.46 3.02-5.86L3.02-5.86L3.02-5.86Q2.25-6.26 1.73-6.88L1.73-6.88L1.73-6.88Q1.22-7.50 1.22-8.46L1.22-8.46L1.22-8.46Q1.22-9.83 2.26-10.76L2.26-10.76L2.26-10.76Q3.30-11.70 5.15-11.70L5.15-11.70L5.15-11.70Q6.20-11.70 7.11-11.32L7.11-11.32L7.11-11.32Q8.02-10.94 8.69-10.42L8.69-10.42L7.77-9.18L7.77-9.18Q7.18-9.62 6.55-9.90L6.55-9.90L6.55-9.90Q5.92-10.19 5.15-10.19L5.15-10.19L5.15-10.19Q4.07-10.19 3.57-9.70L3.57-9.70L3.57-9.70Q3.07-9.22 3.07-8.55L3.07-8.55L3.07-8.55Q3.07-8.02 3.39-7.69L3.39-7.69L3.39-7.69Q3.72-7.35 4.24-7.11L4.24-7.11L4.24-7.11Q4.77-6.87 5.38-6.66L5.38-6.66L5.38-6.66Q5.48-6.62 5.59-6.57L5.59-6.57L5.59-6.57Q6.43-6.28 7.22-5.88L7.22-5.88L7.22-5.88Q8.02-5.48 8.55-4.84L8.55-4.84L8.55-4.84Q9.07-4.20 9.07-3.11L9.07-3.11L9.07-3.11Q9.07-1.72 8.00-0.72L8.00-0.72L8.00-0.72Q6.93 0.27 4.91 0.27Z" transform="translate(72.24000000000001 18.48)"></path><path fill="#98D0F0" d="M5.25 0.27L5.25 0.27L5.25 0.27Q3.47 0.27 2.63-0.87L2.63-0.87L2.63-0.87Q1.79-2.02 1.79-4.18L1.79-4.18L1.79-11.40L3.70-11.40L3.70-4.41L3.70-4.41Q3.70-2.81 4.20-2.10L4.20-2.10L4.20-2.10Q4.70-1.39 5.84-1.39L5.84-1.39L5.84-1.39Q6.72-1.39 7.42-1.85L7.42-1.85L7.42-1.85Q8.13-2.31 8.93-3.32L8.93-3.32L8.93-11.40L10.84-11.40L10.84 0L9.24 0L9.09-1.79L9.03-1.79L9.03-1.79Q8.23-0.84 7.33-0.28L7.33-0.28L7.33-0.28Q6.43 0.27 5.25 0.27Z" transform="translate(82.06800000000001 18.48)"></path><path fill="#98D0F0" d="M4.56 0.27L4.56 0.27L4.56 0.27Q3.13 0.27 2.17-0.58L2.17-0.58L2.17-0.58Q1.22-1.43 1.22-2.96L1.22-2.96L1.22-2.96Q1.22-4.83 2.92-5.83L2.92-5.83L2.92-5.83Q4.62-6.83 8.23-7.22L8.23-7.22L8.23-7.22Q8.23-7.96 8.03-8.62L8.03-8.62L8.03-8.62Q7.83-9.28 7.33-9.69L7.33-9.69L7.33-9.69Q6.83-10.10 5.88-10.10L5.88-10.10L5.88-10.10Q4.89-10.10 4.02-9.73L4.02-9.73L4.02-9.73Q3.15-9.37 2.46-8.88L2.46-8.88L1.70-10.21L1.70-10.21Q2.50-10.73 3.66-11.21L3.66-11.21L3.66-11.21Q4.83-11.70 6.20-11.70L6.20-11.70L6.20-11.70Q8.27-11.70 9.21-10.42L9.21-10.42L9.21-10.42Q10.14-9.13 10.14-7.01L10.14-7.01L10.14 0L8.57 0L8.40-1.36L8.34-1.36L8.34-1.36Q7.52-0.67 6.56-0.20L6.56-0.20L6.56-0.20Q5.61 0.27 4.56 0.27ZM5.10-1.26L5.10-1.26L5.10-1.26Q5.94-1.26 6.68-1.65L6.68-1.65L6.68-1.65Q7.41-2.04 8.23-2.77L8.23-2.77L8.23-5.96L8.23-5.96Q5.40-5.63 4.24-4.91L4.24-4.91L4.24-4.91Q3.09-4.20 3.09-3.09L3.09-3.09L3.09-3.09Q3.09-2.12 3.68-1.69L3.68-1.69L3.68-1.69Q4.26-1.26 5.10-1.26Z" transform="translate(94.81500000000001 18.48)"></path><path fill="#98D0F0" d="M3.95 0.27L3.95 0.27L3.95 0.27Q2.88 0.27 2.40-0.39L2.40-0.39L2.40-0.39Q1.93-1.05 1.93-2.27L1.93-2.27L1.93-16.72L3.84-16.72L3.84-2.14L3.84-2.14Q3.84-1.70 4.01-1.51L4.01-1.51L4.01-1.51Q4.18-1.32 4.39-1.32L4.39-1.32L4.39-1.32Q4.47-1.32 4.56-1.33L4.56-1.33L4.56-1.33Q4.64-1.34 4.79-1.36L4.79-1.36L5.06 0.11L5.06 0.11Q4.70 0.27 3.95 0.27Z" transform="translate(106.65900000000002 18.48)"></path><path fill="#98D0F0" d="M3.84 0L1.93 0L1.93-11.40L3.84-11.40L3.84 0ZM2.90-13.76L2.90-13.76L2.90-13.76Q2.33-13.76 1.95-14.11L1.95-14.11L1.95-14.11Q1.58-14.47 1.58-14.99L1.58-14.99L1.58-14.99Q1.58-16.17 2.90-16.23L2.90-16.23L2.90-16.23Q3.47-16.23 3.84-15.91L3.84-15.91L3.84-15.91Q4.22-15.58 4.22-14.99L4.22-14.99L4.22-14.99Q4.22-14.47 3.84-14.11L3.84-14.11L3.84-14.11Q3.47-13.76 2.90-13.76Z" transform="translate(112.64400000000002 18.48)"></path><path fill="#98D0F0" d="M9.37 0L0.74 0L0.74-1.03L6.74-9.85L1.39-9.85L1.39-11.40L9.16-11.40L9.16-10.37L3.15-1.55L9.37-1.55L9.37 0Z" transform="translate(118.41900000000003 18.48)"></path><path fill="#98D0F0" d="M4.56 0.27L4.56 0.27L4.56 0.27Q3.13 0.27 2.17-0.58L2.17-0.58L2.17-0.58Q1.22-1.43 1.22-2.96L1.22-2.96L1.22-2.96Q1.22-4.83 2.92-5.83L2.92-5.83L2.92-5.83Q4.62-6.83 8.23-7.22L8.23-7.22L8.23-7.22Q8.23-7.96 8.03-8.62L8.03-8.62L8.03-8.62Q7.83-9.28 7.33-9.69L7.33-9.69L7.33-9.69Q6.83-10.10 5.88-10.10L5.88-10.10L5.88-10.10Q4.89-10.10 4.02-9.73L4.02-9.73L4.02-9.73Q3.15-9.37 2.46-8.88L2.46-8.88L1.70-10.21L1.70-10.21Q2.50-10.73 3.66-11.21L3.66-11.21L3.66-11.21Q4.83-11.70 6.20-11.70L6.20-11.70L6.20-11.70Q8.27-11.70 9.21-10.42L9.21-10.42L9.21-10.42Q10.14-9.13 10.14-7.01L10.14-7.01L10.14 0L8.57 0L8.40-1.36L8.34-1.36L8.34-1.36Q7.52-0.67 6.56-0.20L6.56-0.20L6.56-0.20Q5.61 0.27 4.56 0.27ZM5.10-1.26L5.10-1.26L5.10-1.26Q5.94-1.26 6.68-1.65L6.68-1.65L6.68-1.65Q7.41-2.04 8.23-2.77L8.23-2.77L8.23-5.96L8.23-5.96Q5.40-5.63 4.24-4.91L4.24-4.91L4.24-4.91Q3.09-4.20 3.09-3.09L3.09-3.09L3.09-3.09Q3.09-2.12 3.68-1.69L3.68-1.69L3.68-1.69Q4.26-1.26 5.10-1.26Z" transform="translate(128.37300000000002 18.48)"></path><path fill="#98D0F0" d="M5.52 0.27L5.52 0.27L5.52 0.27Q3.70 0.27 2.98-0.77L2.98-0.77L2.98-0.77Q2.27-1.81 2.27-3.53L2.27-3.53L2.27-9.85L0.57-9.85L0.57-11.30L2.35-11.40L2.58-14.60L4.18-14.60L4.18-11.40L7.27-11.40L7.27-9.85L4.18-9.85L4.18-3.49L4.18-3.49Q4.18-2.44 4.57-1.86L4.57-1.86L4.57-1.86Q4.96-1.28 5.94-1.28L5.94-1.28L5.94-1.28Q6.24-1.28 6.59-1.38L6.59-1.38L6.59-1.38Q6.95-1.47 7.25-1.58L7.25-1.58L7.62-0.15L7.62-0.15Q7.14 0.02 6.59 0.15L6.59 0.15L6.59 0.15Q6.05 0.27 5.52 0.27Z" transform="translate(140.217 18.48)"></path><path fill="#98D0F0" d="M3.84 0L1.93 0L1.93-11.40L3.84-11.40L3.84 0ZM2.90-13.76L2.90-13.76L2.90-13.76Q2.33-13.76 1.95-14.11L1.95-14.11L1.95-14.11Q1.58-14.47 1.58-14.99L1.58-14.99L1.58-14.99Q1.58-16.17 2.90-16.23L2.90-16.23L2.90-16.23Q3.47-16.23 3.84-15.91L3.84-15.91L3.84-15.91Q4.22-15.58 4.22-14.99L4.22-14.99L4.22-14.99Q4.22-14.47 3.84-14.11L3.84-14.11L3.84-14.11Q3.47-13.76 2.90-13.76Z" transform="translate(148.13400000000001 18.48)"></path><path fill="#98D0F0" d="M6.36 0.27L6.36 0.27L6.36 0.27Q4.98 0.27 3.77-0.43L3.77-0.43L3.77-0.43Q2.56-1.13 1.82-2.47L1.82-2.47L1.82-2.47Q1.07-3.80 1.07-5.69L1.07-5.69L1.07-5.69Q1.07-7.60 1.82-8.94L1.82-8.94L1.82-8.94Q2.56-10.27 3.77-10.98L3.77-10.98L3.77-10.98Q4.98-11.70 6.36-11.70L6.36-11.70L6.36-11.70Q7.77-11.70 8.97-10.98L8.97-10.98L8.97-10.98Q10.16-10.27 10.91-8.94L10.91-8.94L10.91-8.94Q11.66-7.60 11.66-5.69L11.66-5.69L11.66-5.69Q11.66-3.80 10.91-2.47L10.91-2.47L10.91-2.47Q10.16-1.13 8.97-0.43L8.97-0.43L8.97-0.43Q7.77 0.27 6.36 0.27ZM6.36-1.32L6.36-1.32L6.36-1.32Q7.85-1.32 8.77-2.52L8.77-2.52L8.77-2.52Q9.68-3.72 9.68-5.69L9.68-5.69L9.68-5.69Q9.68-7.67 8.77-8.88L8.77-8.88L8.77-8.88Q7.85-10.10 6.36-10.10L6.36-10.10L6.36-10.10Q4.89-10.10 3.98-8.88L3.98-8.88L3.98-8.88Q3.07-7.67 3.07-5.69L3.07-5.69L3.07-5.69Q3.07-3.72 3.98-2.52L3.98-2.52L3.98-2.52Q4.89-1.32 6.36-1.32Z" transform="translate(153.90900000000002 18.48)"></path><path fill="#98D0F0" d="M3.84 0L1.93 0L1.93-11.40L3.51-11.40L3.68-9.77L3.74-9.77L3.74-9.77Q4.56-10.58 5.48-11.14L5.48-11.14L5.48-11.14Q6.41-11.70 7.56-11.70L7.56-11.70L7.56-11.70Q9.37-11.70 10.21-10.55L10.21-10.55L10.21-10.55Q11.05-9.41 11.05-7.22L11.05-7.22L11.05 0L9.13 0L9.13-6.97L9.13-6.97Q9.13-8.59 8.62-9.30L8.62-9.30L8.62-9.30Q8.11-10.02 6.97-10.02L6.97-10.02L6.97-10.02Q6.09-10.02 5.39-9.58L5.39-9.58L5.39-9.58Q4.68-9.13 3.84-8.27L3.84-8.27L3.84 0Z" transform="translate(166.63500000000002 18.48)"></path></g></svg></g> <!----></g>  <!----></svg>