<svg data-noselect="" viewBox="0 0 343 356" width="343" height="356" preserveAspectRatio="none" version="1.1" xmlns="http://www.w3.org/2000/svg" style="background: rgba(255, 255, 255, 0);"><defs></defs> <g id="shape_8Y6S0azuO5" transform="translate(30,30) rotate(0,0,0) scale(1,1)" filter="" style="cursor: move; opacity: 1;"><g><rect fill="rgba(0,0,0,0)" width="303" height="246" x="-10" y="-10"></rect><svg version="1.1" id="图层_1" xmlns="http://www.w3.org/2000/svg" xmlns:xlink="http://www.w3.org/1999/xlink" x="0px" y="0px" width="283" height="226" viewBox="0 0 283.46 226.77" style="enable-background:new 0 0 283.46 226.77;" xml:space="preserve" preserveAspectRatio="none" data-parent="shape_8Y6S0azuO5">
<g>
	<linearGradient id="SVGID_1_" gradientUnits="userSpaceOnUse" x1="89.8059" y1="104.046" x2="146.2453" y2="104.046">
		<stop offset="0" style="stop-color:#A17B26"></stop>
		<stop offset="0.22" style="stop-color:#D4BB5F"></stop>
		<stop offset="0.328" style="stop-color:#EAD77F"></stop>
		<stop offset="0.524" style="stop-color:#F5ECA6"></stop>
		<stop offset="0.7298" style="stop-color:#EAD77F"></stop>
		<stop offset="1" style="stop-color:#A17B26"></stop>
	</linearGradient>
	<polygon style="fill:url(#SVGID_1_);" points="128.013,142.08 136.217,146.815 146.245,141.029 138.041,136.294 138.041,66.787 
		128.506,61.277 127.669,61.759 89.806,83.62 89.806,95.2 128.013,73.132 	"></polygon>
	<linearGradient id="SVGID_2_" gradientUnits="userSpaceOnUse" x1="89.8059" y1="112.8538" x2="205.4217" y2="112.8538">
		<stop offset="0" style="stop-color:#A17B26"></stop>
		<stop offset="0.22" style="stop-color:#D4BB5F"></stop>
		<stop offset="0.328" style="stop-color:#EAD77F"></stop>
		<stop offset="0.524" style="stop-color:#F5ECA6"></stop>
		<stop offset="0.7298" style="stop-color:#EAD77F"></stop>
		<stop offset="1" style="stop-color:#A17B26"></stop>
	</linearGradient>
	<polygon style="fill:url(#SVGID_2_);" points="157.186,66.787 157.186,139.724 128.507,156.288 99.827,139.724 99.827,94.427 
		89.806,100.213 89.806,142.08 128.507,164.43 167.208,142.08 167.208,73.132 205.422,95.2 205.422,83.62 166.721,61.277 	"></polygon>
	<linearGradient id="SVGID_3_" gradientUnits="userSpaceOnUse" x1="151.9525" y1="129.4285" x2="205.4217" y2="129.4285">
		<stop offset="0" style="stop-color:#A17B26"></stop>
		<stop offset="0.22" style="stop-color:#D4BB5F"></stop>
		<stop offset="0.328" style="stop-color:#EAD77F"></stop>
		<stop offset="0.524" style="stop-color:#F5ECA6"></stop>
		<stop offset="0.7298" style="stop-color:#EAD77F"></stop>
		<stop offset="1" style="stop-color:#A17B26"></stop>
	</linearGradient>
	<polygon style="fill:url(#SVGID_3_);" points="161.981,150.114 151.952,155.907 166.721,164.43 205.422,142.08 205.422,100.214 
		195.393,94.427 195.393,136.294 166.72,152.858 	"></polygon>
</g>
</svg></g> <!----></g><g id="shapge_UlLvrxmsbj" transform="translate(79,262) rotate(0,0,0) scale(1,1)" filter="" style="cursor: move; opacity: 1;"><g><svg xmlns="http://www.w3.org/2000/svg" version="1.1" xmlns:xlink="http://www.w3.org/1999/xlink" overflow="hidden" style="top:0; left: 0" width="185" height="34" viewBox="0 0 185.281 34.104" preserveAspectRatio="none" data-parent="shapge_UlLvrxmsbj"><rect fill="rgba(0,0,0,0)" width="185" height="34"></rect> <rect opacity="0"></rect><g transform="translate(0 0)" data-width="185.281"><path fill="#A17B26" d="M8.35 0L2.90 0L2.90-21.26L8.24-21.26L8.24-21.26Q13.14-21.26 15.70-18.52L15.70-18.52L15.70-18.52Q18.27-15.78 18.27-10.70L18.27-10.70L18.27-10.70Q18.27-5.66 15.72-2.83L15.72-2.83L15.72-2.83Q13.17 0 8.35 0L8.35 0ZM5.60-19.08L5.60-2.20L8.00-2.20L8.00-2.20Q11.77-2.20 13.63-4.44L13.63-4.44L13.63-4.44Q15.49-6.67 15.49-10.70L15.49-10.70L15.49-10.70Q15.49-14.76 13.63-16.92L13.63-16.92L13.63-16.92Q11.77-19.08 8.00-19.08L8.00-19.08L5.60-19.08Z" transform="translate(0 25.52)"></path><path fill="#A17B26" d="M6.29 0.38L6.29 0.38L6.29 0.38Q4.32 0.38 3.00-0.80L3.00-0.80L3.00-0.80Q1.68-1.97 1.68-4.09L1.68-4.09L1.68-4.09Q1.68-6.67 4.03-8.05L4.03-8.05L4.03-8.05Q6.38-9.43 11.37-9.98L11.37-9.98L11.37-9.98Q11.37-10.99 11.09-11.90L11.09-11.90L11.09-11.90Q10.82-12.82 10.12-13.38L10.12-13.38L10.12-13.38Q9.43-13.95 8.12-13.95L8.12-13.95L8.12-13.95Q6.76-13.95 5.55-13.44L5.55-13.44L5.55-13.44Q4.35-12.93 3.39-12.27L3.39-12.27L2.35-14.09L2.35-14.09Q3.45-14.82 5.06-15.49L5.06-15.49L5.06-15.49Q6.67-16.15 8.55-16.15L8.55-16.15L8.55-16.15Q11.43-16.15 12.72-14.38L12.72-14.38L12.72-14.38Q14.01-12.62 14.01-9.69L14.01-9.69L14.01 0L11.83 0L11.60-1.89L11.51-1.89L11.51-1.89Q10.38-0.93 9.06-0.28L9.06-0.28L9.06-0.28Q7.74 0.38 6.29 0.38ZM7.05-1.74L7.05-1.74L7.05-1.74Q8.21-1.74 9.22-2.28L9.22-2.28L9.22-2.28Q10.24-2.81 11.37-3.83L11.37-3.83L11.37-8.24L11.37-8.24Q7.45-7.77 5.86-6.79L5.86-6.79L5.86-6.79Q4.26-5.80 4.26-4.26L4.26-4.26L4.26-4.26Q4.26-2.93 5.08-2.33L5.08-2.33L5.08-2.33Q5.89-1.74 7.05-1.74Z" transform="translate(19.923000000000002 25.52)"></path><path fill="#A17B26" d="M7.63 0.38L7.63 0.38L7.63 0.38Q5.10 0.38 4.12-1.06L4.12-1.06L4.12-1.06Q3.13-2.49 3.13-4.87L3.13-4.87L3.13-13.60L0.78-13.60L0.78-15.60L3.25-15.75L3.57-20.16L5.77-20.16L5.77-15.75L10.03-15.75L10.03-13.60L5.77-13.60L5.77-4.81L5.77-4.81Q5.77-3.36 6.31-2.57L6.31-2.57L6.31-2.57Q6.84-1.77 8.21-1.77L8.21-1.77L8.21-1.77Q8.61-1.77 9.11-1.90L9.11-1.90L9.11-1.90Q9.60-2.03 10.01-2.18L10.01-2.18L10.53-0.20L10.53-0.20Q9.86 0.03 9.11 0.20L9.11 0.20L9.11 0.20Q8.35 0.38 7.63 0.38Z" transform="translate(36.279 25.52)"></path><path fill="#A17B26" d="M6.29 0.38L6.29 0.38L6.29 0.38Q4.32 0.38 3.00-0.80L3.00-0.80L3.00-0.80Q1.68-1.97 1.68-4.09L1.68-4.09L1.68-4.09Q1.68-6.67 4.03-8.05L4.03-8.05L4.03-8.05Q6.38-9.43 11.37-9.98L11.37-9.98L11.37-9.98Q11.37-10.99 11.09-11.90L11.09-11.90L11.09-11.90Q10.82-12.82 10.12-13.38L10.12-13.38L10.12-13.38Q9.43-13.95 8.12-13.95L8.12-13.95L8.12-13.95Q6.76-13.95 5.55-13.44L5.55-13.44L5.55-13.44Q4.35-12.93 3.39-12.27L3.39-12.27L2.35-14.09L2.35-14.09Q3.45-14.82 5.06-15.49L5.06-15.49L5.06-15.49Q6.67-16.15 8.55-16.15L8.55-16.15L8.55-16.15Q11.43-16.15 12.72-14.38L12.72-14.38L12.72-14.38Q14.01-12.62 14.01-9.69L14.01-9.69L14.01 0L11.83 0L11.60-1.89L11.51-1.89L11.51-1.89Q10.38-0.93 9.06-0.28L9.06-0.28L9.06-0.28Q7.74 0.38 6.29 0.38ZM7.05-1.74L7.05-1.74L7.05-1.74Q8.21-1.74 9.22-2.28L9.22-2.28L9.22-2.28Q10.24-2.81 11.37-3.83L11.37-3.83L11.37-8.24L11.37-8.24Q7.45-7.77 5.86-6.79L5.86-6.79L5.86-6.79Q4.26-5.80 4.26-4.26L4.26-4.26L4.26-4.26Q4.26-2.93 5.08-2.33L5.08-2.33L5.08-2.33Q5.89-1.74 7.05-1.74Z" transform="translate(47.212 25.52)"></path><path fill="#A17B26" d="" transform="translate(63.568000000000005 25.52)"></path><path fill="#A17B26" d="M6.58-11.89L5.54-8.64L11.98-8.64L10.96-11.89L10.96-11.89Q9.83-15.46 8.82-19.08L8.82-19.08L8.70-19.08L8.70-19.08Q7.71-15.43 6.58-11.89L6.58-11.89ZM17.52 0L14.67 0L12.64-6.50L4.87-6.50L2.81 0L0.09 0L7.31-21.26L10.29-21.26L17.52 0Z" transform="translate(75.11 25.52)"></path><path fill="#A17B26" d="M5.31 0L2.67 0L2.67-15.75L4.84-15.75L5.08-13.49L5.16-13.49L5.16-13.49Q6.29-14.62 7.57-15.38L7.57-15.38L7.57-15.38Q8.85-16.15 10.44-16.15L10.44-16.15L10.44-16.15Q12.93-16.15 14.09-14.57L14.09-14.57L14.09-14.57Q15.25-12.99 15.25-9.98L15.25-9.98L15.25 0L12.62 0L12.62-9.63L12.62-9.63Q12.62-11.86 11.90-12.85L11.90-12.85L11.90-12.85Q11.19-13.83 9.63-13.83L9.63-13.83L9.63-13.83Q8.41-13.83 7.44-13.22L7.44-13.22L7.44-13.22Q6.47-12.62 5.31-11.43L5.31-11.43L5.31 0Z" transform="translate(92.713 25.52)"></path><path fill="#A17B26" d="M6.29 0.38L6.29 0.38L6.29 0.38Q4.32 0.38 3.00-0.80L3.00-0.80L3.00-0.80Q1.68-1.97 1.68-4.09L1.68-4.09L1.68-4.09Q1.68-6.67 4.03-8.05L4.03-8.05L4.03-8.05Q6.38-9.43 11.37-9.98L11.37-9.98L11.37-9.98Q11.37-10.99 11.09-11.90L11.09-11.90L11.09-11.90Q10.82-12.82 10.12-13.38L10.12-13.38L10.12-13.38Q9.43-13.95 8.12-13.95L8.12-13.95L8.12-13.95Q6.76-13.95 5.55-13.44L5.55-13.44L5.55-13.44Q4.35-12.93 3.39-12.27L3.39-12.27L2.35-14.09L2.35-14.09Q3.45-14.82 5.06-15.49L5.06-15.49L5.06-15.49Q6.67-16.15 8.55-16.15L8.55-16.15L8.55-16.15Q11.43-16.15 12.72-14.38L12.72-14.38L12.72-14.38Q14.01-12.62 14.01-9.69L14.01-9.69L14.01 0L11.83 0L11.60-1.89L11.51-1.89L11.51-1.89Q10.38-0.93 9.06-0.28L9.06-0.28L9.06-0.28Q7.74 0.38 6.29 0.38ZM7.05-1.74L7.05-1.74L7.05-1.74Q8.21-1.74 9.22-2.28L9.22-2.28L9.22-2.28Q10.24-2.81 11.37-3.83L11.37-3.83L11.37-8.24L11.37-8.24Q7.45-7.77 5.86-6.79L5.86-6.79L5.86-6.79Q4.26-5.80 4.26-4.26L4.26-4.26L4.26-4.26Q4.26-2.93 5.08-2.33L5.08-2.33L5.08-2.33Q5.89-1.74 7.05-1.74Z" transform="translate(110.43199999999999 25.52)"></path><path fill="#A17B26" d="M5.45 0.38L5.45 0.38L5.45 0.38Q3.97 0.38 3.32-0.54L3.32-0.54L3.32-0.54Q2.67-1.45 2.67-3.13L2.67-3.13L2.67-23.08L5.31-23.08L5.31-2.96L5.31-2.96Q5.31-2.35 5.54-2.09L5.54-2.09L5.54-2.09Q5.77-1.83 6.06-1.83L6.06-1.83L6.06-1.83Q6.18-1.83 6.29-1.84L6.29-1.84L6.29-1.84Q6.41-1.86 6.61-1.89L6.61-1.89L6.99 0.15L6.99 0.15Q6.50 0.38 5.45 0.38Z" transform="translate(126.78799999999998 25.52)"></path><path fill="#A17B26" d="M2.93 6.79L2.93 6.79L2.93 6.79Q1.80 6.79 1.07 6.47L1.07 6.47L1.59 4.35L1.59 4.35Q1.83 4.44 2.16 4.52L2.16 4.52L2.16 4.52Q2.49 4.61 2.78 4.61L2.78 4.61L2.78 4.61Q4.15 4.61 5.02 3.65L5.02 3.65L5.02 3.65Q5.89 2.70 6.35 1.22L6.35 1.22L6.70 0.03L0.38-15.75L3.13-15.75L6.35-6.99L6.35-6.99Q6.44-6.70 6.55-6.41L6.55-6.41L6.55-6.41Q7.19-4.50 7.86-2.58L7.86-2.58L8.00-2.58L8.00-2.58Q8.29-3.48 8.55-4.44L8.55-4.44L8.55-4.44Q8.96-5.77 9.34-6.99L9.34-6.99L12.15-15.75L14.73-15.75L8.79 1.31L8.79 1.31Q8.24 2.87 7.47 4.10L7.47 4.10L7.47 4.10Q6.70 5.34 5.60 6.06L5.60 6.06L5.60 6.06Q4.50 6.79 2.93 6.79Z" transform="translate(135.053 25.52)"></path><path fill="#A17B26" d="M6.79 0.38L6.79 0.38L6.79 0.38Q5.10 0.38 3.58-0.23L3.58-0.23L3.58-0.23Q2.06-0.84 0.90-1.80L0.90-1.80L2.20-3.54L2.20-3.54Q3.22-2.70 4.34-2.19L4.34-2.19L4.34-2.19Q5.45-1.68 6.87-1.68L6.87-1.68L6.87-1.68Q8.44-1.68 9.21-2.41L9.21-2.41L9.21-2.41Q9.98-3.13 9.98-4.15L9.98-4.15L9.98-4.15Q9.98-4.96 9.44-5.50L9.44-5.50L9.44-5.50Q8.90-6.03 8.09-6.42L8.09-6.42L8.09-6.42Q7.28-6.82 6.38-7.13L6.38-7.13L6.38-7.13Q5.25-7.54 4.18-8.09L4.18-8.09L4.18-8.09Q3.10-8.64 2.39-9.50L2.39-9.50L2.39-9.50Q1.68-10.35 1.68-11.69L1.68-11.69L1.68-11.69Q1.68-13.57 3.12-14.86L3.12-14.86L3.12-14.86Q4.55-16.15 7.11-16.15L7.11-16.15L7.11-16.15Q8.55-16.15 9.82-15.63L9.82-15.63L9.82-15.63Q11.08-15.11 12.01-14.38L12.01-14.38L10.73-12.67L10.73-12.67Q9.92-13.28 9.05-13.67L9.05-13.67L9.05-13.67Q8.18-14.07 7.11-14.07L7.11-14.07L7.11-14.07Q5.63-14.07 4.93-13.40L4.93-13.40L4.93-13.40Q4.23-12.73 4.23-11.80L4.23-11.80L4.23-11.80Q4.23-11.08 4.68-10.61L4.68-10.61L4.68-10.61Q5.13-10.15 5.86-9.82L5.86-9.82L5.86-9.82Q6.58-9.48 7.42-9.19L7.42-9.19L7.42-9.19Q7.57-9.13 7.71-9.08L7.71-9.08L7.71-9.08Q8.87-8.67 9.98-8.12L9.98-8.12L9.98-8.12Q11.08-7.57 11.80-6.68L11.80-6.68L11.80-6.68Q12.53-5.80 12.53-4.29L12.53-4.29L12.53-4.29Q12.53-2.38 11.05-1.00L11.05-1.00L11.05-1.00Q9.57 0.38 6.79 0.38Z" transform="translate(150.162 25.52)"></path><path fill="#A17B26" d="M5.31 0L2.67 0L2.67-15.75L5.31-15.75L5.31 0ZM4.00-19.00L4.00-19.00L4.00-19.00Q3.22-19.00 2.70-19.49L2.70-19.49L2.70-19.49Q2.18-19.98 2.18-20.71L2.18-20.71L2.18-20.71Q2.18-22.33 4.00-22.42L4.00-22.42L4.00-22.42Q4.79-22.42 5.31-21.97L5.31-21.97L5.31-21.97Q5.83-21.52 5.83-20.71L5.83-20.71L5.83-20.71Q5.83-19.98 5.31-19.49L5.31-19.49L5.31-19.49Q4.79-19.00 4.00-19.00Z" transform="translate(163.734 25.52)"></path><path fill="#A17B26" d="M6.79 0.38L6.79 0.38L6.79 0.38Q5.10 0.38 3.58-0.23L3.58-0.23L3.58-0.23Q2.06-0.84 0.90-1.80L0.90-1.80L2.20-3.54L2.20-3.54Q3.22-2.70 4.34-2.19L4.34-2.19L4.34-2.19Q5.45-1.68 6.87-1.68L6.87-1.68L6.87-1.68Q8.44-1.68 9.21-2.41L9.21-2.41L9.21-2.41Q9.98-3.13 9.98-4.15L9.98-4.15L9.98-4.15Q9.98-4.96 9.44-5.50L9.44-5.50L9.44-5.50Q8.90-6.03 8.09-6.42L8.09-6.42L8.09-6.42Q7.28-6.82 6.38-7.13L6.38-7.13L6.38-7.13Q5.25-7.54 4.18-8.09L4.18-8.09L4.18-8.09Q3.10-8.64 2.39-9.50L2.39-9.50L2.39-9.50Q1.68-10.35 1.68-11.69L1.68-11.69L1.68-11.69Q1.68-13.57 3.12-14.86L3.12-14.86L3.12-14.86Q4.55-16.15 7.11-16.15L7.11-16.15L7.11-16.15Q8.55-16.15 9.82-15.63L9.82-15.63L9.82-15.63Q11.08-15.11 12.01-14.38L12.01-14.38L10.73-12.67L10.73-12.67Q9.92-13.28 9.05-13.67L9.05-13.67L9.05-13.67Q8.18-14.07 7.11-14.07L7.11-14.07L7.11-14.07Q5.63-14.07 4.93-13.40L4.93-13.40L4.93-13.40Q4.23-12.73 4.23-11.80L4.23-11.80L4.23-11.80Q4.23-11.08 4.68-10.61L4.68-10.61L4.68-10.61Q5.13-10.15 5.86-9.82L5.86-9.82L5.86-9.82Q6.58-9.48 7.42-9.19L7.42-9.19L7.42-9.19Q7.57-9.13 7.71-9.08L7.71-9.08L7.71-9.08Q8.87-8.67 9.98-8.12L9.98-8.12L9.98-8.12Q11.08-7.57 11.80-6.68L11.80-6.68L11.80-6.68Q12.53-5.80 12.53-4.29L12.53-4.29L12.53-4.29Q12.53-2.38 11.05-1.00L11.05-1.00L11.05-1.00Q9.57 0.38 6.79 0.38Z" transform="translate(171.709 25.52)"></path></g></svg></g> <!----></g><g id="shapge_fTZZ1yAIo9" transform="translate(104.5,302) rotate(0,0,0) scale(1,1)" filter="" style="cursor: move; opacity: 1;"><g><svg xmlns="http://www.w3.org/2000/svg" version="1.1" xmlns:xlink="http://www.w3.org/1999/xlink" overflow="hidden" style="top:0; left: 0" width="134" height="24" viewBox="0 0 134.169 24.695999999999998" preserveAspectRatio="none" data-parent="shapge_fTZZ1yAIo9"><rect fill="rgba(0,0,0,0)" width="134" height="24"></rect> <rect opacity="0"></rect><g transform="translate(0 0)" data-width="134.169"><path fill="#D4BB5F" d="M6.05 0L2.10 0L2.10-15.39L5.96-15.39L5.96-15.39Q9.51-15.39 11.37-13.41L11.37-13.41L11.37-13.41Q13.23-11.42 13.23-7.75L13.23-7.75L13.23-7.75Q13.23-4.10 11.38-2.05L11.38-2.05L11.38-2.05Q9.53 0 6.05 0L6.05 0ZM4.05-13.82L4.05-1.60L5.80-1.60L5.80-1.60Q8.53-1.60 9.87-3.21L9.87-3.21L9.87-3.21Q11.21-4.83 11.21-7.75L11.21-7.75L11.21-7.75Q11.21-10.69 9.87-12.25L9.87-12.25L9.87-12.25Q8.53-13.82 5.80-13.82L5.80-13.82L4.05-13.82Z" transform="translate(0 18.48)"></path><path fill="#D4BB5F" d="M4.56 0.27L4.56 0.27L4.56 0.27Q3.13 0.27 2.17-0.58L2.17-0.58L2.17-0.58Q1.22-1.43 1.22-2.96L1.22-2.96L1.22-2.96Q1.22-4.83 2.92-5.83L2.92-5.83L2.92-5.83Q4.62-6.83 8.23-7.22L8.23-7.22L8.23-7.22Q8.23-7.96 8.03-8.62L8.03-8.62L8.03-8.62Q7.83-9.28 7.33-9.69L7.33-9.69L7.33-9.69Q6.83-10.10 5.88-10.10L5.88-10.10L5.88-10.10Q4.89-10.10 4.02-9.73L4.02-9.73L4.02-9.73Q3.15-9.37 2.46-8.88L2.46-8.88L1.70-10.21L1.70-10.21Q2.50-10.73 3.66-11.21L3.66-11.21L3.66-11.21Q4.83-11.70 6.20-11.70L6.20-11.70L6.20-11.70Q8.27-11.70 9.21-10.42L9.21-10.42L9.21-10.42Q10.14-9.13 10.14-7.01L10.14-7.01L10.14 0L8.57 0L8.40-1.36L8.34-1.36L8.34-1.36Q7.52-0.67 6.56-0.20L6.56-0.20L6.56-0.20Q5.61 0.27 4.56 0.27ZM5.10-1.26L5.10-1.26L5.10-1.26Q5.94-1.26 6.68-1.65L6.68-1.65L6.68-1.65Q7.41-2.04 8.23-2.77L8.23-2.77L8.23-5.96L8.23-5.96Q5.40-5.63 4.24-4.91L4.24-4.91L4.24-4.91Q3.09-4.20 3.09-3.09L3.09-3.09L3.09-3.09Q3.09-2.12 3.68-1.69L3.68-1.69L3.68-1.69Q4.26-1.26 5.10-1.26Z" transform="translate(14.427000000000001 18.48)"></path><path fill="#D4BB5F" d="M5.52 0.27L5.52 0.27L5.52 0.27Q3.70 0.27 2.98-0.77L2.98-0.77L2.98-0.77Q2.27-1.81 2.27-3.53L2.27-3.53L2.27-9.85L0.57-9.85L0.57-11.30L2.35-11.40L2.58-14.60L4.18-14.60L4.18-11.40L7.27-11.40L7.27-9.85L4.18-9.85L4.18-3.49L4.18-3.49Q4.18-2.44 4.57-1.86L4.57-1.86L4.57-1.86Q4.96-1.28 5.94-1.28L5.94-1.28L5.94-1.28Q6.24-1.28 6.59-1.38L6.59-1.38L6.59-1.38Q6.95-1.47 7.25-1.58L7.25-1.58L7.62-0.15L7.62-0.15Q7.14 0.02 6.59 0.15L6.59 0.15L6.59 0.15Q6.05 0.27 5.52 0.27Z" transform="translate(26.271 18.48)"></path><path fill="#D4BB5F" d="M4.56 0.27L4.56 0.27L4.56 0.27Q3.13 0.27 2.17-0.58L2.17-0.58L2.17-0.58Q1.22-1.43 1.22-2.96L1.22-2.96L1.22-2.96Q1.22-4.83 2.92-5.83L2.92-5.83L2.92-5.83Q4.62-6.83 8.23-7.22L8.23-7.22L8.23-7.22Q8.23-7.96 8.03-8.62L8.03-8.62L8.03-8.62Q7.83-9.28 7.33-9.69L7.33-9.69L7.33-9.69Q6.83-10.10 5.88-10.10L5.88-10.10L5.88-10.10Q4.89-10.10 4.02-9.73L4.02-9.73L4.02-9.73Q3.15-9.37 2.46-8.88L2.46-8.88L1.70-10.21L1.70-10.21Q2.50-10.73 3.66-11.21L3.66-11.21L3.66-11.21Q4.83-11.70 6.20-11.70L6.20-11.70L6.20-11.70Q8.27-11.70 9.21-10.42L9.21-10.42L9.21-10.42Q10.14-9.13 10.14-7.01L10.14-7.01L10.14 0L8.57 0L8.40-1.36L8.34-1.36L8.34-1.36Q7.52-0.67 6.56-0.20L6.56-0.20L6.56-0.20Q5.61 0.27 4.56 0.27ZM5.10-1.26L5.10-1.26L5.10-1.26Q5.94-1.26 6.68-1.65L6.68-1.65L6.68-1.65Q7.41-2.04 8.23-2.77L8.23-2.77L8.23-5.96L8.23-5.96Q5.40-5.63 4.24-4.91L4.24-4.91L4.24-4.91Q3.09-4.20 3.09-3.09L3.09-3.09L3.09-3.09Q3.09-2.12 3.68-1.69L3.68-1.69L3.68-1.69Q4.26-1.26 5.10-1.26Z" transform="translate(34.188 18.48)"></path><path fill="#D4BB5F" d="" transform="translate(46.032000000000004 18.48)"></path><path fill="#D4BB5F" d="M4.77-8.61L4.01-6.26L8.67-6.26L7.94-8.61L7.94-8.61Q7.12-11.19 6.38-13.82L6.38-13.82L6.30-13.82L6.30-13.82Q5.59-11.17 4.77-8.61L4.77-8.61ZM12.68 0L10.63 0L9.16-4.70L3.53-4.70L2.04 0L0.06 0L5.29-15.39L7.46-15.39L12.68 0Z" transform="translate(54.39 18.48)"></path><path fill="#D4BB5F" d="M3.84 0L1.93 0L1.93-11.40L3.51-11.40L3.68-9.77L3.74-9.77L3.74-9.77Q4.56-10.58 5.48-11.14L5.48-11.14L5.48-11.14Q6.41-11.70 7.56-11.70L7.56-11.70L7.56-11.70Q9.37-11.70 10.21-10.55L10.21-10.55L10.21-10.55Q11.05-9.41 11.05-7.22L11.05-7.22L11.05 0L9.13 0L9.13-6.97L9.13-6.97Q9.13-8.59 8.62-9.30L8.62-9.30L8.62-9.30Q8.11-10.02 6.97-10.02L6.97-10.02L6.97-10.02Q6.09-10.02 5.39-9.58L5.39-9.58L5.39-9.58Q4.68-9.13 3.84-8.27L3.84-8.27L3.84 0Z" transform="translate(67.137 18.48)"></path><path fill="#D4BB5F" d="M4.56 0.27L4.56 0.27L4.56 0.27Q3.13 0.27 2.17-0.58L2.17-0.58L2.17-0.58Q1.22-1.43 1.22-2.96L1.22-2.96L1.22-2.96Q1.22-4.83 2.92-5.83L2.92-5.83L2.92-5.83Q4.62-6.83 8.23-7.22L8.23-7.22L8.23-7.22Q8.23-7.96 8.03-8.62L8.03-8.62L8.03-8.62Q7.83-9.28 7.33-9.69L7.33-9.69L7.33-9.69Q6.83-10.10 5.88-10.10L5.88-10.10L5.88-10.10Q4.89-10.10 4.02-9.73L4.02-9.73L4.02-9.73Q3.15-9.37 2.46-8.88L2.46-8.88L1.70-10.21L1.70-10.21Q2.50-10.73 3.66-11.21L3.66-11.21L3.66-11.21Q4.83-11.70 6.20-11.70L6.20-11.70L6.20-11.70Q8.27-11.70 9.21-10.42L9.21-10.42L9.21-10.42Q10.14-9.13 10.14-7.01L10.14-7.01L10.14 0L8.57 0L8.40-1.36L8.34-1.36L8.34-1.36Q7.52-0.67 6.56-0.20L6.56-0.20L6.56-0.20Q5.61 0.27 4.56 0.27ZM5.10-1.26L5.10-1.26L5.10-1.26Q5.94-1.26 6.68-1.65L6.68-1.65L6.68-1.65Q7.41-2.04 8.23-2.77L8.23-2.77L8.23-5.96L8.23-5.96Q5.40-5.63 4.24-4.91L4.24-4.91L4.24-4.91Q3.09-4.20 3.09-3.09L3.09-3.09L3.09-3.09Q3.09-2.12 3.68-1.69L3.68-1.69L3.68-1.69Q4.26-1.26 5.10-1.26Z" transform="translate(79.968 18.48)"></path><path fill="#D4BB5F" d="M3.95 0.27L3.95 0.27L3.95 0.27Q2.88 0.27 2.40-0.39L2.40-0.39L2.40-0.39Q1.93-1.05 1.93-2.27L1.93-2.27L1.93-16.72L3.84-16.72L3.84-2.14L3.84-2.14Q3.84-1.70 4.01-1.51L4.01-1.51L4.01-1.51Q4.18-1.32 4.39-1.32L4.39-1.32L4.39-1.32Q4.47-1.32 4.56-1.33L4.56-1.33L4.56-1.33Q4.64-1.34 4.79-1.36L4.79-1.36L5.06 0.11L5.06 0.11Q4.70 0.27 3.95 0.27Z" transform="translate(91.81200000000001 18.48)"></path><path fill="#D4BB5F" d="M2.12 4.91L2.12 4.91L2.12 4.91Q1.30 4.91 0.78 4.68L0.78 4.68L1.16 3.15L1.16 3.15Q1.32 3.21 1.56 3.28L1.56 3.28L1.56 3.28Q1.81 3.34 2.02 3.34L2.02 3.34L2.02 3.34Q3.00 3.34 3.63 2.65L3.63 2.65L3.63 2.65Q4.26 1.95 4.60 0.88L4.60 0.88L4.85 0.02L0.27-11.40L2.27-11.40L4.60-5.06L4.60-5.06Q4.66-4.85 4.75-4.64L4.75-4.64L4.75-4.64Q5.21-3.26 5.69-1.87L5.69-1.87L5.80-1.87L5.80-1.87Q6.01-2.52 6.20-3.21L6.20-3.21L6.20-3.21Q6.49-4.18 6.76-5.06L6.76-5.06L8.80-11.40L10.67-11.40L6.36 0.95L6.36 0.95Q5.96 2.08 5.41 2.97L5.41 2.97L5.41 2.97Q4.85 3.86 4.05 4.39L4.05 4.39L4.05 4.39Q3.26 4.91 2.12 4.91Z" transform="translate(97.79700000000001 18.48)"></path><path fill="#D4BB5F" d="M4.91 0.27L4.91 0.27L4.91 0.27Q3.70 0.27 2.59-0.17L2.59-0.17L2.59-0.17Q1.49-0.61 0.65-1.30L0.65-1.30L1.60-2.56L1.60-2.56Q2.33-1.95 3.14-1.59L3.14-1.59L3.14-1.59Q3.95-1.22 4.98-1.22L4.98-1.22L4.98-1.22Q6.11-1.22 6.67-1.74L6.67-1.74L6.67-1.74Q7.22-2.27 7.22-3.00L7.22-3.00L7.22-3.00Q7.22-3.59 6.84-3.98L6.84-3.98L6.84-3.98Q6.45-4.37 5.86-4.65L5.86-4.65L5.86-4.65Q5.27-4.94 4.62-5.17L4.62-5.17L4.62-5.17Q3.80-5.46 3.02-5.86L3.02-5.86L3.02-5.86Q2.25-6.26 1.73-6.88L1.73-6.88L1.73-6.88Q1.22-7.50 1.22-8.46L1.22-8.46L1.22-8.46Q1.22-9.83 2.26-10.76L2.26-10.76L2.26-10.76Q3.30-11.70 5.15-11.70L5.15-11.70L5.15-11.70Q6.20-11.70 7.11-11.32L7.11-11.32L7.11-11.32Q8.02-10.94 8.69-10.42L8.69-10.42L7.77-9.18L7.77-9.18Q7.18-9.62 6.55-9.90L6.55-9.90L6.55-9.90Q5.92-10.19 5.15-10.19L5.15-10.19L5.15-10.19Q4.07-10.19 3.57-9.70L3.57-9.70L3.57-9.70Q3.07-9.22 3.07-8.55L3.07-8.55L3.07-8.55Q3.07-8.02 3.39-7.69L3.39-7.69L3.39-7.69Q3.72-7.35 4.24-7.11L4.24-7.11L4.24-7.11Q4.77-6.87 5.38-6.66L5.38-6.66L5.38-6.66Q5.48-6.62 5.59-6.57L5.59-6.57L5.59-6.57Q6.43-6.28 7.22-5.88L7.22-5.88L7.22-5.88Q8.02-5.48 8.55-4.84L8.55-4.84L8.55-4.84Q9.07-4.20 9.07-3.11L9.07-3.11L9.07-3.11Q9.07-1.72 8.00-0.72L8.00-0.72L8.00-0.72Q6.93 0.27 4.91 0.27Z" transform="translate(108.73800000000001 18.48)"></path><path fill="#D4BB5F" d="M3.84 0L1.93 0L1.93-11.40L3.84-11.40L3.84 0ZM2.90-13.76L2.90-13.76L2.90-13.76Q2.33-13.76 1.95-14.11L1.95-14.11L1.95-14.11Q1.58-14.47 1.58-14.99L1.58-14.99L1.58-14.99Q1.58-16.17 2.90-16.23L2.90-16.23L2.90-16.23Q3.47-16.23 3.84-15.91L3.84-15.91L3.84-15.91Q4.22-15.58 4.22-14.99L4.22-14.99L4.22-14.99Q4.22-14.47 3.84-14.11L3.84-14.11L3.84-14.11Q3.47-13.76 2.90-13.76Z" transform="translate(118.56600000000002 18.48)"></path><path fill="#D4BB5F" d="M4.91 0.27L4.91 0.27L4.91 0.27Q3.70 0.27 2.59-0.17L2.59-0.17L2.59-0.17Q1.49-0.61 0.65-1.30L0.65-1.30L1.60-2.56L1.60-2.56Q2.33-1.95 3.14-1.59L3.14-1.59L3.14-1.59Q3.95-1.22 4.98-1.22L4.98-1.22L4.98-1.22Q6.11-1.22 6.67-1.74L6.67-1.74L6.67-1.74Q7.22-2.27 7.22-3.00L7.22-3.00L7.22-3.00Q7.22-3.59 6.84-3.98L6.84-3.98L6.84-3.98Q6.45-4.37 5.86-4.65L5.86-4.65L5.86-4.65Q5.27-4.94 4.62-5.17L4.62-5.17L4.62-5.17Q3.80-5.46 3.02-5.86L3.02-5.86L3.02-5.86Q2.25-6.26 1.73-6.88L1.73-6.88L1.73-6.88Q1.22-7.50 1.22-8.46L1.22-8.46L1.22-8.46Q1.22-9.83 2.26-10.76L2.26-10.76L2.26-10.76Q3.30-11.70 5.15-11.70L5.15-11.70L5.15-11.70Q6.20-11.70 7.11-11.32L7.11-11.32L7.11-11.32Q8.02-10.94 8.69-10.42L8.69-10.42L7.77-9.18L7.77-9.18Q7.18-9.62 6.55-9.90L6.55-9.90L6.55-9.90Q5.92-10.19 5.15-10.19L5.15-10.19L5.15-10.19Q4.07-10.19 3.57-9.70L3.57-9.70L3.57-9.70Q3.07-9.22 3.07-8.55L3.07-8.55L3.07-8.55Q3.07-8.02 3.39-7.69L3.39-7.69L3.39-7.69Q3.72-7.35 4.24-7.11L4.24-7.11L4.24-7.11Q4.77-6.87 5.38-6.66L5.38-6.66L5.38-6.66Q5.48-6.62 5.59-6.57L5.59-6.57L5.59-6.57Q6.43-6.28 7.22-5.88L7.22-5.88L7.22-5.88Q8.02-5.48 8.55-4.84L8.55-4.84L8.55-4.84Q9.07-4.20 9.07-3.11L9.07-3.11L9.07-3.11Q9.07-1.72 8.00-0.72L8.00-0.72L8.00-0.72Q6.93 0.27 4.91 0.27Z" transform="translate(124.34100000000002 18.48)"></path></g></svg></g> <!----></g>  <!----></svg>