<svg data-noselect="" viewBox="0 0 343 356" width="343" height="356" preserveAspectRatio="none" version="1.1" xmlns="http://www.w3.org/2000/svg" style="background: rgba(255, 255, 255, 0);"><defs></defs> <g id="shape_DQBnDpWNFi" transform="translate(30,30) rotate(0,0,0) scale(1,1)" filter="" style="cursor: move; opacity: 1;"><g><rect fill="rgba(0,0,0,0)" width="303" height="246" x="-10" y="-10"></rect><svg version="1.1" id="图层_1" xmlns="http://www.w3.org/2000/svg" xmlns:xlink="http://www.w3.org/1999/xlink" x="0px" y="0px" width="283" height="226" viewBox="0 0 283.46 226.77" style="enable-background:new 0 0 283.46 226.77;" xml:space="preserve" preserveAspectRatio="none" data-parent="shape_DQBnDpWNFi">
<g>
	<linearGradient id="SVGID_1_" gradientUnits="userSpaceOnUse" x1="136.4819" y1="134.3931" x2="136.5485" y2="134.3931">
		<stop offset="0" style="stop-color:#DDB533"></stop>
		<stop offset="0.2479" style="stop-color:#CCB25C"></stop>
		<stop offset="0.5453" style="stop-color:#E9DA92"></stop>
		<stop offset="0.8055" style="stop-color:#D4B245"></stop>
		<stop offset="1" style="stop-color:#B17E29"></stop>
	</linearGradient>
	<path style="fill:url(#SVGID_1_);" d="M136.482,134.199c0.014,0.138,0.04,0.262,0.066,0.388c0,0,0,0,0,0c0,0,0-0.001,0-0.001
		C136.522,134.462,136.496,134.337,136.482,134.199z"></path>
	<linearGradient id="SVGID_2_" gradientUnits="userSpaceOnUse" x1="137.4074" y1="136.8892" x2="139.7261" y2="136.8892">
		<stop offset="0" style="stop-color:#DDB533"></stop>
		<stop offset="0.2479" style="stop-color:#CCB25C"></stop>
		<stop offset="0.5453" style="stop-color:#E9DA92"></stop>
		<stop offset="0.8055" style="stop-color:#D4B245"></stop>
		<stop offset="1" style="stop-color:#B17E29"></stop>
	</linearGradient>
	<path style="fill:url(#SVGID_2_);" d="M139.726,137.022c-0.789-0.08-1.554-0.173-2.318-0.265c0,0-0.001,0-0.001,0
		c0,0,0.001,0,0.001,0C138.173,136.849,138.937,136.942,139.726,137.022z"></path>
	<linearGradient id="SVGID_3_" gradientUnits="userSpaceOnUse" x1="129.9852" y1="119.0983" x2="130.4013" y2="119.0983">
		<stop offset="0" style="stop-color:#DDB533"></stop>
		<stop offset="0.2479" style="stop-color:#CCB25C"></stop>
		<stop offset="0.5453" style="stop-color:#E9DA92"></stop>
		<stop offset="0.8055" style="stop-color:#D4B245"></stop>
		<stop offset="1" style="stop-color:#B17E29"></stop>
	</linearGradient>
	<polygon style="fill:url(#SVGID_3_);" points="129.985,118.9 130.401,119.296 129.985,118.9 	"></polygon>
	<linearGradient id="SVGID_4_" gradientUnits="userSpaceOnUse" x1="130.4232" y1="115.1134" x2="130.4242" y2="115.1134">
		<stop offset="0" style="stop-color:#DDB533"></stop>
		<stop offset="0.2479" style="stop-color:#CCB25C"></stop>
		<stop offset="0.5453" style="stop-color:#E9DA92"></stop>
		<stop offset="0.8055" style="stop-color:#D4B245"></stop>
		<stop offset="1" style="stop-color:#B17E29"></stop>
	</linearGradient>
	<polygon style="fill:url(#SVGID_4_);" points="130.423,115.114 130.424,115.113 130.424,115.113 	"></polygon>
	<linearGradient id="SVGID_5_" gradientUnits="userSpaceOnUse" x1="132.9068" y1="131.3022" x2="133.3764" y2="131.3022">
		<stop offset="0" style="stop-color:#DDB533"></stop>
		<stop offset="0.2479" style="stop-color:#CCB25C"></stop>
		<stop offset="0.5453" style="stop-color:#E9DA92"></stop>
		<stop offset="0.8055" style="stop-color:#D4B245"></stop>
		<stop offset="1" style="stop-color:#B17E29"></stop>
	</linearGradient>
	<path style="fill:url(#SVGID_5_);" d="M133.376,131.601c0,0-0.001-0.001-0.001-0.001c-0.152-0.199-0.304-0.398-0.469-0.596
		C133.071,131.202,133.224,131.401,133.376,131.601C133.376,131.6,133.376,131.601,133.376,131.601z"></path>
	<linearGradient id="SVGID_6_" gradientUnits="userSpaceOnUse" x1="150.7825" y1="137.6317" x2="152.6213" y2="137.6317">
		<stop offset="0" style="stop-color:#DDB533"></stop>
		<stop offset="0.2479" style="stop-color:#CCB25C"></stop>
		<stop offset="0.5453" style="stop-color:#E9DA92"></stop>
		<stop offset="0.8055" style="stop-color:#D4B245"></stop>
		<stop offset="1" style="stop-color:#B17E29"></stop>
	</linearGradient>
	<path style="fill:url(#SVGID_6_);" d="M152.621,136.909c-0.608,0.494-1.23,0.976-1.839,1.445
		C151.391,137.885,152.012,137.403,152.621,136.909C152.621,136.909,152.621,136.909,152.621,136.909z"></path>
	<linearGradient id="SVGID_7_" gradientUnits="userSpaceOnUse" x1="144.5813" y1="137.8999" x2="146.1828" y2="137.8999">
		<stop offset="0" style="stop-color:#DDB533"></stop>
		<stop offset="0.2479" style="stop-color:#CCB25C"></stop>
		<stop offset="0.5453" style="stop-color:#E9DA92"></stop>
		<stop offset="0.8055" style="stop-color:#D4B245"></stop>
		<stop offset="1" style="stop-color:#B17E29"></stop>
	</linearGradient>
	<path style="fill:url(#SVGID_7_);" d="M144.582,138.014C144.582,138.014,144.582,138.014,144.582,138.014
		C144.582,138.014,144.582,138.014,144.582,138.014c0.538-0.08,1.076-0.161,1.601-0.228
		C145.657,137.853,145.12,137.934,144.582,138.014z"></path>
	<linearGradient id="SVGID_8_" gradientUnits="userSpaceOnUse" x1="144.2513" y1="137.5538" x2="144.2524" y2="137.5538">
		<stop offset="0" style="stop-color:#DDB533"></stop>
		<stop offset="0.2479" style="stop-color:#CCB25C"></stop>
		<stop offset="0.5453" style="stop-color:#E9DA92"></stop>
		<stop offset="0.8055" style="stop-color:#D4B245"></stop>
		<stop offset="1" style="stop-color:#B17E29"></stop>
	</linearGradient>
	<rect x="144.251" y="137.554" style="fill:url(#SVGID_8_);" width="0.001" height="0"></rect>
	<linearGradient id="SVGID_9_" gradientUnits="userSpaceOnUse" x1="142.6684" y1="138.2831" x2="142.6693" y2="138.2831">
		<stop offset="0" style="stop-color:#DDB533"></stop>
		<stop offset="0.2479" style="stop-color:#CCB25C"></stop>
		<stop offset="0.5453" style="stop-color:#E9DA92"></stop>
		<stop offset="0.8055" style="stop-color:#D4B245"></stop>
		<stop offset="1" style="stop-color:#B17E29"></stop>
	</linearGradient>
	<polygon style="fill:url(#SVGID_9_);" points="142.668,138.283 142.669,138.283 142.669,138.283 	"></polygon>
	<linearGradient id="SVGID_10_" gradientUnits="userSpaceOnUse" x1="132.5193" y1="181.1409" x2="132.6328" y2="181.1409">
		<stop offset="0" style="stop-color:#DDB533"></stop>
		<stop offset="0.2479" style="stop-color:#CCB25C"></stop>
		<stop offset="0.5453" style="stop-color:#E9DA92"></stop>
		<stop offset="0.8055" style="stop-color:#D4B245"></stop>
		<stop offset="1" style="stop-color:#B17E29"></stop>
	</linearGradient>
	<path style="fill:url(#SVGID_10_);" d="M132.52,181.164c0.038-0.015,0.075-0.032,0.113-0.046
		C132.594,181.132,132.558,181.15,132.52,181.164C132.519,181.164,132.52,181.164,132.52,181.164z"></path>
	<linearGradient id="SVGID_11_" gradientUnits="userSpaceOnUse" x1="162.8961" y1="125.3027" x2="163.0564" y2="125.3027">
		<stop offset="0" style="stop-color:#DDB533"></stop>
		<stop offset="0.2479" style="stop-color:#CCB25C"></stop>
		<stop offset="0.5453" style="stop-color:#E9DA92"></stop>
		<stop offset="0.8055" style="stop-color:#D4B245"></stop>
		<stop offset="1" style="stop-color:#B17E29"></stop>
	</linearGradient>
	<path style="fill:url(#SVGID_11_);" d="M163.056,125.839C163.056,125.839,163.056,125.839,163.056,125.839
		C163.056,125.839,163.056,125.839,163.056,125.839c-0.053-0.349-0.107-0.711-0.16-1.073
		C162.949,125.128,163.003,125.489,163.056,125.839z"></path>
	<linearGradient id="SVGID_12_" gradientUnits="userSpaceOnUse" x1="129.4879" y1="123.3345" x2="129.9414" y2="123.3345">
		<stop offset="0" style="stop-color:#DDB533"></stop>
		<stop offset="0.2479" style="stop-color:#CCB25C"></stop>
		<stop offset="0.5453" style="stop-color:#E9DA92"></stop>
		<stop offset="0.8055" style="stop-color:#D4B245"></stop>
		<stop offset="1" style="stop-color:#B17E29"></stop>
	</linearGradient>
	<path style="fill:url(#SVGID_12_);" d="M129.488,123.174C129.488,123.174,129.488,123.175,129.488,123.174
		c0.151,0.099,0.302,0.21,0.454,0.321C129.79,123.384,129.639,123.273,129.488,123.174
		C129.488,123.174,129.488,123.174,129.488,123.174C129.488,123.174,129.488,123.174,129.488,123.174z"></path>
	<linearGradient id="SVGID_13_" gradientUnits="userSpaceOnUse" x1="161.5085" y1="115.6924" x2="162.9048" y2="115.6924">
		<stop offset="0" style="stop-color:#DDB533"></stop>
		<stop offset="0.2479" style="stop-color:#CCB25C"></stop>
		<stop offset="0.5453" style="stop-color:#E9DA92"></stop>
		<stop offset="0.8055" style="stop-color:#D4B245"></stop>
		<stop offset="1" style="stop-color:#B17E29"></stop>
	</linearGradient>
	<path style="fill:url(#SVGID_13_);" d="M162.905,116.573c-0.461-0.583-0.922-1.165-1.395-1.761c0,0,0,0,0-0.001
		c0,0.001,0,0.001,0,0.001s0,0-0.001-0.001c0.001,0.001,0.001,0.001,0.001,0.001C161.983,115.408,162.444,115.99,162.905,116.573z"></path>
	<linearGradient id="SVGID_14_" gradientUnits="userSpaceOnUse" x1="129.244" y1="125.0849" x2="129.2441" y2="125.0849">
		<stop offset="0" style="stop-color:#DDB533"></stop>
		<stop offset="0.2479" style="stop-color:#CCB25C"></stop>
		<stop offset="0.5453" style="stop-color:#E9DA92"></stop>
		<stop offset="0.8055" style="stop-color:#D4B245"></stop>
		<stop offset="1" style="stop-color:#B17E29"></stop>
	</linearGradient>
	<polygon style="fill:url(#SVGID_14_);" points="129.244,125.079 129.244,125.078 129.244,125.079 129.244,125.092 	"></polygon>
	<linearGradient id="SVGID_15_" gradientUnits="userSpaceOnUse" x1="129.1758" y1="119.0258" x2="129.4574" y2="119.0258">
		<stop offset="0" style="stop-color:#DDB533"></stop>
		<stop offset="0.2479" style="stop-color:#CCB25C"></stop>
		<stop offset="0.5453" style="stop-color:#E9DA92"></stop>
		<stop offset="0.8055" style="stop-color:#D4B245"></stop>
		<stop offset="1" style="stop-color:#B17E29"></stop>
	</linearGradient>
	<path style="fill:url(#SVGID_15_);" d="M129.457,119.994C129.457,119.994,129.457,119.994,129.457,119.994
		C129.457,119.994,129.457,119.993,129.457,119.994c-0.106-0.649-0.2-1.286-0.281-1.936
		C129.257,118.707,129.351,119.344,129.457,119.994C129.457,119.994,129.457,119.994,129.457,119.994
		C129.457,119.994,129.457,119.994,129.457,119.994z"></path>
	<linearGradient id="SVGID_16_" gradientUnits="userSpaceOnUse" x1="129.1045" y1="127.0962" x2="130.5487" y2="127.0962">
		<stop offset="0" style="stop-color:#DDB533"></stop>
		<stop offset="0.2479" style="stop-color:#CCB25C"></stop>
		<stop offset="0.5453" style="stop-color:#E9DA92"></stop>
		<stop offset="0.8055" style="stop-color:#D4B245"></stop>
		<stop offset="1" style="stop-color:#B17E29"></stop>
	</linearGradient>
	<path style="fill:url(#SVGID_16_);" d="M129.105,126.184c0.469,0.609,0.95,1.217,1.444,1.826
		C130.055,127.401,129.573,126.792,129.105,126.184C129.105,126.183,129.105,126.184,129.105,126.184z"></path>
	<linearGradient id="SVGID_17_" gradientUnits="userSpaceOnUse" x1="155.2967" y1="106.935" x2="155.2977" y2="106.935">
		<stop offset="0" style="stop-color:#DDB533"></stop>
		<stop offset="0.2479" style="stop-color:#CCB25C"></stop>
		<stop offset="0.5453" style="stop-color:#E9DA92"></stop>
		<stop offset="0.8055" style="stop-color:#D4B245"></stop>
		<stop offset="1" style="stop-color:#B17E29"></stop>
	</linearGradient>
	<rect x="155.297" y="106.934" style="fill:url(#SVGID_17_);" width="0.001" height="0.001"></rect>
	<linearGradient id="SVGID_18_" gradientUnits="userSpaceOnUse" x1="136.2815" y1="107.1849" x2="139.437" y2="107.1849">
		<stop offset="0" style="stop-color:#DDB533"></stop>
		<stop offset="0.2479" style="stop-color:#CCB25C"></stop>
		<stop offset="0.5453" style="stop-color:#E9DA92"></stop>
		<stop offset="0.8055" style="stop-color:#D4B245"></stop>
		<stop offset="1" style="stop-color:#B17E29"></stop>
	</linearGradient>
	<path style="fill:url(#SVGID_18_);" d="M139.437,105.924C139.437,105.924,139.436,105.924,139.437,105.924
		c-0.001,0-0.001,0-0.001,0c-1.043,0.836-2.099,1.673-3.154,2.521C137.337,107.597,138.393,106.76,139.437,105.924
		C139.436,105.924,139.436,105.924,139.437,105.924z"></path>
	<linearGradient id="SVGID_19_" gradientUnits="userSpaceOnUse" x1="142.3533" y1="104.6311" x2="142.3543" y2="104.6311">
		<stop offset="0" style="stop-color:#DDB533"></stop>
		<stop offset="0.2479" style="stop-color:#CCB25C"></stop>
		<stop offset="0.5453" style="stop-color:#E9DA92"></stop>
		<stop offset="0.8055" style="stop-color:#D4B245"></stop>
		<stop offset="1" style="stop-color:#B17E29"></stop>
	</linearGradient>
	<rect x="142.353" y="104.631" style="fill:url(#SVGID_19_);" width="0.001" height="0.001"></rect>
	<linearGradient id="SVGID_20_" gradientUnits="userSpaceOnUse" x1="179.567" y1="74.0575" x2="179.5679" y2="74.0575">
		<stop offset="0" style="stop-color:#DDB533"></stop>
		<stop offset="0.2479" style="stop-color:#CCB25C"></stop>
		<stop offset="0.5453" style="stop-color:#E9DA92"></stop>
		<stop offset="0.8055" style="stop-color:#D4B245"></stop>
		<stop offset="1" style="stop-color:#B17E29"></stop>
	</linearGradient>
	<rect x="179.567" y="74.057" style="fill:url(#SVGID_20_);" width="0.001" height="0.001"></rect>
	<linearGradient id="SVGID_21_" gradientUnits="userSpaceOnUse" x1="143.6295" y1="105.5686" x2="143.9759" y2="105.5686">
		<stop offset="0" style="stop-color:#DDB533"></stop>
		<stop offset="0.2479" style="stop-color:#CCB25C"></stop>
		<stop offset="0.5453" style="stop-color:#E9DA92"></stop>
		<stop offset="0.8055" style="stop-color:#D4B245"></stop>
		<stop offset="1" style="stop-color:#B17E29"></stop>
	</linearGradient>
	<path style="fill:url(#SVGID_21_);" d="M143.976,105.316c0,0-0.001,0-0.001,0c-0.111,0.176-0.234,0.34-0.345,0.504
		C143.74,105.657,143.864,105.493,143.976,105.316C143.975,105.317,143.976,105.316,143.976,105.316z"></path>
	<linearGradient id="SVGID_22_" gradientUnits="userSpaceOnUse" x1="63.1093" y1="113.3701" x2="228.9693" y2="113.3701">
		<stop offset="0" style="stop-color:#DDB533"></stop>
		<stop offset="0.2479" style="stop-color:#CCB25C"></stop>
		<stop offset="0.5453" style="stop-color:#E9DA92"></stop>
		<stop offset="0.8055" style="stop-color:#D4B245"></stop>
		<stop offset="1" style="stop-color:#B17E29"></stop>
	</linearGradient>
	<path style="fill:url(#SVGID_22_);" d="M202.179,120.875c2.59-2.43,4.79-5.29,6.46-8.69c3.61,0.64,7.04,1.81,10.4,3.28
		c3.35,1.47,6.63,3.27,9.93,5.14c-3.81-8.87-9.02-19.43-16.67-27.41c-0.22-5.52-1.34-11.04-2.85-16.3
		c-1.53-5.25-3.47-10.24-5.34-14.68c-1.86,7.34-3.94,14.38-8.02,20.48c-3.06-0.98-6.13-1.41-9.14-1.41h-0.3
		c-0.44,0.01-0.88,0.02-1.31,0.05c0.11-3.54-0.35-7.13-1.57-10.71c3.01-2.1,6.26-3.71,9.68-5.04c3.42-1.33,6.99-2.38,10.64-3.37
		c-8.95-3.58-20.09-7.38-31.13-7.6c-8.14-7.5-18.82-12.5-27.73-16.12c3.91,6.52,7.37,12.97,8.77,20.16c-3.35,1.75-6.16,4-8.51,6.63
		c-2.42-2.58-5.27-4.78-8.65-6.45c0.63-3.61,1.79-7.04,3.25-10.4c1.47-3.35,3.25-6.63,5.14-9.94c-8.85,3.79-19.43,9-27.42,16.67
		c-5.52,0.22-11.05,1.33-16.31,2.85c-5.26,1.53-10.25,3.47-14.67,5.34c5.63,1.41,11.03,2.97,15.99,5.44
		c1.54,0.77,3.04,1.63,4.49,2.6c-0.97,3.05-1.4,6.1-1.4,9.11c0,0.54,0.01,1.07,0.04,1.61c-0.42-0.03-0.85-0.03-1.28-0.03
		c-3.13,0.03-6.26,0.52-9.42,1.58c-2.1-3-3.7-6.24-5.03-9.65c-1.33-3.41-2.39-6.99-3.39-10.66c-3.57,8.93-7.36,20.09-7.59,31.15
		c-3.75,4.06-6.88,8.77-9.52,13.57c-2.64,4.8-4.79,9.69-6.61,14.15c4.22-2.53,8.4-4.87,12.78-6.59c2.39-0.94,4.84-1.7,7.38-2.19
		h0.01c1.74,3.35,3.99,6.16,6.61,8.52c-2.57,2.42-4.77,5.27-6.44,8.66c-3.62-0.64-7.05-1.79-10.4-3.26
		c-3.36-1.47-6.64-3.25-9.94-5.14c3.01,7,6.89,15.07,12.17,22.1c1.4,1.86,2.89,3.64,4.5,5.31c0.22,5.53,1.33,11.05,2.86,16.31
		c1.52,5.26,3.46,10.24,5.33,14.68c1.85-7.38,3.95-14.39,8.02-20.48c3.07,0.97,6.12,1.4,9.15,1.4h0.31c0.42,0,0.85-0.02,1.27-0.05
		c-0.11,3.54,0.35,7.11,1.56,10.69c-3.01,2.1-6.25,3.71-9.66,5.04c-3.41,1.34-6.98,2.4-10.65,3.4c0,0.01,0,0.01,0,0.01
		c4.67,1.87,9.96,3.8,15.52,5.24c5.06,1.32,10.37,2.24,15.63,2.34c0.51,0.02,1.04,0.03,1.55,0.03c1.93-0.02,3.85-0.15,5.75-0.44
		c2.34-0.32,4.65-0.84,6.91-1.62c1.54-0.51,3.03-1.15,4.52-1.91c0.06-0.02,0.12-0.06,0.17-0.08c3.36-1.75,6.18-4.01,8.55-6.64
		c2.43,2.6,5.29,4.8,8.69,6.47c0.05,0.03,0.11,0.06,0.16,0.08c1.5,0.73,3.02,1.34,4.57,1.82c2.27,0.73,4.59,1.22,6.92,1.5
		c1.76,0.21,3.53,0.31,5.3,0.31h0.48c0.52-0.01,1.04-0.02,1.56-0.05c5.52-0.22,11.05-1.33,16.3-2.86
		c5.26-1.52,10.24-3.46,14.68-5.33c-7.34-1.86-14.38-3.94-20.48-8.02c0.97-3.05,1.4-6.1,1.4-9.11c0-0.55-0.01-1.1-0.04-1.64
		c0.44,0.02,0.87,0.03,1.31,0.02c3.11-0.03,6.26-0.52,9.4-1.59h0.02c2.09,3.01,3.7,6.27,5.03,9.68c1.32,3.41,2.38,6.99,3.38,10.64
		c3.57-8.94,7.36-20.09,7.58-31.13c7.5-8.13,12.5-18.79,16.13-27.73c-6.49,3.88-12.95,7.39-20.14,8.82
		C207.069,126.075,204.819,123.255,202.179,120.875z M212.029,100.505c2.24,2.86,4.25,5.96,6.05,9.16
		c-2.43-0.91-4.94-1.68-7.53-2.22C211.269,105.175,211.769,102.855,212.029,100.505z M73.769,111.085c1.73-3.22,3.68-6.36,5.87-9.26
		c0.32,2.34,0.86,4.65,1.63,6.92C78.659,109.325,76.169,110.125,73.769,111.085z M80.029,142.315c-2.24-2.86-4.25-5.96-6.05-9.16
		c2.43,0.91,4.93,1.68,7.55,2.19C80.799,137.635,80.309,139.965,80.029,142.315z M203.399,130.095c-0.35,0.01-0.7,0.02-1.05,0.02
		c-1.82,0.02-3.68-0.11-5.61-0.41c-2.11-0.32-4.18-0.77-6.21-1.34c2.71-1.2,5.29-2.61,7.68-4.27
		C200.229,125.805,201.999,127.785,203.399,130.095z M198.139,117.735c-2.41-1.63-5.01-2.98-7.74-4.12
		c2.02-0.62,4.07-1.12,6.17-1.47c1.92-0.34,3.79-0.49,5.6-0.51c0.35,0,0.7-0.01,1.05,0
		C201.859,113.965,200.119,115.985,198.139,117.735z M197.829,88.715c1.1-1.32,2.09-2.71,2.98-4.12c1.43-2.24,2.61-4.57,3.64-6.97
		c1.04,3.5,1.89,7.1,2.4,10.7c0.33,2.34,0.51,4.67,0.5,6.98v0.02c0,3.92-0.55,7.75-1.84,11.41c-1.12-0.08-2.25-0.12-3.39-0.11
		c-2.11,0.02-4.26,0.22-6.4,0.58c-4.23,0.73-8.48,1.98-12.83,3.82h-0.02c-2.63-0.77-5.29-1.38-7.94-1.9
		c-0.99,1.55-2.01,3.06-3.02,4.52c1.29,0.24,2.58,0.49,3.87,0.78c2.47,0.54,4.96,1.16,7.37,1.92h0.01c3.79,1.17,7.4,2.67,10.65,4.61
		c-3.2,2-6.79,3.56-10.55,4.81c-2.39,0.82-4.85,1.49-7.32,2.08h-0.01c-1.29,0.3-2.59,0.59-3.89,0.84c-1.84,0.38-3.68,0.71-5.45,1.01
		c-0.95,0.18-1.9,0.32-2.81,0.47v0.01c-0.84,0.14-1.67,0.27-2.47,0.39c0.01-0.16,0.04-0.34,0.06-0.51c0.7-0.54,1.4-1.08,2.11-1.6
		c0.46-0.36,0.94-0.7,1.41-1.04c1.34-0.99,2.7-1.96,4.08-2.9c0.16-0.12,0.33-0.23,0.49-0.34c1.53-1.05,3.1-2.06,4.68-3.03
		c-1.6-0.93-3.18-1.91-4.73-2.93c-0.17-0.11-0.34-0.21-0.51-0.33c-1.4-0.92-2.77-1.85-4.13-2.82c-0.48-0.33-0.96-0.68-1.44-1.01
		c-0.72-0.52-1.42-1.04-2.13-1.56c-0.03-0.17-0.05-0.35-0.07-0.52c0.8,0.1,1.62,0.22,2.46,0.34c0.93,0.14,1.87,0.28,2.83,0.42
		c1.8,0.27,3.63,0.58,5.48,0.91c1.01-1.46,2.04-2.97,3.03-4.52c1.46-2.28,2.87-4.64,4.16-7.07c4.33-1.87,8.18-4.06,11.62-6.6
		C193.509,93.405,195.849,91.125,197.829,88.715z M169.299,150.875v-0.01c-2.27-1.13-4.5-2.41-6.66-3.76
		c-1.14-0.69-2.26-1.42-3.35-2.16c0.28-1.76,0.54-3.46,0.77-5.13c0.07-0.51,0.14-1.01,0.21-1.52c0.13-0.86,0.25-1.71,0.37-2.55
		c0.83-0.14,1.68-0.27,2.55-0.42c0.5-0.08,1-0.16,1.51-0.24c1.66-0.26,3.37-0.55,5.11-0.88c0.75,1.08,1.49,2.18,2.21,3.3v0.02
		c1.37,2.14,2.69,4.33,3.86,6.57c1.84,3.51,3.35,7.14,4.27,10.81C176.479,154.085,172.849,152.655,169.299,150.875z
		 M181.029,160.185c0.23,2.64,0.08,5.31-0.55,7.94c-1.59-1.46-3.08-3.11-4.46-4.99c-1.27-1.71-2.42-3.51-3.44-5.36
		C175.349,158.845,178.169,159.685,181.029,160.185z M179.509,87.265c-0.85,3.7-2.3,7.36-4.06,10.91c-1.13,2.26-2.4,4.49-3.73,6.65
		h-0.02c-0.69,1.13-1.41,2.25-2.13,3.35h-0.01c-1.74-0.3-3.46-0.56-5.13-0.79c-0.51-0.07-1.02-0.14-1.52-0.21
		c-0.86-0.13-1.71-0.25-2.55-0.37c-0.14-0.83-0.27-1.67-0.42-2.55c-0.08-0.5-0.16-1-0.24-1.51c-0.26-1.66-0.56-3.37-0.87-5.11
		c1.08-0.76,2.18-1.5,3.3-2.22c0,0,0,0,0.01,0c2.13-1.4,4.34-2.71,6.58-3.89C172.229,89.675,175.849,88.165,179.509,87.265z
		 M171.879,84.535c0.99-1.86,2.1-3.66,3.32-5.4c1.34-1.92,2.8-3.6,4.37-5.08c0.52,2.05,0.77,4.11,0.77,6.17
		c0,0.58-0.02,1.16-0.06,1.74C177.429,82.515,174.629,83.405,171.879,84.535z M184.809,86.385c0.62-0.05,1.26-0.08,1.89-0.09
		c2.05-0.02,4.08,0.21,6.04,0.66c-1.45,1.59-3.11,3.08-5,4.48c-1.72,1.25-3.49,2.38-5.33,3.42
		C183.489,92.085,184.309,89.265,184.809,86.385z M165.619,55.015c-2.34,0.33-4.65,0.86-6.92,1.64c-0.57-2.61-1.39-5.11-2.35-7.51
		C159.569,50.875,162.719,52.825,165.619,55.015z M155.729,84.425c1.76-4.43,2.93-8.74,3.54-12.99c0.49-3.42,0.54-6.66,0.24-9.75
		h0.01c3.45-1.29,7.28-1.99,11.42-2.08l0.5-0.01c0.36,0,0.73,0.03,1.1,0.03c1.13,0.02,2.27,0.08,3.4,0.17
		c0.66,0.05,1.32,0.09,1.98,0.17c3.66,0.45,7.28,1.23,10.76,2.2c-2.37,1.07-4.69,2.3-6.9,3.77c-1.39,0.91-2.76,1.93-4.06,3.07
		c-2.38,2.01-4.61,4.4-6.61,7.24c-2.48,3.5-4.59,7.39-6.38,11.75v0.02c-2.4,1.32-4.72,2.77-6.97,4.28
		c-0.56-2.62-1.23-5.27-2.03-7.86V84.425z M154.649,64.075h0.01c0.02,0.49,0.03,0.99,0.03,1.49c0,1.66-0.12,3.38-0.37,5.14
		c-0.31,2.12-0.76,4.21-1.33,6.25c-1.2-2.73-2.62-5.32-4.28-7.72C150.399,67.225,152.379,65.475,154.649,64.075z M145.569,73.645
		c2.01,3.23,3.59,6.83,4.82,10.61c0.27,0.79,0.5,1.6,0.74,2.4c0.22,0.72,0.43,1.44,0.62,2.16c0.25,0.92,0.49,1.84,0.71,2.77
		c0.3,1.28,0.57,2.55,0.84,3.82h-0.01c0.37,1.84,0.72,3.68,1.01,5.47c0.17,0.95,0.33,1.87,0.48,2.8c0.13,0.83,0.26,1.66,0.4,2.47
		c-0.18-0.02-0.35-0.05-0.53-0.07c-0.54-0.69-1.08-1.39-1.6-2.1c-0.35-0.46-0.69-0.93-1.05-1.39c-0.98-1.36-1.95-2.71-2.89-4.09
		c-0.12-0.15-0.22-0.3-0.32-0.46c-1.04-1.53-2.06-3.09-3.03-4.67c-0.93,1.6-1.92,3.18-2.93,4.73c-0.1,0.16-0.21,0.31-0.32,0.47
		c-0.92,1.4-1.85,2.78-2.8,4.14c-0.35,0.48-0.7,0.94-1.03,1.42c-0.52,0.71-1.02,1.42-1.54,2.12h-0.02
		c-0.18,0.03-0.36,0.06-0.53,0.07c0.1-0.79,0.22-1.6,0.34-2.43c0.14-0.94,0.28-1.9,0.42-2.86c0.27-1.78,0.57-3.61,0.91-5.46
		c0.24-1.28,0.49-2.56,0.76-3.85c0.54-2.48,1.17-4.95,1.92-7.38C142.119,80.545,143.609,76.915,145.569,73.645z M136.299,64.265
		c2.31,1.35,4.31,3.07,6.05,5.05c-1.63,2.42-2.98,5.05-4.13,7.79c-0.61-2.04-1.11-4.11-1.45-6.22
		C136.389,68.595,136.249,66.395,136.299,64.265z M134.319,49.355c-0.92,2.43-1.68,4.95-2.22,7.57c-2.27-0.74-4.6-1.23-6.95-1.51
		C128.009,53.165,131.119,51.155,134.319,49.355z M102.219,63.015c3.47-1.03,7.08-1.9,10.73-2.41c2.15-0.28,4.32-0.47,6.47-0.49h0.5
		c4.15,0.01,8,0.62,11.46,1.84c-0.07,0.99-0.11,2-0.11,3.02c0,2.16,0.17,4.4,0.55,6.72c0.7,4.26,1.95,8.54,3.79,12.94
		c0,0,0,0,0,0.01c-0.74,2.61-1.35,5.25-1.87,7.89c0,0,0,0-0.01,0c-2.25-1.46-4.59-2.86-7-4.14c-1.89-4.38-4.11-8.24-6.68-11.68
		c-2.07-2.77-4.32-5.09-6.72-7.05c-1.34-1.11-2.71-2.11-4.12-3C106.949,65.235,104.609,64.045,102.219,63.015z M112.559,155.575
		c0.86-3.71,2.31-7.39,4.1-10.97c1.13-2.26,2.39-4.48,3.72-6.63c0.69-1.12,1.41-2.22,2.12-3.3c1.76,0.28,3.49,0.54,5.16,0.77
		c0.48,0.07,0.95,0.15,1.42,0.2c0.89,0.13,1.77,0.26,2.63,0.38c0.13,0.85,0.27,1.72,0.42,2.62c0.07,0.47,0.15,0.95,0.23,1.43
		c0.26,1.66,0.56,3.39,0.87,5.12c-1.07,0.75-2.15,1.49-3.24,2.19c-2.16,1.4-4.36,2.72-6.6,3.91
		C119.859,153.155,116.239,154.665,112.559,155.575z M120.199,158.295c-0.99,1.86-2.1,3.68-3.35,5.41
		c-1.36,1.89-2.82,3.55-4.36,5.02c-0.52-2.04-0.75-4.09-0.75-6.15c0-0.57,0.02-1.14,0.05-1.71
		C114.649,160.315,117.459,159.425,120.199,158.295z M122.699,124.625c0.15,0.1,0.32,0.2,0.47,0.31c1.4,0.92,2.77,1.87,4.15,2.82
		c0.48,0.34,0.94,0.69,1.42,1.02c0.71,0.52,1.41,1.03,2.12,1.56c0.03,0.18,0.05,0.35,0.08,0.52c-0.8-0.11-1.62-0.22-2.44-0.33v-0.02
		c-0.93-0.13-1.88-0.27-2.85-0.41c-1.79-0.27-3.64-0.58-5.48-0.91c-1.28-0.24-2.56-0.49-3.84-0.76c-2.47-0.53-4.96-1.16-7.37-1.91
		h-0.01c-3.8-1.18-7.44-2.67-10.7-4.63c3.22-2.02,6.84-3.58,10.61-4.83c2.41-0.82,4.88-1.49,7.35-2.07c1.28-0.3,2.55-0.57,3.83-0.82
		c1.83-0.38,3.66-0.71,5.45-1.01c0.96-0.17,1.91-0.33,2.83-0.47v-0.02c0.83-0.13,1.64-0.25,2.44-0.38
		c-0.02,0.17-0.05,0.35-0.07,0.52v0.02c-0.7,0.53-1.39,1.05-2.09,1.58c-0.47,0.34-0.93,0.7-1.4,1.04c-1.35,0.99-2.7,1.97-4.08,2.91
		c-0.16,0.11-0.31,0.21-0.47,0.32c-1.53,1.05-3.08,2.05-4.66,3.02C119.589,122.635,121.149,123.605,122.699,124.625z
		 M131.999,103.045c-0.07,0.47-0.14,0.95-0.2,1.43c-0.13,0.89-0.26,1.76-0.38,2.62c-0.86,0.14-1.75,0.28-2.65,0.42
		c-0.45,0.08-0.92,0.15-1.38,0.23c-1.68,0.28-3.39,0.56-5.14,0.88c-0.74-1.06-1.46-2.14-2.18-3.25h0.01
		c-1.39-2.13-2.7-4.33-3.87-6.57h-0.01c-1.86-3.54-3.37-7.2-4.3-10.89c3.69,0.84,7.35,2.28,10.91,4.07
		c2.27,1.15,4.48,2.41,6.66,3.77c1.12,0.69,2.23,1.4,3.32,2.12C132.489,99.635,132.229,101.365,131.999,103.045z M111.029,82.635
		c-0.22-2.63-0.07-5.26,0.55-7.87c1.56,1.44,3.06,3.08,4.45,4.94c1.28,1.72,2.44,3.51,3.47,5.35
		C116.719,83.975,113.899,83.135,111.029,82.635z M104.719,87.095c0.62-0.01,1.24,0.01,1.86,0.04c0.54,2.88,1.44,5.7,2.57,8.45
		c-1.86-0.99-3.68-2.1-5.4-3.35c-1.89-1.36-3.56-2.81-5.03-4.36C100.669,87.375,102.669,87.115,104.719,87.095z M86.299,107.935
		c-1.37-3.65-2.01-7.48-2.08-11.41c-0.06-2.31,0.08-4.64,0.36-6.98c0.44-3.61,1.22-7.25,2.21-10.79c1.06,2.35,2.31,4.67,3.78,6.9
		c0.92,1.39,1.92,2.75,3.07,4.07v0.01c2,2.35,4.37,4.56,7.18,6.57c3.5,2.51,7.42,4.66,11.82,6.46c1.32,2.38,2.77,4.68,4.26,6.92
		c-2.62,0.58-5.26,1.23-7.86,2.03c-4.43-1.76-8.74-2.92-12.99-3.54c-2.11-0.31-4.22-0.45-6.3-0.43
		C88.569,107.755,87.419,107.815,86.299,107.935z M88.679,112.795c0.37-0.03,0.74-0.04,1.12-0.04c1.79-0.02,3.63,0.1,5.53,0.38
		c2.11,0.31,4.19,0.76,6.24,1.33c-2.72,1.19-5.32,2.61-7.71,4.29C91.859,117.055,90.099,115.085,88.679,112.795z M93.909,125.115
		c2.43,1.62,5.05,2.99,7.8,4.13c-2.03,0.6-4.1,1.1-6.2,1.45c-1.9,0.3-3.74,0.46-5.53,0.48c-0.38,0-0.75,0-1.12-0.02
		C90.219,128.855,91.939,126.845,93.909,125.115z M94.259,154.125c-1.1,1.34-2.09,2.72-2.98,4.13c-1.43,2.25-2.62,4.59-3.65,6.98
		c-1.05-3.53-1.91-7.14-2.42-10.74c-0.32-2.34-0.51-4.67-0.49-6.97v-0.01c-0.01-3.94,0.56-7.78,1.85-11.45
		c1.13,0.09,2.28,0.12,3.46,0.11c2.07-0.02,4.19-0.2,6.29-0.55c4.25-0.7,8.53-1.94,12.92-3.79h0.01c2.61,0.75,5.25,1.36,7.88,1.88
		c-1.44,2.25-2.84,4.59-4.12,7.01c-4.37,1.88-8.24,4.1-11.69,6.67C98.539,149.475,96.219,151.735,94.259,154.125z M107.249,156.455
		c-0.61,0.05-1.24,0.08-1.85,0.08c-2.05,0.02-4.07-0.2-6.03-0.65c1.44-1.58,3.08-3.08,4.95-4.47c1.72-1.28,3.5-2.44,5.35-3.46
		C108.599,150.735,107.749,153.575,107.249,156.455z M136.349,158.455v0.01c-1.74,4.39-2.92,8.67-3.56,12.91
		c-0.52,3.42-0.58,6.69-0.27,9.79c-3.44,1.27-7.27,1.97-11.4,2.06l-0.5,0.01c-2.16,0.02-4.32-0.12-6.49-0.38h-0.01
		c-3.65-0.44-7.27-1.23-10.75-2.2c2.35-1.06,4.67-2.3,6.9-3.77c1.39-0.93,2.76-1.94,4.07-3.08c2.36-2,4.57-4.38,6.58-7.18
		c2.51-3.49,4.65-7.4,6.46-11.8c2.38-1.34,4.69-2.79,6.92-4.29c0.58,2.65,1.24,5.29,2.06,7.92H136.349z M137.369,178.785
		c-0.09-2.14,0.02-4.35,0.37-6.66c0.32-2.11,0.77-4.17,1.35-6.2h0.01c1.19,2.71,2.59,5.28,4.26,7.66
		C141.659,175.605,139.669,177.375,137.369,178.785z M146.499,169.195c-2.01-3.21-3.57-6.79-4.82-10.56v-0.01
		c-0.8-2.4-1.48-4.86-2.06-7.33c-0.32-1.3-0.59-2.58-0.85-3.87c-0.39-1.85-0.72-3.68-1.02-5.46c-0.16-0.95-0.32-1.9-0.48-2.83
		c-0.13-0.82-0.27-1.64-0.39-2.44c0.18,0.01,0.35,0.04,0.53,0.06c0.53,0.7,1.06,1.39,1.6,2.1c0.34,0.46,0.69,0.93,1.04,1.41
		c0.97,1.34,1.95,2.69,2.89,4.08c0.12,0.17,0.23,0.33,0.34,0.51c1.06,1.52,2.06,3.09,3.03,4.67c0.94-1.6,1.91-3.18,2.93-4.73
		c0.11-0.17,0.21-0.34,0.32-0.51c0.93-1.4,1.87-2.77,2.83-4.13c0.33-0.48,0.67-0.96,1.01-1.43c0.51-0.71,1.04-1.43,1.56-2.14
		c0.18-0.03,0.34-0.04,0.51-0.07c-0.11,0.81-0.23,1.63-0.35,2.47c-0.13,0.93-0.27,1.86-0.41,2.81c-0.27,1.79-0.57,3.63-0.91,5.48
		c-0.24,1.29-0.49,2.6-0.78,3.9c-0.52,2.49-1.15,4.96-1.92,7.37c0,0,0,0,0.01,0C149.939,162.325,148.449,165.945,146.499,169.195z
		 M149.719,173.535c1.62-2.42,2.97-5.04,4.12-7.76c0.61,2.02,1.11,4.08,1.46,6.18c0.4,2.3,0.55,4.51,0.51,6.65
		C153.489,177.245,151.469,175.525,149.719,173.535z M154.589,131.585c-0.88,0.74-1.86,1.36-2.91,1.85
		c-0.29,0.14-0.59,0.26-0.89,0.38c-1.06,0.4-2.19,0.69-3.37,0.81c-0.41,0.05-0.83,0.07-1.25,0.08c-0.44,0-0.87-0.02-1.29-0.05
		c-1.17-0.1-2.29-0.37-3.36-0.75c-0.31-0.12-0.62-0.24-0.92-0.37c-1.05-0.48-2.04-1.07-2.92-1.79c-0.67-0.54-1.28-1.14-1.83-1.79
		c-0.72-0.87-1.33-1.83-1.82-2.86c-0.14-0.31-0.28-0.63-0.4-0.95c-0.4-1.06-0.68-2.17-0.8-3.34c-0.05-0.41-0.07-0.83-0.08-1.26
		c0-0.43,0.02-0.85,0.05-1.27c0.1-1.16,0.36-2.27,0.74-3.33c0.12-0.32,0.24-0.65,0.39-0.96c0.46-1.05,1.05-2.02,1.76-2.9
		c0.54-0.67,1.14-1.28,1.79-1.83c0.87-0.73,1.84-1.34,2.88-1.83c0.31-0.15,0.63-0.29,0.96-0.41c1.05-0.4,2.16-0.68,3.31-0.8
		c0.42-0.05,0.85-0.08,1.28-0.08c0.42-0.01,0.83,0.02,1.25,0.05c1.16,0.1,2.28,0.36,3.35,0.74c0.32,0.11,0.63,0.24,0.94,0.37
		c1.07,0.48,2.06,1.08,2.95,1.81c0.65,0.52,1.25,1.11,1.79,1.75c0.75,0.88,1.36,1.86,1.86,2.92c0.14,0.29,0.26,0.59,0.38,0.9
		c0.41,1.06,0.69,2.17,0.81,3.34c0.05,0.42,0.08,0.84,0.08,1.27s-0.02,0.85-0.05,1.26c-0.1,1.17-0.36,2.29-0.74,3.35
		c-0.11,0.32-0.24,0.63-0.37,0.94c-0.48,1.06-1.08,2.05-1.8,2.95C155.829,130.435,155.239,131.035,154.589,131.585z
		 M189.829,179.825c-3.46,1.04-7.07,1.89-10.71,2.4c-0.66,0.09-1.32,0.17-1.97,0.23c-0.67,0.07-1.33,0.13-1.99,0.17
		c-0.84,0.05-1.68,0.09-2.52,0.1l-0.5,0.01c-4.13-0.01-7.97-0.64-11.44-1.85c0.08-1.01,0.12-2.03,0.12-3.07
		c0-2.17-0.18-4.4-0.58-6.71c-0.73-4.23-1.98-8.48-3.8-12.83v-0.01c0.75-2.63,1.37-5.3,1.88-7.96c2.29,1.46,4.63,2.87,7.06,4.16
		c1.87,4.33,4.07,8.19,6.61,11.64c2.05,2.8,4.33,5.14,6.74,7.11c1.33,1.11,2.71,2.09,4.12,2.98
		C185.099,177.625,187.439,178.805,189.829,179.825z M187.369,155.735c-0.62,0.01-1.26-0.01-1.89-0.05
		c-0.55-2.85-1.44-5.66-2.57-8.4c1.86,0.98,3.66,2.09,5.4,3.31c1.92,1.35,3.61,2.82,5.09,4.37
		C191.449,155.445,189.429,155.715,187.369,155.735z M207.479,153.315c-0.44,3.61-1.22,7.22-2.19,10.75
		c-1.08-2.37-2.3-4.68-3.78-6.9c-0.91-1.39-1.93-2.76-3.05-4.06c-2.03-2.37-4.42-4.6-7.26-6.61c-3.5-2.47-7.39-4.58-11.75-6.38
		c-1.34-2.4-2.79-4.73-4.3-6.97c2.63-0.58,5.29-1.24,7.92-2.04c4.39,1.73,8.66,2.91,12.91,3.55c2.15,0.33,4.3,0.49,6.42,0.47
		c1.14-0.01,2.26-0.07,3.38-0.17h0.01c1.35,3.63,1.98,7.46,2.05,11.37c0.01,0.36,0.01,0.71,0.01,1.07
		C207.849,149.365,207.719,151.335,207.479,153.315z M218.289,131.765c-1.73,3.22-3.67,6.37-5.87,9.27
		c-0.31-2.34-0.84-4.65-1.62-6.9C213.389,133.555,215.879,132.735,218.289,131.765z"></path>
	<linearGradient id="SVGID_23_" gradientUnits="userSpaceOnUse" x1="143.2125" y1="105.6161" x2="143.6295" y2="105.6161">
		<stop offset="0" style="stop-color:#DDB533"></stop>
		<stop offset="0.2479" style="stop-color:#CCB25C"></stop>
		<stop offset="0.5453" style="stop-color:#E9DA92"></stop>
		<stop offset="0.8055" style="stop-color:#D4B245"></stop>
		<stop offset="1" style="stop-color:#B17E29"></stop>
	</linearGradient>
	<polygon style="fill:url(#SVGID_23_);" points="143.212,105.412 143.63,105.821 143.213,105.412 143.213,105.412 	"></polygon>
	<linearGradient id="SVGID_24_" gradientUnits="userSpaceOnUse" x1="157.4902" y1="110.5008" x2="158.6954" y2="110.5008">
		<stop offset="0" style="stop-color:#DDB533"></stop>
		<stop offset="0.2479" style="stop-color:#CCB25C"></stop>
		<stop offset="0.5453" style="stop-color:#E9DA92"></stop>
		<stop offset="0.8055" style="stop-color:#D4B245"></stop>
		<stop offset="1" style="stop-color:#B17E29"></stop>
	</linearGradient>
	<path style="fill:url(#SVGID_24_);" d="M158.695,111.271C158.695,111.271,158.695,111.271,158.695,111.271
		C158.695,111.271,158.695,111.271,158.695,111.271c-0.406-0.51-0.812-1.032-1.204-1.541
		C157.883,110.239,158.289,110.761,158.695,111.271z"></path>
	<linearGradient id="SVGID_25_" gradientUnits="userSpaceOnUse" x1="136.2349" y1="108.634" x2="136.2815" y2="108.634">
		<stop offset="0" style="stop-color:#DDB533"></stop>
		<stop offset="0.2479" style="stop-color:#CCB25C"></stop>
		<stop offset="0.5453" style="stop-color:#E9DA92"></stop>
		<stop offset="0.8055" style="stop-color:#D4B245"></stop>
		<stop offset="1" style="stop-color:#B17E29"></stop>
	</linearGradient>
	<path style="fill:url(#SVGID_25_);" d="M136.281,108.446C136.281,108.446,136.281,108.446,136.281,108.446
		c-0.011,0.126-0.035,0.252-0.047,0.377C136.246,108.697,136.27,108.572,136.281,108.446
		C136.281,108.446,136.281,108.446,136.281,108.446z"></path>
	<linearGradient id="SVGID_26_" gradientUnits="userSpaceOnUse" x1="158.777" y1="110.7068" x2="158.7774" y2="110.7068">
		<stop offset="0" style="stop-color:#DDB533"></stop>
		<stop offset="0.2479" style="stop-color:#CCB25C"></stop>
		<stop offset="0.5453" style="stop-color:#E9DA92"></stop>
		<stop offset="0.8055" style="stop-color:#D4B245"></stop>
		<stop offset="1" style="stop-color:#B17E29"></stop>
	</linearGradient>
	<polygon style="fill:url(#SVGID_26_);" points="158.777,110.706 158.777,110.707 158.777,110.707 	"></polygon>
	<linearGradient id="SVGID_27_" gradientUnits="userSpaceOnUse" x1="159.2242" y1="130.8508" x2="159.8372" y2="130.8508">
		<stop offset="0" style="stop-color:#DDB533"></stop>
		<stop offset="0.2479" style="stop-color:#CCB25C"></stop>
		<stop offset="0.5453" style="stop-color:#E9DA92"></stop>
		<stop offset="0.8055" style="stop-color:#D4B245"></stop>
		<stop offset="1" style="stop-color:#B17E29"></stop>
	</linearGradient>
	<path style="fill:url(#SVGID_27_);" d="M159.224,130.898L159.224,130.898c0.2-0.027,0.413-0.067,0.613-0.094
		C159.637,130.831,159.425,130.87,159.224,130.898z"></path>
	<linearGradient id="SVGID_28_" gradientUnits="userSpaceOnUse" x1="166.4802" y1="85.7948" x2="171.8824" y2="85.7948">
		<stop offset="0" style="stop-color:#DDB533"></stop>
		<stop offset="0.2479" style="stop-color:#CCB25C"></stop>
		<stop offset="0.5453" style="stop-color:#E9DA92"></stop>
		<stop offset="0.8055" style="stop-color:#D4B245"></stop>
		<stop offset="1" style="stop-color:#B17E29"></stop>
	</linearGradient>
	<path style="fill:url(#SVGID_28_);" d="M166.48,87.054c1.764-0.923,3.568-1.776,5.402-2.517c0,0,0,0,0,0l0,0c0,0-0.001,0-0.001,0
		C170.048,85.277,168.245,86.13,166.48,87.054z"></path>
	<linearGradient id="SVGID_29_" gradientUnits="userSpaceOnUse" x1="156.534" y1="98.4412" x2="158.8255" y2="98.4412">
		<stop offset="0" style="stop-color:#DDB533"></stop>
		<stop offset="0.2479" style="stop-color:#CCB25C"></stop>
		<stop offset="0.5453" style="stop-color:#E9DA92"></stop>
		<stop offset="0.8055" style="stop-color:#D4B245"></stop>
		<stop offset="1" style="stop-color:#B17E29"></stop>
	</linearGradient>
	<path style="fill:url(#SVGID_29_);" d="M156.534,99.248c0.755-0.541,1.52-1.08,2.291-1.614c0,0,0,0,0.001,0
		c0,0-0.001,0.001-0.001,0.001C158.054,98.168,157.289,98.707,156.534,99.248z"></path>
	<linearGradient id="SVGID_30_" gradientUnits="userSpaceOnUse" x1="160.5359" y1="130.6846" x2="160.536" y2="130.6846">
		<stop offset="0" style="stop-color:#DDB533"></stop>
		<stop offset="0.2479" style="stop-color:#CCB25C"></stop>
		<stop offset="0.5453" style="stop-color:#E9DA92"></stop>
		<stop offset="0.8055" style="stop-color:#D4B245"></stop>
		<stop offset="1" style="stop-color:#B17E29"></stop>
	</linearGradient>
	<polygon style="fill:url(#SVGID_30_);" points="160.536,130.685 160.536,130.685 160.536,130.685 	"></polygon>
	<linearGradient id="SVGID_31_" gradientUnits="userSpaceOnUse" x1="154.0007" y1="60.6697" x2="154.5732" y2="60.6697">
		<stop offset="0" style="stop-color:#DDB533"></stop>
		<stop offset="0.2479" style="stop-color:#CCB25C"></stop>
		<stop offset="0.5453" style="stop-color:#E9DA92"></stop>
		<stop offset="0.8055" style="stop-color:#D4B245"></stop>
		<stop offset="1" style="stop-color:#B17E29"></stop>
	</linearGradient>
	<path style="fill:url(#SVGID_31_);" d="M154.001,58.656C154.001,58.656,154.001,58.656,154.001,58.656
		C154.001,58.656,154.001,58.656,154.001,58.656c0.266,1.312,0.462,2.653,0.572,4.028C154.463,61.309,154.267,59.968,154.001,58.656
		z"></path>
	<linearGradient id="SVGID_32_" gradientUnits="userSpaceOnUse" x1="162.627" y1="123.8139" x2="162.896" y2="123.8139">
		<stop offset="0" style="stop-color:#DDB533"></stop>
		<stop offset="0.2479" style="stop-color:#CCB25C"></stop>
		<stop offset="0.5453" style="stop-color:#E9DA92"></stop>
		<stop offset="0.8055" style="stop-color:#D4B245"></stop>
		<stop offset="1" style="stop-color:#B17E29"></stop>
	</linearGradient>
	<path style="fill:url(#SVGID_32_);" d="M162.627,122.863C162.627,122.864,162.627,122.864,162.627,122.863
		c0.081,0.626,0.175,1.263,0.269,1.901C162.802,124.127,162.708,123.489,162.627,122.863
		C162.627,122.864,162.627,122.864,162.627,122.863z"></path>
	<linearGradient id="SVGID_33_" gradientUnits="userSpaceOnUse" x1="79.7272" y1="148.7231" x2="79.7771" y2="148.7231">
		<stop offset="0" style="stop-color:#DDB533"></stop>
		<stop offset="0.2479" style="stop-color:#CCB25C"></stop>
		<stop offset="0.5453" style="stop-color:#E9DA92"></stop>
		<stop offset="0.8055" style="stop-color:#D4B245"></stop>
		<stop offset="1" style="stop-color:#B17E29"></stop>
	</linearGradient>
	<path style="fill:url(#SVGID_33_);" d="M79.727,147.808c0.005,0.61,0.022,1.22,0.05,1.83c0,0,0,0,0,0.001c0,0,0-0.001,0-0.001
		C79.749,149.028,79.732,148.418,79.727,147.808z"></path>
	<linearGradient id="SVGID_34_" gradientUnits="userSpaceOnUse" x1="95.9925" y1="160.1474" x2="95.9929" y2="160.1474">
		<stop offset="0" style="stop-color:#DDB533"></stop>
		<stop offset="0.2479" style="stop-color:#CCB25C"></stop>
		<stop offset="0.5453" style="stop-color:#E9DA92"></stop>
		<stop offset="0.8055" style="stop-color:#D4B245"></stop>
		<stop offset="1" style="stop-color:#B17E29"></stop>
	</linearGradient>
	<polygon style="fill:url(#SVGID_34_);" points="95.993,160.147 95.993,160.148 95.993,160.147 	"></polygon>
	<linearGradient id="SVGID_35_" gradientUnits="userSpaceOnUse" x1="161.6617" y1="119.1591" x2="162.1295" y2="119.1591">
		<stop offset="0" style="stop-color:#DDB533"></stop>
		<stop offset="0.2479" style="stop-color:#CCB25C"></stop>
		<stop offset="0.5453" style="stop-color:#E9DA92"></stop>
		<stop offset="0.8055" style="stop-color:#D4B245"></stop>
		<stop offset="1" style="stop-color:#B17E29"></stop>
	</linearGradient>
	<path style="fill:url(#SVGID_35_);" d="M161.662,118.992c0.152,0.124,0.303,0.235,0.467,0.334c0,0,0.001,0,0.001,0.001
		c0,0-0.001-0.001-0.001-0.001C161.965,119.227,161.813,119.116,161.662,118.992z"></path>
	<linearGradient id="SVGID_36_" gradientUnits="userSpaceOnUse" x1="162.5954" y1="119.6467" x2="162.5958" y2="119.6467">
		<stop offset="0" style="stop-color:#DDB533"></stop>
		<stop offset="0.2479" style="stop-color:#CCB25C"></stop>
		<stop offset="0.5453" style="stop-color:#E9DA92"></stop>
		<stop offset="0.8055" style="stop-color:#D4B245"></stop>
		<stop offset="1" style="stop-color:#B17E29"></stop>
	</linearGradient>
	<polygon style="fill:url(#SVGID_36_);" points="162.596,119.647 162.596,119.646 162.595,119.647 	"></polygon>
	<linearGradient id="SVGID_37_" gradientUnits="userSpaceOnUse" x1="95.2476" y1="83.6671" x2="95.2485" y2="83.6671">
		<stop offset="0" style="stop-color:#DDB533"></stop>
		<stop offset="0.2479" style="stop-color:#CCB25C"></stop>
		<stop offset="0.5453" style="stop-color:#E9DA92"></stop>
		<stop offset="0.8055" style="stop-color:#D4B245"></stop>
		<stop offset="1" style="stop-color:#B17E29"></stop>
	</linearGradient>
	<rect x="95.248" y="83.667" style="fill:url(#SVGID_37_);" width="0" height="0"></rect>
	<linearGradient id="SVGID_38_" gradientUnits="userSpaceOnUse" x1="101.714" y1="129.8264" x2="104.7506" y2="129.8264">
		<stop offset="0" style="stop-color:#DDB533"></stop>
		<stop offset="0.2479" style="stop-color:#CCB25C"></stop>
		<stop offset="0.5453" style="stop-color:#E9DA92"></stop>
		<stop offset="0.8055" style="stop-color:#D4B245"></stop>
		<stop offset="1" style="stop-color:#B17E29"></stop>
	</linearGradient>
	<path style="fill:url(#SVGID_38_);" d="M104.751,130.412c-1.026-0.365-2.042-0.749-3.036-1.171c0,0,0,0,0,0c0,0,0.001,0,0.001,0
		C102.709,129.662,103.725,130.047,104.751,130.412z"></path>
	<linearGradient id="SVGID_39_" gradientUnits="userSpaceOnUse" x1="109.1488" y1="95.5888" x2="109.1499" y2="95.5888">
		<stop offset="0" style="stop-color:#DDB533"></stop>
		<stop offset="0.2479" style="stop-color:#CCB25C"></stop>
		<stop offset="0.5453" style="stop-color:#E9DA92"></stop>
		<stop offset="0.8055" style="stop-color:#D4B245"></stop>
		<stop offset="1" style="stop-color:#B17E29"></stop>
	</linearGradient>
	<rect x="109.148" y="95.588" style="fill:url(#SVGID_39_);" width="0.001" height="0.001"></rect>
	<linearGradient id="SVGID_40_" gradientUnits="userSpaceOnUse" x1="132.0982" y1="57.3324" x2="134.3792" y2="57.3324">
		<stop offset="0" style="stop-color:#DDB533"></stop>
		<stop offset="0.2479" style="stop-color:#CCB25C"></stop>
		<stop offset="0.5453" style="stop-color:#E9DA92"></stop>
		<stop offset="0.8055" style="stop-color:#D4B245"></stop>
		<stop offset="1" style="stop-color:#B17E29"></stop>
	</linearGradient>
	<path style="fill:url(#SVGID_40_);" d="M134.379,57.737c-0.754-0.301-1.514-0.572-2.281-0.809c0,0,0,0,0,0c0,0,0.001,0,0.001,0
		C132.865,57.165,133.625,57.436,134.379,57.737z"></path>
	<linearGradient id="SVGID_41_" gradientUnits="userSpaceOnUse" x1="137.1227" y1="106.2471" x2="137.1237" y2="106.2471">
		<stop offset="0" style="stop-color:#DDB533"></stop>
		<stop offset="0.2479" style="stop-color:#CCB25C"></stop>
		<stop offset="0.5453" style="stop-color:#E9DA92"></stop>
		<stop offset="0.8055" style="stop-color:#D4B245"></stop>
		<stop offset="1" style="stop-color:#B17E29"></stop>
	</linearGradient>
	<polygon style="fill:url(#SVGID_41_);" points="137.123,106.247 137.124,106.247 137.123,106.247 	"></polygon>
</g>
</svg></g> <!----></g><g id="shapge_nLXe79taVb" transform="translate(126,262) rotate(0,0,0) scale(1,1)" filter="" style="cursor: move; opacity: 1;"><g><svg xmlns="http://www.w3.org/2000/svg" version="1.1" xmlns:xlink="http://www.w3.org/1999/xlink" overflow="hidden" style="top:0; left: 0" width="91" height="34" viewBox="0 0 91.785 34.104" preserveAspectRatio="none" data-parent="shapge_nLXe79taVb"><rect fill="rgba(0,0,0,0)" width="91" height="34"></rect> <rect opacity="0"></rect><g transform="translate(0 0)" data-width="91.785"><path fill="#DDB533" d="M8.35 0L2.90 0L2.90-21.26L8.24-21.26L8.24-21.26Q13.14-21.26 15.70-18.52L15.70-18.52L15.70-18.52Q18.27-15.78 18.27-10.70L18.27-10.70L18.27-10.70Q18.27-5.66 15.72-2.83L15.72-2.83L15.72-2.83Q13.17 0 8.35 0L8.35 0ZM5.60-19.08L5.60-2.20L8.00-2.20L8.00-2.20Q11.77-2.20 13.63-4.44L13.63-4.44L13.63-4.44Q15.49-6.67 15.49-10.70L15.49-10.70L15.49-10.70Q15.49-14.76 13.63-16.92L13.63-16.92L13.63-16.92Q11.77-19.08 8.00-19.08L8.00-19.08L5.60-19.08Z" transform="translate(0 25.52)"></path><path fill="#DDB533" d="M6.29 0.38L6.29 0.38L6.29 0.38Q4.32 0.38 3.00-0.80L3.00-0.80L3.00-0.80Q1.68-1.97 1.68-4.09L1.68-4.09L1.68-4.09Q1.68-6.67 4.03-8.05L4.03-8.05L4.03-8.05Q6.38-9.43 11.37-9.98L11.37-9.98L11.37-9.98Q11.37-10.99 11.09-11.90L11.09-11.90L11.09-11.90Q10.82-12.82 10.12-13.38L10.12-13.38L10.12-13.38Q9.43-13.95 8.12-13.95L8.12-13.95L8.12-13.95Q6.76-13.95 5.55-13.44L5.55-13.44L5.55-13.44Q4.35-12.93 3.39-12.27L3.39-12.27L2.35-14.09L2.35-14.09Q3.45-14.82 5.06-15.49L5.06-15.49L5.06-15.49Q6.67-16.15 8.55-16.15L8.55-16.15L8.55-16.15Q11.43-16.15 12.72-14.38L12.72-14.38L12.72-14.38Q14.01-12.62 14.01-9.69L14.01-9.69L14.01 0L11.83 0L11.60-1.89L11.51-1.89L11.51-1.89Q10.38-0.93 9.06-0.28L9.06-0.28L9.06-0.28Q7.74 0.38 6.29 0.38ZM7.05-1.74L7.05-1.74L7.05-1.74Q8.21-1.74 9.22-2.28L9.22-2.28L9.22-2.28Q10.24-2.81 11.37-3.83L11.37-3.83L11.37-8.24L11.37-8.24Q7.45-7.77 5.86-6.79L5.86-6.79L5.86-6.79Q4.26-5.80 4.26-4.26L4.26-4.26L4.26-4.26Q4.26-2.93 5.08-2.33L5.08-2.33L5.08-2.33Q5.89-1.74 7.05-1.74Z" transform="translate(19.923000000000002 25.52)"></path><path fill="#DDB533" d="M7.63 0.38L7.63 0.38L7.63 0.38Q5.10 0.38 4.12-1.06L4.12-1.06L4.12-1.06Q3.13-2.49 3.13-4.87L3.13-4.87L3.13-13.60L0.78-13.60L0.78-15.60L3.25-15.75L3.57-20.16L5.77-20.16L5.77-15.75L10.03-15.75L10.03-13.60L5.77-13.60L5.77-4.81L5.77-4.81Q5.77-3.36 6.31-2.57L6.31-2.57L6.31-2.57Q6.84-1.77 8.21-1.77L8.21-1.77L8.21-1.77Q8.61-1.77 9.11-1.90L9.11-1.90L9.11-1.90Q9.60-2.03 10.01-2.18L10.01-2.18L10.53-0.20L10.53-0.20Q9.86 0.03 9.11 0.20L9.11 0.20L9.11 0.20Q8.35 0.38 7.63 0.38Z" transform="translate(36.279 25.52)"></path><path fill="#DDB533" d="M6.29 0.38L6.29 0.38L6.29 0.38Q4.32 0.38 3.00-0.80L3.00-0.80L3.00-0.80Q1.68-1.97 1.68-4.09L1.68-4.09L1.68-4.09Q1.68-6.67 4.03-8.05L4.03-8.05L4.03-8.05Q6.38-9.43 11.37-9.98L11.37-9.98L11.37-9.98Q11.37-10.99 11.09-11.90L11.09-11.90L11.09-11.90Q10.82-12.82 10.12-13.38L10.12-13.38L10.12-13.38Q9.43-13.95 8.12-13.95L8.12-13.95L8.12-13.95Q6.76-13.95 5.55-13.44L5.55-13.44L5.55-13.44Q4.35-12.93 3.39-12.27L3.39-12.27L2.35-14.09L2.35-14.09Q3.45-14.82 5.06-15.49L5.06-15.49L5.06-15.49Q6.67-16.15 8.55-16.15L8.55-16.15L8.55-16.15Q11.43-16.15 12.72-14.38L12.72-14.38L12.72-14.38Q14.01-12.62 14.01-9.69L14.01-9.69L14.01 0L11.83 0L11.60-1.89L11.51-1.89L11.51-1.89Q10.38-0.93 9.06-0.28L9.06-0.28L9.06-0.28Q7.74 0.38 6.29 0.38ZM7.05-1.74L7.05-1.74L7.05-1.74Q8.21-1.74 9.22-2.28L9.22-2.28L9.22-2.28Q10.24-2.81 11.37-3.83L11.37-3.83L11.37-8.24L11.37-8.24Q7.45-7.77 5.86-6.79L5.86-6.79L5.86-6.79Q4.26-5.80 4.26-4.26L4.26-4.26L4.26-4.26Q4.26-2.93 5.08-2.33L5.08-2.33L5.08-2.33Q5.89-1.74 7.05-1.74Z" transform="translate(47.212 25.52)"></path><path fill="#DDB533" d="" transform="translate(63.568000000000005 25.52)"></path><path fill="#DDB533" d="M9.92 0L6.82 0L0.03-21.26L2.84-21.26L6.29-9.74L6.29-9.74Q6.76-8.24 7.13-6.84L7.13-6.84L7.13-6.84Q7.66-4.90 8.35-2.73L8.35-2.73L8.47-2.73L8.47-2.73Q9.11-4.79 9.63-6.67L9.63-6.67L9.63-6.67Q10.03-8.12 10.53-9.74L10.53-9.74L13.95-21.26L16.68-21.26L9.92 0Z" transform="translate(75.11 25.52)"></path></g></svg></g> <!----></g><g id="shapge_AAoOU69ATR" transform="translate(82,302) rotate(0,0,0) scale(1,1)" filter="" style="cursor: move; opacity: 1;"><g><svg xmlns="http://www.w3.org/2000/svg" version="1.1" xmlns:xlink="http://www.w3.org/1999/xlink" overflow="hidden" style="top:0; left: 0" width="179" height="24" viewBox="0 0 179.466 24.695999999999998" preserveAspectRatio="none" data-parent="shapge_AAoOU69ATR"><rect fill="rgba(0,0,0,0)" width="179" height="24"></rect> <rect opacity="0"></rect><g transform="translate(0 0)" data-width="179.466"><path fill="#CCB25C" d="M6.05 0L2.10 0L2.10-15.39L5.96-15.39L5.96-15.39Q9.51-15.39 11.37-13.41L11.37-13.41L11.37-13.41Q13.23-11.42 13.23-7.75L13.23-7.75L13.23-7.75Q13.23-4.10 11.38-2.05L11.38-2.05L11.38-2.05Q9.53 0 6.05 0L6.05 0ZM4.05-13.82L4.05-1.60L5.80-1.60L5.80-1.60Q8.53-1.60 9.87-3.21L9.87-3.21L9.87-3.21Q11.21-4.83 11.21-7.75L11.21-7.75L11.21-7.75Q11.21-10.69 9.87-12.25L9.87-12.25L9.87-12.25Q8.53-13.82 5.80-13.82L5.80-13.82L4.05-13.82Z" transform="translate(0 18.48)"></path><path fill="#CCB25C" d="M4.56 0.27L4.56 0.27L4.56 0.27Q3.13 0.27 2.17-0.58L2.17-0.58L2.17-0.58Q1.22-1.43 1.22-2.96L1.22-2.96L1.22-2.96Q1.22-4.83 2.92-5.83L2.92-5.83L2.92-5.83Q4.62-6.83 8.23-7.22L8.23-7.22L8.23-7.22Q8.23-7.96 8.03-8.62L8.03-8.62L8.03-8.62Q7.83-9.28 7.33-9.69L7.33-9.69L7.33-9.69Q6.83-10.10 5.88-10.10L5.88-10.10L5.88-10.10Q4.89-10.10 4.02-9.73L4.02-9.73L4.02-9.73Q3.15-9.37 2.46-8.88L2.46-8.88L1.70-10.21L1.70-10.21Q2.50-10.73 3.66-11.21L3.66-11.21L3.66-11.21Q4.83-11.70 6.20-11.70L6.20-11.70L6.20-11.70Q8.27-11.70 9.21-10.42L9.21-10.42L9.21-10.42Q10.14-9.13 10.14-7.01L10.14-7.01L10.14 0L8.57 0L8.40-1.36L8.34-1.36L8.34-1.36Q7.52-0.67 6.56-0.20L6.56-0.20L6.56-0.20Q5.61 0.27 4.56 0.27ZM5.10-1.26L5.10-1.26L5.10-1.26Q5.94-1.26 6.68-1.65L6.68-1.65L6.68-1.65Q7.41-2.04 8.23-2.77L8.23-2.77L8.23-5.96L8.23-5.96Q5.40-5.63 4.24-4.91L4.24-4.91L4.24-4.91Q3.09-4.20 3.09-3.09L3.09-3.09L3.09-3.09Q3.09-2.12 3.68-1.69L3.68-1.69L3.68-1.69Q4.26-1.26 5.10-1.26Z" transform="translate(14.427000000000001 18.48)"></path><path fill="#CCB25C" d="M5.52 0.27L5.52 0.27L5.52 0.27Q3.70 0.27 2.98-0.77L2.98-0.77L2.98-0.77Q2.27-1.81 2.27-3.53L2.27-3.53L2.27-9.85L0.57-9.85L0.57-11.30L2.35-11.40L2.58-14.60L4.18-14.60L4.18-11.40L7.27-11.40L7.27-9.85L4.18-9.85L4.18-3.49L4.18-3.49Q4.18-2.44 4.57-1.86L4.57-1.86L4.57-1.86Q4.96-1.28 5.94-1.28L5.94-1.28L5.94-1.28Q6.24-1.28 6.59-1.38L6.59-1.38L6.59-1.38Q6.95-1.47 7.25-1.58L7.25-1.58L7.62-0.15L7.62-0.15Q7.14 0.02 6.59 0.15L6.59 0.15L6.59 0.15Q6.05 0.27 5.52 0.27Z" transform="translate(26.271 18.48)"></path><path fill="#CCB25C" d="M4.56 0.27L4.56 0.27L4.56 0.27Q3.13 0.27 2.17-0.58L2.17-0.58L2.17-0.58Q1.22-1.43 1.22-2.96L1.22-2.96L1.22-2.96Q1.22-4.83 2.92-5.83L2.92-5.83L2.92-5.83Q4.62-6.83 8.23-7.22L8.23-7.22L8.23-7.22Q8.23-7.96 8.03-8.62L8.03-8.62L8.03-8.62Q7.83-9.28 7.33-9.69L7.33-9.69L7.33-9.69Q6.83-10.10 5.88-10.10L5.88-10.10L5.88-10.10Q4.89-10.10 4.02-9.73L4.02-9.73L4.02-9.73Q3.15-9.37 2.46-8.88L2.46-8.88L1.70-10.21L1.70-10.21Q2.50-10.73 3.66-11.21L3.66-11.21L3.66-11.21Q4.83-11.70 6.20-11.70L6.20-11.70L6.20-11.70Q8.27-11.70 9.21-10.42L9.21-10.42L9.21-10.42Q10.14-9.13 10.14-7.01L10.14-7.01L10.14 0L8.57 0L8.40-1.36L8.34-1.36L8.34-1.36Q7.52-0.67 6.56-0.20L6.56-0.20L6.56-0.20Q5.61 0.27 4.56 0.27ZM5.10-1.26L5.10-1.26L5.10-1.26Q5.94-1.26 6.68-1.65L6.68-1.65L6.68-1.65Q7.41-2.04 8.23-2.77L8.23-2.77L8.23-5.96L8.23-5.96Q5.40-5.63 4.24-4.91L4.24-4.91L4.24-4.91Q3.09-4.20 3.09-3.09L3.09-3.09L3.09-3.09Q3.09-2.12 3.68-1.69L3.68-1.69L3.68-1.69Q4.26-1.26 5.10-1.26Z" transform="translate(34.188 18.48)"></path><path fill="#CCB25C" d="" transform="translate(46.032000000000004 18.48)"></path><path fill="#CCB25C" d="M7.18 0L4.94 0L0.02-15.39L2.06-15.39L4.56-7.06L4.56-7.06Q4.89-5.96 5.17-4.96L5.17-4.96L5.17-4.96Q5.54-3.55 6.05-1.97L6.05-1.97L6.13-1.97L6.13-1.97Q6.59-3.47 6.97-4.83L6.97-4.83L6.97-4.83Q7.27-5.88 7.62-7.06L7.62-7.06L10.10-15.39L12.08-15.39L7.18 0Z" transform="translate(54.39 18.48)"></path><path fill="#CCB25C" d="M3.84 0L1.93 0L1.93-11.40L3.84-11.40L3.84 0ZM2.90-13.76L2.90-13.76L2.90-13.76Q2.33-13.76 1.95-14.11L1.95-14.11L1.95-14.11Q1.58-14.47 1.58-14.99L1.58-14.99L1.58-14.99Q1.58-16.17 2.90-16.23L2.90-16.23L2.90-16.23Q3.47-16.23 3.84-15.91L3.84-15.91L3.84-15.91Q4.22-15.58 4.22-14.99L4.22-14.99L4.22-14.99Q4.22-14.47 3.84-14.11L3.84-14.11L3.84-14.11Q3.47-13.76 2.90-13.76Z" transform="translate(66.465 18.48)"></path><path fill="#CCB25C" d="M4.91 0.27L4.91 0.27L4.91 0.27Q3.70 0.27 2.59-0.17L2.59-0.17L2.59-0.17Q1.49-0.61 0.65-1.30L0.65-1.30L1.60-2.56L1.60-2.56Q2.33-1.95 3.14-1.59L3.14-1.59L3.14-1.59Q3.95-1.22 4.98-1.22L4.98-1.22L4.98-1.22Q6.11-1.22 6.67-1.74L6.67-1.74L6.67-1.74Q7.22-2.27 7.22-3.00L7.22-3.00L7.22-3.00Q7.22-3.59 6.84-3.98L6.84-3.98L6.84-3.98Q6.45-4.37 5.86-4.65L5.86-4.65L5.86-4.65Q5.27-4.94 4.62-5.17L4.62-5.17L4.62-5.17Q3.80-5.46 3.02-5.86L3.02-5.86L3.02-5.86Q2.25-6.26 1.73-6.88L1.73-6.88L1.73-6.88Q1.22-7.50 1.22-8.46L1.22-8.46L1.22-8.46Q1.22-9.83 2.26-10.76L2.26-10.76L2.26-10.76Q3.30-11.70 5.15-11.70L5.15-11.70L5.15-11.70Q6.20-11.70 7.11-11.32L7.11-11.32L7.11-11.32Q8.02-10.94 8.69-10.42L8.69-10.42L7.77-9.18L7.77-9.18Q7.18-9.62 6.55-9.90L6.55-9.90L6.55-9.90Q5.92-10.19 5.15-10.19L5.15-10.19L5.15-10.19Q4.07-10.19 3.57-9.70L3.57-9.70L3.57-9.70Q3.07-9.22 3.07-8.55L3.07-8.55L3.07-8.55Q3.07-8.02 3.39-7.69L3.39-7.69L3.39-7.69Q3.72-7.35 4.24-7.11L4.24-7.11L4.24-7.11Q4.77-6.87 5.38-6.66L5.38-6.66L5.38-6.66Q5.48-6.62 5.59-6.57L5.59-6.57L5.59-6.57Q6.43-6.28 7.22-5.88L7.22-5.88L7.22-5.88Q8.02-5.48 8.55-4.84L8.55-4.84L8.55-4.84Q9.07-4.20 9.07-3.11L9.07-3.11L9.07-3.11Q9.07-1.72 8.00-0.72L8.00-0.72L8.00-0.72Q6.93 0.27 4.91 0.27Z" transform="translate(72.24000000000001 18.48)"></path><path fill="#CCB25C" d="M5.25 0.27L5.25 0.27L5.25 0.27Q3.47 0.27 2.63-0.87L2.63-0.87L2.63-0.87Q1.79-2.02 1.79-4.18L1.79-4.18L1.79-11.40L3.70-11.40L3.70-4.41L3.70-4.41Q3.70-2.81 4.20-2.10L4.20-2.10L4.20-2.10Q4.70-1.39 5.84-1.39L5.84-1.39L5.84-1.39Q6.72-1.39 7.42-1.85L7.42-1.85L7.42-1.85Q8.13-2.31 8.93-3.32L8.93-3.32L8.93-11.40L10.84-11.40L10.84 0L9.24 0L9.09-1.79L9.03-1.79L9.03-1.79Q8.23-0.84 7.33-0.28L7.33-0.28L7.33-0.28Q6.43 0.27 5.25 0.27Z" transform="translate(82.06800000000001 18.48)"></path><path fill="#CCB25C" d="M4.56 0.27L4.56 0.27L4.56 0.27Q3.13 0.27 2.17-0.58L2.17-0.58L2.17-0.58Q1.22-1.43 1.22-2.96L1.22-2.96L1.22-2.96Q1.22-4.83 2.92-5.83L2.92-5.83L2.92-5.83Q4.62-6.83 8.23-7.22L8.23-7.22L8.23-7.22Q8.23-7.96 8.03-8.62L8.03-8.62L8.03-8.62Q7.83-9.28 7.33-9.69L7.33-9.69L7.33-9.69Q6.83-10.10 5.88-10.10L5.88-10.10L5.88-10.10Q4.89-10.10 4.02-9.73L4.02-9.73L4.02-9.73Q3.15-9.37 2.46-8.88L2.46-8.88L1.70-10.21L1.70-10.21Q2.50-10.73 3.66-11.21L3.66-11.21L3.66-11.21Q4.83-11.70 6.20-11.70L6.20-11.70L6.20-11.70Q8.27-11.70 9.21-10.42L9.21-10.42L9.21-10.42Q10.14-9.13 10.14-7.01L10.14-7.01L10.14 0L8.57 0L8.40-1.36L8.34-1.36L8.34-1.36Q7.52-0.67 6.56-0.20L6.56-0.20L6.56-0.20Q5.61 0.27 4.56 0.27ZM5.10-1.26L5.10-1.26L5.10-1.26Q5.94-1.26 6.68-1.65L6.68-1.65L6.68-1.65Q7.41-2.04 8.23-2.77L8.23-2.77L8.23-5.96L8.23-5.96Q5.40-5.63 4.24-4.91L4.24-4.91L4.24-4.91Q3.09-4.20 3.09-3.09L3.09-3.09L3.09-3.09Q3.09-2.12 3.68-1.69L3.68-1.69L3.68-1.69Q4.26-1.26 5.10-1.26Z" transform="translate(94.81500000000001 18.48)"></path><path fill="#CCB25C" d="M3.95 0.27L3.95 0.27L3.95 0.27Q2.88 0.27 2.40-0.39L2.40-0.39L2.40-0.39Q1.93-1.05 1.93-2.27L1.93-2.27L1.93-16.72L3.84-16.72L3.84-2.14L3.84-2.14Q3.84-1.70 4.01-1.51L4.01-1.51L4.01-1.51Q4.18-1.32 4.39-1.32L4.39-1.32L4.39-1.32Q4.47-1.32 4.56-1.33L4.56-1.33L4.56-1.33Q4.64-1.34 4.79-1.36L4.79-1.36L5.06 0.11L5.06 0.11Q4.70 0.27 3.95 0.27Z" transform="translate(106.65900000000002 18.48)"></path><path fill="#CCB25C" d="M3.84 0L1.93 0L1.93-11.40L3.84-11.40L3.84 0ZM2.90-13.76L2.90-13.76L2.90-13.76Q2.33-13.76 1.95-14.11L1.95-14.11L1.95-14.11Q1.58-14.47 1.58-14.99L1.58-14.99L1.58-14.99Q1.58-16.17 2.90-16.23L2.90-16.23L2.90-16.23Q3.47-16.23 3.84-15.91L3.84-15.91L3.84-15.91Q4.22-15.58 4.22-14.99L4.22-14.99L4.22-14.99Q4.22-14.47 3.84-14.11L3.84-14.11L3.84-14.11Q3.47-13.76 2.90-13.76Z" transform="translate(112.64400000000002 18.48)"></path><path fill="#CCB25C" d="M9.37 0L0.74 0L0.74-1.03L6.74-9.85L1.39-9.85L1.39-11.40L9.16-11.40L9.16-10.37L3.15-1.55L9.37-1.55L9.37 0Z" transform="translate(118.41900000000003 18.48)"></path><path fill="#CCB25C" d="M4.56 0.27L4.56 0.27L4.56 0.27Q3.13 0.27 2.17-0.58L2.17-0.58L2.17-0.58Q1.22-1.43 1.22-2.96L1.22-2.96L1.22-2.96Q1.22-4.83 2.92-5.83L2.92-5.83L2.92-5.83Q4.62-6.83 8.23-7.22L8.23-7.22L8.23-7.22Q8.23-7.96 8.03-8.62L8.03-8.62L8.03-8.62Q7.83-9.28 7.33-9.69L7.33-9.69L7.33-9.69Q6.83-10.10 5.88-10.10L5.88-10.10L5.88-10.10Q4.89-10.10 4.02-9.73L4.02-9.73L4.02-9.73Q3.15-9.37 2.46-8.88L2.46-8.88L1.70-10.21L1.70-10.21Q2.50-10.73 3.66-11.21L3.66-11.21L3.66-11.21Q4.83-11.70 6.20-11.70L6.20-11.70L6.20-11.70Q8.27-11.70 9.21-10.42L9.21-10.42L9.21-10.42Q10.14-9.13 10.14-7.01L10.14-7.01L10.14 0L8.57 0L8.40-1.36L8.34-1.36L8.34-1.36Q7.52-0.67 6.56-0.20L6.56-0.20L6.56-0.20Q5.61 0.27 4.56 0.27ZM5.10-1.26L5.10-1.26L5.10-1.26Q5.94-1.26 6.68-1.65L6.68-1.65L6.68-1.65Q7.41-2.04 8.23-2.77L8.23-2.77L8.23-5.96L8.23-5.96Q5.40-5.63 4.24-4.91L4.24-4.91L4.24-4.91Q3.09-4.20 3.09-3.09L3.09-3.09L3.09-3.09Q3.09-2.12 3.68-1.69L3.68-1.69L3.68-1.69Q4.26-1.26 5.10-1.26Z" transform="translate(128.37300000000002 18.48)"></path><path fill="#CCB25C" d="M5.52 0.27L5.52 0.27L5.52 0.27Q3.70 0.27 2.98-0.77L2.98-0.77L2.98-0.77Q2.27-1.81 2.27-3.53L2.27-3.53L2.27-9.85L0.57-9.85L0.57-11.30L2.35-11.40L2.58-14.60L4.18-14.60L4.18-11.40L7.27-11.40L7.27-9.85L4.18-9.85L4.18-3.49L4.18-3.49Q4.18-2.44 4.57-1.86L4.57-1.86L4.57-1.86Q4.96-1.28 5.94-1.28L5.94-1.28L5.94-1.28Q6.24-1.28 6.59-1.38L6.59-1.38L6.59-1.38Q6.95-1.47 7.25-1.58L7.25-1.58L7.62-0.15L7.62-0.15Q7.14 0.02 6.59 0.15L6.59 0.15L6.59 0.15Q6.05 0.27 5.52 0.27Z" transform="translate(140.217 18.48)"></path><path fill="#CCB25C" d="M3.84 0L1.93 0L1.93-11.40L3.84-11.40L3.84 0ZM2.90-13.76L2.90-13.76L2.90-13.76Q2.33-13.76 1.95-14.11L1.95-14.11L1.95-14.11Q1.58-14.47 1.58-14.99L1.58-14.99L1.58-14.99Q1.58-16.17 2.90-16.23L2.90-16.23L2.90-16.23Q3.47-16.23 3.84-15.91L3.84-15.91L3.84-15.91Q4.22-15.58 4.22-14.99L4.22-14.99L4.22-14.99Q4.22-14.47 3.84-14.11L3.84-14.11L3.84-14.11Q3.47-13.76 2.90-13.76Z" transform="translate(148.13400000000001 18.48)"></path><path fill="#CCB25C" d="M6.36 0.27L6.36 0.27L6.36 0.27Q4.98 0.27 3.77-0.43L3.77-0.43L3.77-0.43Q2.56-1.13 1.82-2.47L1.82-2.47L1.82-2.47Q1.07-3.80 1.07-5.69L1.07-5.69L1.07-5.69Q1.07-7.60 1.82-8.94L1.82-8.94L1.82-8.94Q2.56-10.27 3.77-10.98L3.77-10.98L3.77-10.98Q4.98-11.70 6.36-11.70L6.36-11.70L6.36-11.70Q7.77-11.70 8.97-10.98L8.97-10.98L8.97-10.98Q10.16-10.27 10.91-8.94L10.91-8.94L10.91-8.94Q11.66-7.60 11.66-5.69L11.66-5.69L11.66-5.69Q11.66-3.80 10.91-2.47L10.91-2.47L10.91-2.47Q10.16-1.13 8.97-0.43L8.97-0.43L8.97-0.43Q7.77 0.27 6.36 0.27ZM6.36-1.32L6.36-1.32L6.36-1.32Q7.85-1.32 8.77-2.52L8.77-2.52L8.77-2.52Q9.68-3.72 9.68-5.69L9.68-5.69L9.68-5.69Q9.68-7.67 8.77-8.88L8.77-8.88L8.77-8.88Q7.85-10.10 6.36-10.10L6.36-10.10L6.36-10.10Q4.89-10.10 3.98-8.88L3.98-8.88L3.98-8.88Q3.07-7.67 3.07-5.69L3.07-5.69L3.07-5.69Q3.07-3.72 3.98-2.52L3.98-2.52L3.98-2.52Q4.89-1.32 6.36-1.32Z" transform="translate(153.90900000000002 18.48)"></path><path fill="#CCB25C" d="M3.84 0L1.93 0L1.93-11.40L3.51-11.40L3.68-9.77L3.74-9.77L3.74-9.77Q4.56-10.58 5.48-11.14L5.48-11.14L5.48-11.14Q6.41-11.70 7.56-11.70L7.56-11.70L7.56-11.70Q9.37-11.70 10.21-10.55L10.21-10.55L10.21-10.55Q11.05-9.41 11.05-7.22L11.05-7.22L11.05 0L9.13 0L9.13-6.97L9.13-6.97Q9.13-8.59 8.62-9.30L8.62-9.30L8.62-9.30Q8.11-10.02 6.97-10.02L6.97-10.02L6.97-10.02Q6.09-10.02 5.39-9.58L5.39-9.58L5.39-9.58Q4.68-9.13 3.84-8.27L3.84-8.27L3.84 0Z" transform="translate(166.63500000000002 18.48)"></path></g></svg></g> <!----></g>  <!----></svg>