<svg data-noselect="" viewBox="0 0 343 356" width="343" height="356" preserveAspectRatio="none" version="1.1" xmlns="http://www.w3.org/2000/svg" style="background: rgba(255, 255, 255, 0);"><defs></defs> <g id="shape_qdhUlT7LL4" transform="translate(30,30) rotate(0,0,0) scale(1,1)" filter="" style="cursor: move; opacity: 1;"><g><rect fill="rgba(0,0,0,0)" width="303" height="246" x="-10" y="-10"></rect><svg version="1.1" id="图层_1" xmlns="http://www.w3.org/2000/svg" xmlns:xlink="http://www.w3.org/1999/xlink" x="0px" y="0px" width="283" height="226" viewBox="0 0 283.46 226.77" style="enable-background:new 0 0 283.46 226.77;" xml:space="preserve" preserveAspectRatio="none" data-parent="shape_qdhUlT7LL4">
<g>
	<linearGradient id="SVGID_1_" gradientUnits="userSpaceOnUse" x1="55.3868" y1="113.0307" x2="238.6918" y2="113.0307">
		<stop offset="0" style="stop-color:#DDB533"></stop>
		<stop offset="0.2479" style="stop-color:#CCB25C"></stop>
		<stop offset="0.5453" style="stop-color:#E9DA92"></stop>
		<stop offset="0.8055" style="stop-color:#D4B245"></stop>
		<stop offset="1" style="stop-color:#B17E29"></stop>
	</linearGradient>
	<path style="fill:url(#SVGID_1_);" d="M238.29,111.953c-4.064-5.568-9.057-10.923-14.67-15.447
		c3.354-6.299,6.262-13.07,8.037-20.052c0.167-0.655-0.108-1.415-0.672-1.753c-5.761-3.447-12.142-5.94-18.513-7.816
		c0.446-3.759,0.67-7.534,0.713-11.242c0.037-3.232-0.015-6.508-0.376-9.722c-0.068-0.608-0.401-1.4-1.074-1.496
		c-6.901-0.992-14.321-1.077-21.584-0.023c-1.841-7.116-4.341-14.255-7.817-20.657c-0.321-0.592-1.032-0.897-1.652-0.713
		c-6.446,1.911-12.688,4.993-18.5,8.497c-4.132-5.774-9.004-11.027-14.238-15.326c-0.689-0.566-1.374-0.571-2.069,0
		c-5.346,4.391-10.304,9.776-14.484,15.687c-5.953-3.57-12.356-6.67-18.959-8.559c-0.617-0.177-1.334,0.115-1.652,0.713
		c-3.253,6.119-5.604,12.898-7.375,19.664c-3.534-0.471-7.083-0.708-10.573-0.753c-3.047-0.04-6.134,0.016-9.165,0.398
		c-0.573,0.072-1.319,0.426-1.411,1.139c-0.929,7.271-1.016,15.106-0.041,22.786c-6.754,1.952-13.531,4.617-19.605,8.328
		c-0.558,0.341-0.846,1.095-0.672,1.753c1.81,6.872,4.735,13.528,8.059,19.721c-3.455,2.871-6.69,6.032-9.677,9.332
		c-1.374,1.518-4.097,3.765-4.815,5.827c-0.728,2.092,2.064,4.539,3.215,5.906c3.458,4.108,7.335,7.958,11.54,11.345
		c-2.459,4.583-4.585,9.362-6.27,14.327c-0.538,1.584-2.267,5.097-1.522,6.875c0.683,1.631,4.001,2.596,5.341,3.242
		c4.387,2.116,8.911,3.861,13.545,5.252c-0.5,4.029-0.727,8.084-0.73,12.063c-0.002,2.591-0.435,6.772,0.614,9.244
		c0.792,1.868,3.676,1.537,5.334,1.648c5.629,0.377,11.398,0.258,17.075-0.516c1.844,7.206,4.366,14.443,7.885,20.923
		c0.322,0.592,1.032,0.897,1.652,0.713c6.476-1.92,12.747-5.022,18.583-8.548c4.101,5.701,8.921,10.888,14.107,15.148
		c0.689,0.566,1.374,0.571,2.069,0c5.319-4.369,10.253-9.715,14.421-15.589c5.984,3.601,12.426,6.725,19.069,8.626
		c0.618,0.177,1.334-0.115,1.652-0.713c3.243-6.1,5.59-12.855,7.358-19.601c3.646,0.489,7.312,0.726,10.914,0.761
		c2.954,0.029,5.945-0.03,8.883-0.401c0.573-0.072,1.319-0.426,1.411-1.139c0.931-7.286,1.015-15.117,0.037-22.786
		c6.706-1.952,13.432-4.602,19.465-8.288c0.559-0.341,0.846-1.095,0.673-1.753c-1.807-6.86-4.724-13.503-8.04-19.686
		c5.462-4.389,10.432-9.567,14.503-15.144C238.823,113.417,238.828,112.69,238.29,111.953z M169.896,172.712
		c-4.394-2.554-8.355-5.878-11.512-10.132c-6.189-8.34-8.928-18.979-10.006-29.373c-0.026-0.249-0.115-0.475-0.24-0.675
		c0.031-3.954,0.061-7.908,0.091-11.863c0.004-0.556,0.008-1.112,0.013-1.668c0.589-0.137,1.137-0.369,1.634-0.683
		c2.837,3.02,5.673,6.039,8.509,9.059c6.557,8.565,12.122,18.757,13.118,29.939C171.972,162.568,171.322,167.75,169.896,172.712z
		 M122.311,157.377c0.966-11.048,6.413-21.147,12.85-29.644c0.221-0.292,0.339-0.596,0.375-0.888
		c2.363-2.468,4.725-4.935,7.088-7.403c0.417-0.435,0.834-0.871,1.251-1.306c0.444,0.311,0.929,0.559,1.443,0.731
		c-0.041,5.381-0.083,10.762-0.124,16.142c-2.233,14.723-8.107,28.965-20.865,36.599c-0.202,0.121-0.409,0.229-0.612,0.346
		C122.445,167.242,121.877,162.341,122.311,157.377z M123.88,53.504c4.715,2.72,8.937,6.318,12.202,10.962
		c5.787,8.228,8.395,18.474,9.434,28.565c-0.031,4.016-0.062,8.031-0.093,12.047c-0.005,0.694-0.01,1.388-0.016,2.081
		c-0.461,0.146-0.898,0.356-1.306,0.615c-3.115-3.316-6.23-6.632-9.344-9.948c-0.034-0.055-0.062-0.109-0.102-0.164
		c-6.421-8.647-11.772-18.941-12.428-30.135C121.946,62.74,122.591,58.03,123.88,53.504z M165.681,42.938
		c1.416,2.709,2.634,5.534,3.598,8.441c-6.699,3.888-12.431,9.374-16.356,16.771c-1.844,3.475-3.27,7.149-4.373,10.935
		c0.052-6.731,0.104-13.462,0.155-20.192c0.013-1.676,0.026-3.351,0.039-5.027c0.929-0.539,1.584-1.527,1.587-2.756
		c0.001-0.173-0.023-0.34-0.048-0.506c4.884-3.656,8.871-8.456,11.64-14.085C163.281,38.613,164.541,40.758,165.681,42.938z
		 M171.408,69.601c-1.202,10.756-6.507,20.511-12.827,28.819c-2.517,2.629-5.034,5.258-7.551,7.887
		c-0.428,0.447-0.856,0.894-1.284,1.341c-0.434-0.257-0.908-0.449-1.411-0.576c0.031-3.986,0.061-7.972,0.092-11.957
		c0.079-0.177,0.137-0.378,0.161-0.608c1.024-9.945,3.511-20.047,8.959-28.351c3.309-5.044,7.669-8.939,12.611-11.84
		C171.466,59.256,171.989,64.4,171.408,69.601z M192.139,86.792c3.751,0.049,7.46,0.701,11.075,1.83
		c-2.708,5.258-6.335,9.925-11.039,13.461c-7.19,5.404-15.864,8.054-24.546,9.239c-4.326,0-8.653,0-12.98,0
		c-0.718,0-1.436,0-2.154,0c-0.158-0.537-0.378-1.044-0.649-1.512c2.714-2.835,5.429-5.67,8.143-8.505
		c0.101-0.058,0.202-0.127,0.301-0.213C169.373,93.206,180.154,86.989,192.139,86.792z M144.315,51.628
		c0.146,0.968,0.727,1.741,1.503,2.206c-0.063,8.166-0.126,16.331-0.188,24.497c-3.005-10.197-8.317-19.398-17.108-25.534
		c-1.193-0.833-2.425-1.595-3.682-2.304c1.015-2.873,2.271-5.659,3.708-8.324c0.927-1.719,1.926-3.416,2.989-5.083
		C134.568,43.014,138.957,47.988,144.315,51.628z M140.605,108.449c0.478,0.509,0.956,1.018,1.434,1.526
		c-0.235,0.422-0.425,0.872-0.56,1.347c-4.422,0-8.843,0-13.265,0c-9.264-1.217-18.64-4.014-26.249-9.933
		c-4.451-3.463-7.896-7.952-10.486-12.986c3.74-1.14,7.612-1.749,11.552-1.621c10.838,0.353,20.919,6.029,29.346,12.908
		C135.12,102.609,137.862,105.529,140.605,108.449z M103.828,106.395c3.323,2.083,6.857,3.689,10.508,4.927
		c-5.975,0-11.95,0-17.925,0c-1.584,0-3.168,0-4.752,0c-0.512-0.977-1.439-1.66-2.598-1.66c-0.187,0-0.369,0.024-0.547,0.06
		c-3.643-5.302-8.386-9.501-13.932-12.389c1.725-1.274,3.485-2.472,5.271-3.572c2.818-1.736,5.78-3.238,8.845-4.405
		C92.228,96.274,97.18,102.229,103.828,106.395z M88.426,115.999c0.179,0.044,0.363,0.074,0.55,0.082
		c1.19,0.054,2.153-0.65,2.68-1.655c7.589,0,15.177,0,22.766,0c-9.846,3.237-18.698,9.022-24.578,18.643
		c-0.676,1.105-1.296,2.245-1.887,3.402c-2.232-0.868-4.412-1.906-6.514-3.089c-2.082-1.171-4.093-2.474-6.045-3.872
		C80.729,126.207,85.19,121.577,88.426,115.999z M104.386,122.319c7.384-4.707,15.962-6.896,24.462-7.807
		c0.138-0.015,0.263-0.046,0.381-0.085c3.574,0,7.147,0,10.721,0c0.483,0,0.967,0,1.451,0c0.113,0.495,0.279,0.971,0.501,1.414
		c-3.676,3.839-7.352,7.678-11.027,11.518c-7.051,5.616-15.099,10.181-23.889,11.536c-5.485,0.846-10.965,0.217-16.198-1.425
		C94.048,131.28,98.571,126.025,104.386,122.319z M145.092,148.176c-0.048,6.227-0.096,12.453-0.144,18.68
		c-0.013,1.675-0.026,3.351-0.038,5.027c-0.929,0.539-1.584,1.527-1.586,2.756c0,0.099,0.019,0.193,0.027,0.289
		c-4.919,3.776-8.837,8.685-11.573,14.422c-1.232-1.91-2.385-3.86-3.436-5.84c-1.461-2.749-2.722-5.625-3.722-8.587
		C134.843,169.047,141.374,159.401,145.092,148.176z M147.836,171.914c0.064-8.285,0.127-16.57,0.191-24.855
		c3.001,10.699,8.468,20.372,17.71,26.682c1.039,0.709,2.109,1.358,3.195,1.976c-0.954,2.683-2.123,5.29-3.454,7.794
		c-1.024,1.928-2.144,3.828-3.339,5.69c-3.093-5.791-7.484-10.636-12.804-14.157c0.013-0.096,0.035-0.189,0.04-0.287
		C149.432,173.496,148.777,172.478,147.836,171.914z M160.337,125.058c-2.429-2.586-4.858-5.172-7.288-7.759
		c-0.374-0.398-0.748-0.796-1.122-1.194c0.284-0.518,0.503-1.082,0.65-1.679c3.581,0,7.163,0,10.744,0
		c0.233,0.268,0.584,0.427,1.052,0.382c9.393,1.08,18.936,3.715,26.782,9.503c4.767,3.516,8.446,8.153,11.185,13.408
		c-4.396,1.311-8.965,1.887-13.59,1.421c-10.601-1.066-20.26-7.033-28.362-14.044C160.372,125.081,160.354,125.072,160.337,125.058z
		 M189.268,119.402c-3.609-2.153-7.446-3.764-11.4-4.976c6.773,0,13.547,0,20.32,0c1.584,0,3.168,0,4.752,0
		c0.499,0.952,1.395,1.618,2.513,1.651c3.546,5.417,8.268,9.809,13.818,12.796c-1.901,1.394-3.845,2.694-5.821,3.874
		c-2.668,1.595-5.462,2.967-8.342,4.042C201.44,129.667,196.259,123.571,189.268,119.402z M204.981,109.714
		c-0.896,0.172-1.61,0.791-2.038,1.609c-7.375,0-14.75,0-22.125,0c9.089-3.19,17.273-8.64,22.858-17.448
		c0.871-1.374,1.669-2.792,2.4-4.248c4.34,1.678,8.518,4.02,12.438,6.816C213.018,99.606,208.393,104.159,204.981,109.714z
		 M228.508,76.813c-1.703,6.217-4.286,12.215-7.269,17.856c-4.342-3.216-9.009-5.913-13.873-7.829
		c2.297-5.311,3.789-11.034,4.686-16.856C217.709,71.669,223.33,73.852,228.508,76.813z M208.25,47.156
		c0.592,0.046,1.182,0.104,1.772,0.164c0.623,6.63,0.43,13.53-0.535,20.236c-0.054,0.177-0.08,0.36-0.08,0.544
		c-0.553,3.678-1.333,7.293-2.344,10.764c-0.693,2.382-1.532,4.714-2.52,6.963c-4.044-1.317-8.202-2.083-12.404-2.139
		c-7.541,0.124-14.598,2.469-21.111,6.087c4.365-4.56,8.731-9.119,13.096-13.678c1.124-1.174,2.248-2.348,3.372-3.522
		c1.019,0.313,2.149,0.094,2.963-0.765c1.153-1.217,1.188-3.321,0.017-4.543c-1.159-1.21-3.121-1.275-4.282-0.018
		c-0.805,0.871-1.027,2.041-0.75,3.113c-5.531,5.777-11.061,11.553-16.592,17.33c2.391-4.769,4.205-9.838,5.098-15.189
		c1.112-6.662,0.587-13.276-1.152-19.613c2.222-1.108,4.534-2.042,6.906-2.8c6.927-2.214,14.182-3.115,21.402-3.172
		C203.489,46.899,205.874,46.972,208.25,47.156z M187.241,44.885c-5.343,1.012-10.546,2.676-15.34,5.083
		c-0.621-1.842-1.337-3.658-2.148-5.439c-1.635-3.592-3.607-7.109-5.834-10.478c5.199-3.115,10.711-5.849,16.439-7.675
		C183.37,32.178,185.574,38.515,187.241,44.885z M146.91,19.27c4.838,4.132,9.288,9.057,13.086,14.412
		c-2.629,5.84-6.541,10.779-11.512,14.472c-0.361-0.168-0.757-0.264-1.169-0.271c-0.743-0.013-1.415,0.29-1.943,0.772
		c-5.122-3.621-9.182-8.536-11.935-14.413C137.317,28.677,141.903,23.549,146.91,19.27z M112.771,26.67
		c5.885,1.814,11.56,4.57,16.897,7.75c-1.965,3.008-3.726,6.128-5.228,9.308c-0.83,1.757-1.573,3.555-2.226,5.384
		c-5.008-2.433-10.4-4.011-15.887-4.962C107.918,38.142,109.977,32.17,112.771,26.67z M114.336,49.321
		c2.359,0.755,4.673,1.68,6.903,2.777c-1.721,5.856-2.433,11.992-1.684,18.178c0.724,5.976,2.605,11.608,5.188,16.889
		c-4.267-4.543-8.534-9.086-12.801-13.629c-1.116-1.188-2.231-2.375-3.347-3.563c0.289-1.077,0.076-2.265-0.732-3.132
		c-1.152-1.236-3.129-1.234-4.283-0.004c-1.161,1.237-1.167,3.305-0.004,4.543c0.811,0.864,1.93,1.087,2.946,0.784
		c5.517,5.873,11.033,11.745,16.549,17.618c-10.095-5.466-21.296-7.88-32.746-4.276c-0.064,0.02-0.125,0.044-0.189,0.064
		c-1.058-2.423-1.943-4.942-2.656-7.517c-2.029-7.326-2.845-14.986-2.875-22.607c-0.01-2.421,0.061-4.844,0.226-7.259
		c0.043-0.627,0.098-1.254,0.154-1.88C94.709,45.28,105.05,46.351,114.336,49.321z M87.376,86.554
		c-5.349,2.072-10.374,5.065-15.023,8.637c-2.948-5.53-5.534-11.395-7.26-17.49c5.505-3.217,11.523-5.566,17.571-7.335
		C83.601,75.998,85.143,81.489,87.376,86.554z M59.941,114.921c-0.446-0.553-0.857-1.286-1.362-1.773
		c-0.008-0.008-0.016-0.022-0.025-0.031c3.832-5.063,8.392-9.718,13.341-13.712c5.777,2.642,10.712,6.899,14.365,12.299
		c-0.14,0.365-0.224,0.759-0.229,1.17c-0.004,0.359,0.063,0.7,0.169,1.022c-3.258,5.779-7.848,10.431-13.452,13.632
		c-2.809-2.214-5.474-4.638-7.989-7.215C63.082,118.593,61.459,116.804,59.941,114.921z M65.317,149.192
		c0.238-1.69,1.282-3.959,1.776-5.364c1.523-4.329,3.405-8.488,5.547-12.504c4.369,3.238,9.057,5.959,13.983,7.939
		c-2.338,5.297-3.891,11.006-4.828,16.827C76.127,154.384,70.495,152.182,65.317,149.192z M90.918,179.21
		c-1.707-0.026-3.415-0.099-5.118-0.231c-0.381-0.029-1.214-0.251-1.896-0.329c0.067-1.505-0.266-3.149-0.312-4.657
		c-0.16-5.172,0.081-10.458,0.816-15.66c0.014-0.071,0.025-0.141,0.031-0.213c0.859-5.969,2.374-11.823,4.72-17.256
		c0.086-0.199,0.178-0.393,0.266-0.59c11.287,3.633,22.344,1.691,32.434-3.5c-4.109,4.292-8.219,8.584-12.328,12.876
		c-1.124,1.174-2.248,2.348-3.372,3.522c-1.019-0.313-2.15-0.094-2.963,0.765c-1.122,1.184-1.176,3.201-0.1,4.436
		c0.085,0.69,0.548,1.318,1.396,1.318c0.346,0,0.628-0.106,0.847-0.278c0.774,0.005,1.547-0.291,2.122-0.914
		c0.805-0.871,1.027-2.042,0.75-3.113c5.776-6.033,11.552-12.065,17.328-18.098c-2.831,5.407-4.948,11.203-5.836,17.365
		c-0.918,6.362-0.318,12.674,1.372,18.714C111.757,177.954,101.087,179.364,90.918,179.21z M106.565,181.167
		c5.013-0.895,9.922-2.334,14.56-4.443c0.293-0.133,0.577-0.276,0.866-0.415c0.654,1.909,1.408,3.788,2.26,5.626
		c1.632,3.517,3.582,6.959,5.774,10.257c-5.222,3.135-10.759,5.885-16.516,7.72C110.46,194.041,108.237,187.618,106.565,181.167z
		 M146.91,206.791c-4.892-4.179-9.385-9.168-13.21-14.589c2.48-5.896,6.382-10.941,11.292-14.712
		c0.409,0.225,0.863,0.367,1.346,0.375c0.454,0.008,0.88-0.107,1.266-0.301c5.391,3.534,9.703,8.462,12.648,14.452
		C156.4,197.509,151.858,202.564,146.91,206.791z M181.097,199.556c-5.922-1.825-11.633-4.604-17-7.812
		c2.071-3.161,3.915-6.452,5.473-9.809c0.733-1.581,1.397-3.191,1.985-4.825c5.031,2.464,10.451,4.069,15.97,5.03
		C185.935,188.127,183.881,194.076,181.097,199.556z M189.782,179.4c-0.147-0.046-0.299-0.068-0.451-0.071
		c-3.195-0.541-6.339-1.288-9.371-2.236c-2.544-0.795-5.038-1.777-7.433-2.964c1.865-6.301,2.553-12.911,1.579-19.574
		c-0.819-5.606-2.656-10.909-5.12-15.892c4.242,4.516,8.484,9.033,12.727,13.549c1.116,1.188,2.231,2.375,3.347,3.563
		c-0.289,1.077-0.076,2.265,0.732,3.132c1.152,1.236,3.128,1.234,4.283,0.004c1.161-1.237,1.167-3.305,0.004-4.543
		c-0.811-0.863-1.93-1.087-2.945-0.783c-5.405-5.755-10.811-11.509-16.216-17.264c4.768,2.685,9.849,4.69,15.226,5.576
		c5.962,0.983,11.876,0.377,17.542-1.376c1.04,2.35,1.917,4.796,2.629,7.304c2.087,7.349,2.937,15.045,2.99,22.704
		c0.018,2.527-0.051,5.057-0.224,7.578c-0.043,0.628-0.098,1.254-0.154,1.88C202.648,180.65,196.119,180.433,189.782,179.4z
		 M228.673,148.633c-5.465,3.192-11.436,5.528-17.437,7.296c-0.951-5.697-2.52-11.246-4.799-16.358
		c1.877-0.713,3.724-1.542,5.528-2.484c3.235-1.689,6.402-3.697,9.442-5.953C224.357,136.667,226.945,142.535,228.673,148.633z
		 M221.953,126.815c-5.596-2.75-10.35-6.898-13.895-12.2c0.313-0.506,0.501-1.104,0.509-1.74c0.01-0.795-0.284-1.514-0.749-2.074
		c3.361-5.235,7.868-9.408,13.24-12.273c0.124,0.058,0.252,0.101,0.383,0.124c5.298,4.217,10.04,9.21,13.959,14.395
		C231.54,118.133,226.945,122.811,221.953,126.815z"></path>
</g>
</svg></g> <!----></g><g id="shapge_Dtqxm2dQ0z" transform="translate(126,262) rotate(0,0,0) scale(1,1)" filter="" style="cursor: move; opacity: 1;"><g><svg xmlns="http://www.w3.org/2000/svg" version="1.1" xmlns:xlink="http://www.w3.org/1999/xlink" overflow="hidden" style="top:0; left: 0" width="91" height="34" viewBox="0 0 91.785 34.104" preserveAspectRatio="none" data-parent="shapge_Dtqxm2dQ0z"><rect fill="rgba(0,0,0,0)" width="91" height="34"></rect> <rect opacity="0"></rect><g transform="translate(0 0)" data-width="91.785"><path fill="#DDB533" d="M8.35 0L2.90 0L2.90-21.26L8.24-21.26L8.24-21.26Q13.14-21.26 15.70-18.52L15.70-18.52L15.70-18.52Q18.27-15.78 18.27-10.70L18.27-10.70L18.27-10.70Q18.27-5.66 15.72-2.83L15.72-2.83L15.72-2.83Q13.17 0 8.35 0L8.35 0ZM5.60-19.08L5.60-2.20L8.00-2.20L8.00-2.20Q11.77-2.20 13.63-4.44L13.63-4.44L13.63-4.44Q15.49-6.67 15.49-10.70L15.49-10.70L15.49-10.70Q15.49-14.76 13.63-16.92L13.63-16.92L13.63-16.92Q11.77-19.08 8.00-19.08L8.00-19.08L5.60-19.08Z" transform="translate(0 25.52)"></path><path fill="#DDB533" d="M6.29 0.38L6.29 0.38L6.29 0.38Q4.32 0.38 3.00-0.80L3.00-0.80L3.00-0.80Q1.68-1.97 1.68-4.09L1.68-4.09L1.68-4.09Q1.68-6.67 4.03-8.05L4.03-8.05L4.03-8.05Q6.38-9.43 11.37-9.98L11.37-9.98L11.37-9.98Q11.37-10.99 11.09-11.90L11.09-11.90L11.09-11.90Q10.82-12.82 10.12-13.38L10.12-13.38L10.12-13.38Q9.43-13.95 8.12-13.95L8.12-13.95L8.12-13.95Q6.76-13.95 5.55-13.44L5.55-13.44L5.55-13.44Q4.35-12.93 3.39-12.27L3.39-12.27L2.35-14.09L2.35-14.09Q3.45-14.82 5.06-15.49L5.06-15.49L5.06-15.49Q6.67-16.15 8.55-16.15L8.55-16.15L8.55-16.15Q11.43-16.15 12.72-14.38L12.72-14.38L12.72-14.38Q14.01-12.62 14.01-9.69L14.01-9.69L14.01 0L11.83 0L11.60-1.89L11.51-1.89L11.51-1.89Q10.38-0.93 9.06-0.28L9.06-0.28L9.06-0.28Q7.74 0.38 6.29 0.38ZM7.05-1.74L7.05-1.74L7.05-1.74Q8.21-1.74 9.22-2.28L9.22-2.28L9.22-2.28Q10.24-2.81 11.37-3.83L11.37-3.83L11.37-8.24L11.37-8.24Q7.45-7.77 5.86-6.79L5.86-6.79L5.86-6.79Q4.26-5.80 4.26-4.26L4.26-4.26L4.26-4.26Q4.26-2.93 5.08-2.33L5.08-2.33L5.08-2.33Q5.89-1.74 7.05-1.74Z" transform="translate(19.923000000000002 25.52)"></path><path fill="#DDB533" d="M7.63 0.38L7.63 0.38L7.63 0.38Q5.10 0.38 4.12-1.06L4.12-1.06L4.12-1.06Q3.13-2.49 3.13-4.87L3.13-4.87L3.13-13.60L0.78-13.60L0.78-15.60L3.25-15.75L3.57-20.16L5.77-20.16L5.77-15.75L10.03-15.75L10.03-13.60L5.77-13.60L5.77-4.81L5.77-4.81Q5.77-3.36 6.31-2.57L6.31-2.57L6.31-2.57Q6.84-1.77 8.21-1.77L8.21-1.77L8.21-1.77Q8.61-1.77 9.11-1.90L9.11-1.90L9.11-1.90Q9.60-2.03 10.01-2.18L10.01-2.18L10.53-0.20L10.53-0.20Q9.86 0.03 9.11 0.20L9.11 0.20L9.11 0.20Q8.35 0.38 7.63 0.38Z" transform="translate(36.279 25.52)"></path><path fill="#DDB533" d="M6.29 0.38L6.29 0.38L6.29 0.38Q4.32 0.38 3.00-0.80L3.00-0.80L3.00-0.80Q1.68-1.97 1.68-4.09L1.68-4.09L1.68-4.09Q1.68-6.67 4.03-8.05L4.03-8.05L4.03-8.05Q6.38-9.43 11.37-9.98L11.37-9.98L11.37-9.98Q11.37-10.99 11.09-11.90L11.09-11.90L11.09-11.90Q10.82-12.82 10.12-13.38L10.12-13.38L10.12-13.38Q9.43-13.95 8.12-13.95L8.12-13.95L8.12-13.95Q6.76-13.95 5.55-13.44L5.55-13.44L5.55-13.44Q4.35-12.93 3.39-12.27L3.39-12.27L2.35-14.09L2.35-14.09Q3.45-14.82 5.06-15.49L5.06-15.49L5.06-15.49Q6.67-16.15 8.55-16.15L8.55-16.15L8.55-16.15Q11.43-16.15 12.72-14.38L12.72-14.38L12.72-14.38Q14.01-12.62 14.01-9.69L14.01-9.69L14.01 0L11.83 0L11.60-1.89L11.51-1.89L11.51-1.89Q10.38-0.93 9.06-0.28L9.06-0.28L9.06-0.28Q7.74 0.38 6.29 0.38ZM7.05-1.74L7.05-1.74L7.05-1.74Q8.21-1.74 9.22-2.28L9.22-2.28L9.22-2.28Q10.24-2.81 11.37-3.83L11.37-3.83L11.37-8.24L11.37-8.24Q7.45-7.77 5.86-6.79L5.86-6.79L5.86-6.79Q4.26-5.80 4.26-4.26L4.26-4.26L4.26-4.26Q4.26-2.93 5.08-2.33L5.08-2.33L5.08-2.33Q5.89-1.74 7.05-1.74Z" transform="translate(47.212 25.52)"></path><path fill="#DDB533" d="" transform="translate(63.568000000000005 25.52)"></path><path fill="#DDB533" d="M9.92 0L6.82 0L0.03-21.26L2.84-21.26L6.29-9.74L6.29-9.74Q6.76-8.24 7.13-6.84L7.13-6.84L7.13-6.84Q7.66-4.90 8.35-2.73L8.35-2.73L8.47-2.73L8.47-2.73Q9.11-4.79 9.63-6.67L9.63-6.67L9.63-6.67Q10.03-8.12 10.53-9.74L10.53-9.74L13.95-21.26L16.68-21.26L9.92 0Z" transform="translate(75.11 25.52)"></path></g></svg></g> <!----></g><g id="shapge_xAVPrk8iAy" transform="translate(82,302) rotate(0,0,0) scale(1,1)" filter="" style="cursor: move; opacity: 1;"><g><svg xmlns="http://www.w3.org/2000/svg" version="1.1" xmlns:xlink="http://www.w3.org/1999/xlink" overflow="hidden" style="top:0; left: 0" width="179" height="24" viewBox="0 0 179.466 24.695999999999998" preserveAspectRatio="none" data-parent="shapge_xAVPrk8iAy"><rect fill="rgba(0,0,0,0)" width="179" height="24"></rect> <rect opacity="0"></rect><g transform="translate(0 0)" data-width="179.466"><path fill="#CCB25C" d="M6.05 0L2.10 0L2.10-15.39L5.96-15.39L5.96-15.39Q9.51-15.39 11.37-13.41L11.37-13.41L11.37-13.41Q13.23-11.42 13.23-7.75L13.23-7.75L13.23-7.75Q13.23-4.10 11.38-2.05L11.38-2.05L11.38-2.05Q9.53 0 6.05 0L6.05 0ZM4.05-13.82L4.05-1.60L5.80-1.60L5.80-1.60Q8.53-1.60 9.87-3.21L9.87-3.21L9.87-3.21Q11.21-4.83 11.21-7.75L11.21-7.75L11.21-7.75Q11.21-10.69 9.87-12.25L9.87-12.25L9.87-12.25Q8.53-13.82 5.80-13.82L5.80-13.82L4.05-13.82Z" transform="translate(0 18.48)"></path><path fill="#CCB25C" d="M4.56 0.27L4.56 0.27L4.56 0.27Q3.13 0.27 2.17-0.58L2.17-0.58L2.17-0.58Q1.22-1.43 1.22-2.96L1.22-2.96L1.22-2.96Q1.22-4.83 2.92-5.83L2.92-5.83L2.92-5.83Q4.62-6.83 8.23-7.22L8.23-7.22L8.23-7.22Q8.23-7.96 8.03-8.62L8.03-8.62L8.03-8.62Q7.83-9.28 7.33-9.69L7.33-9.69L7.33-9.69Q6.83-10.10 5.88-10.10L5.88-10.10L5.88-10.10Q4.89-10.10 4.02-9.73L4.02-9.73L4.02-9.73Q3.15-9.37 2.46-8.88L2.46-8.88L1.70-10.21L1.70-10.21Q2.50-10.73 3.66-11.21L3.66-11.21L3.66-11.21Q4.83-11.70 6.20-11.70L6.20-11.70L6.20-11.70Q8.27-11.70 9.21-10.42L9.21-10.42L9.21-10.42Q10.14-9.13 10.14-7.01L10.14-7.01L10.14 0L8.57 0L8.40-1.36L8.34-1.36L8.34-1.36Q7.52-0.67 6.56-0.20L6.56-0.20L6.56-0.20Q5.61 0.27 4.56 0.27ZM5.10-1.26L5.10-1.26L5.10-1.26Q5.94-1.26 6.68-1.65L6.68-1.65L6.68-1.65Q7.41-2.04 8.23-2.77L8.23-2.77L8.23-5.96L8.23-5.96Q5.40-5.63 4.24-4.91L4.24-4.91L4.24-4.91Q3.09-4.20 3.09-3.09L3.09-3.09L3.09-3.09Q3.09-2.12 3.68-1.69L3.68-1.69L3.68-1.69Q4.26-1.26 5.10-1.26Z" transform="translate(14.427000000000001 18.48)"></path><path fill="#CCB25C" d="M5.52 0.27L5.52 0.27L5.52 0.27Q3.70 0.27 2.98-0.77L2.98-0.77L2.98-0.77Q2.27-1.81 2.27-3.53L2.27-3.53L2.27-9.85L0.57-9.85L0.57-11.30L2.35-11.40L2.58-14.60L4.18-14.60L4.18-11.40L7.27-11.40L7.27-9.85L4.18-9.85L4.18-3.49L4.18-3.49Q4.18-2.44 4.57-1.86L4.57-1.86L4.57-1.86Q4.96-1.28 5.94-1.28L5.94-1.28L5.94-1.28Q6.24-1.28 6.59-1.38L6.59-1.38L6.59-1.38Q6.95-1.47 7.25-1.58L7.25-1.58L7.62-0.15L7.62-0.15Q7.14 0.02 6.59 0.15L6.59 0.15L6.59 0.15Q6.05 0.27 5.52 0.27Z" transform="translate(26.271 18.48)"></path><path fill="#CCB25C" d="M4.56 0.27L4.56 0.27L4.56 0.27Q3.13 0.27 2.17-0.58L2.17-0.58L2.17-0.58Q1.22-1.43 1.22-2.96L1.22-2.96L1.22-2.96Q1.22-4.83 2.92-5.83L2.92-5.83L2.92-5.83Q4.62-6.83 8.23-7.22L8.23-7.22L8.23-7.22Q8.23-7.96 8.03-8.62L8.03-8.62L8.03-8.62Q7.83-9.28 7.33-9.69L7.33-9.69L7.33-9.69Q6.83-10.10 5.88-10.10L5.88-10.10L5.88-10.10Q4.89-10.10 4.02-9.73L4.02-9.73L4.02-9.73Q3.15-9.37 2.46-8.88L2.46-8.88L1.70-10.21L1.70-10.21Q2.50-10.73 3.66-11.21L3.66-11.21L3.66-11.21Q4.83-11.70 6.20-11.70L6.20-11.70L6.20-11.70Q8.27-11.70 9.21-10.42L9.21-10.42L9.21-10.42Q10.14-9.13 10.14-7.01L10.14-7.01L10.14 0L8.57 0L8.40-1.36L8.34-1.36L8.34-1.36Q7.52-0.67 6.56-0.20L6.56-0.20L6.56-0.20Q5.61 0.27 4.56 0.27ZM5.10-1.26L5.10-1.26L5.10-1.26Q5.94-1.26 6.68-1.65L6.68-1.65L6.68-1.65Q7.41-2.04 8.23-2.77L8.23-2.77L8.23-5.96L8.23-5.96Q5.40-5.63 4.24-4.91L4.24-4.91L4.24-4.91Q3.09-4.20 3.09-3.09L3.09-3.09L3.09-3.09Q3.09-2.12 3.68-1.69L3.68-1.69L3.68-1.69Q4.26-1.26 5.10-1.26Z" transform="translate(34.188 18.48)"></path><path fill="#CCB25C" d="" transform="translate(46.032000000000004 18.48)"></path><path fill="#CCB25C" d="M7.18 0L4.94 0L0.02-15.39L2.06-15.39L4.56-7.06L4.56-7.06Q4.89-5.96 5.17-4.96L5.17-4.96L5.17-4.96Q5.54-3.55 6.05-1.97L6.05-1.97L6.13-1.97L6.13-1.97Q6.59-3.47 6.97-4.83L6.97-4.83L6.97-4.83Q7.27-5.88 7.62-7.06L7.62-7.06L10.10-15.39L12.08-15.39L7.18 0Z" transform="translate(54.39 18.48)"></path><path fill="#CCB25C" d="M3.84 0L1.93 0L1.93-11.40L3.84-11.40L3.84 0ZM2.90-13.76L2.90-13.76L2.90-13.76Q2.33-13.76 1.95-14.11L1.95-14.11L1.95-14.11Q1.58-14.47 1.58-14.99L1.58-14.99L1.58-14.99Q1.58-16.17 2.90-16.23L2.90-16.23L2.90-16.23Q3.47-16.23 3.84-15.91L3.84-15.91L3.84-15.91Q4.22-15.58 4.22-14.99L4.22-14.99L4.22-14.99Q4.22-14.47 3.84-14.11L3.84-14.11L3.84-14.11Q3.47-13.76 2.90-13.76Z" transform="translate(66.465 18.48)"></path><path fill="#CCB25C" d="M4.91 0.27L4.91 0.27L4.91 0.27Q3.70 0.27 2.59-0.17L2.59-0.17L2.59-0.17Q1.49-0.61 0.65-1.30L0.65-1.30L1.60-2.56L1.60-2.56Q2.33-1.95 3.14-1.59L3.14-1.59L3.14-1.59Q3.95-1.22 4.98-1.22L4.98-1.22L4.98-1.22Q6.11-1.22 6.67-1.74L6.67-1.74L6.67-1.74Q7.22-2.27 7.22-3.00L7.22-3.00L7.22-3.00Q7.22-3.59 6.84-3.98L6.84-3.98L6.84-3.98Q6.45-4.37 5.86-4.65L5.86-4.65L5.86-4.65Q5.27-4.94 4.62-5.17L4.62-5.17L4.62-5.17Q3.80-5.46 3.02-5.86L3.02-5.86L3.02-5.86Q2.25-6.26 1.73-6.88L1.73-6.88L1.73-6.88Q1.22-7.50 1.22-8.46L1.22-8.46L1.22-8.46Q1.22-9.83 2.26-10.76L2.26-10.76L2.26-10.76Q3.30-11.70 5.15-11.70L5.15-11.70L5.15-11.70Q6.20-11.70 7.11-11.32L7.11-11.32L7.11-11.32Q8.02-10.94 8.69-10.42L8.69-10.42L7.77-9.18L7.77-9.18Q7.18-9.62 6.55-9.90L6.55-9.90L6.55-9.90Q5.92-10.19 5.15-10.19L5.15-10.19L5.15-10.19Q4.07-10.19 3.57-9.70L3.57-9.70L3.57-9.70Q3.07-9.22 3.07-8.55L3.07-8.55L3.07-8.55Q3.07-8.02 3.39-7.69L3.39-7.69L3.39-7.69Q3.72-7.35 4.24-7.11L4.24-7.11L4.24-7.11Q4.77-6.87 5.38-6.66L5.38-6.66L5.38-6.66Q5.48-6.62 5.59-6.57L5.59-6.57L5.59-6.57Q6.43-6.28 7.22-5.88L7.22-5.88L7.22-5.88Q8.02-5.48 8.55-4.84L8.55-4.84L8.55-4.84Q9.07-4.20 9.07-3.11L9.07-3.11L9.07-3.11Q9.07-1.72 8.00-0.72L8.00-0.72L8.00-0.72Q6.93 0.27 4.91 0.27Z" transform="translate(72.24000000000001 18.48)"></path><path fill="#CCB25C" d="M5.25 0.27L5.25 0.27L5.25 0.27Q3.47 0.27 2.63-0.87L2.63-0.87L2.63-0.87Q1.79-2.02 1.79-4.18L1.79-4.18L1.79-11.40L3.70-11.40L3.70-4.41L3.70-4.41Q3.70-2.81 4.20-2.10L4.20-2.10L4.20-2.10Q4.70-1.39 5.84-1.39L5.84-1.39L5.84-1.39Q6.72-1.39 7.42-1.85L7.42-1.85L7.42-1.85Q8.13-2.31 8.93-3.32L8.93-3.32L8.93-11.40L10.84-11.40L10.84 0L9.24 0L9.09-1.79L9.03-1.79L9.03-1.79Q8.23-0.84 7.33-0.28L7.33-0.28L7.33-0.28Q6.43 0.27 5.25 0.27Z" transform="translate(82.06800000000001 18.48)"></path><path fill="#CCB25C" d="M4.56 0.27L4.56 0.27L4.56 0.27Q3.13 0.27 2.17-0.58L2.17-0.58L2.17-0.58Q1.22-1.43 1.22-2.96L1.22-2.96L1.22-2.96Q1.22-4.83 2.92-5.83L2.92-5.83L2.92-5.83Q4.62-6.83 8.23-7.22L8.23-7.22L8.23-7.22Q8.23-7.96 8.03-8.62L8.03-8.62L8.03-8.62Q7.83-9.28 7.33-9.69L7.33-9.69L7.33-9.69Q6.83-10.10 5.88-10.10L5.88-10.10L5.88-10.10Q4.89-10.10 4.02-9.73L4.02-9.73L4.02-9.73Q3.15-9.37 2.46-8.88L2.46-8.88L1.70-10.21L1.70-10.21Q2.50-10.73 3.66-11.21L3.66-11.21L3.66-11.21Q4.83-11.70 6.20-11.70L6.20-11.70L6.20-11.70Q8.27-11.70 9.21-10.42L9.21-10.42L9.21-10.42Q10.14-9.13 10.14-7.01L10.14-7.01L10.14 0L8.57 0L8.40-1.36L8.34-1.36L8.34-1.36Q7.52-0.67 6.56-0.20L6.56-0.20L6.56-0.20Q5.61 0.27 4.56 0.27ZM5.10-1.26L5.10-1.26L5.10-1.26Q5.94-1.26 6.68-1.65L6.68-1.65L6.68-1.65Q7.41-2.04 8.23-2.77L8.23-2.77L8.23-5.96L8.23-5.96Q5.40-5.63 4.24-4.91L4.24-4.91L4.24-4.91Q3.09-4.20 3.09-3.09L3.09-3.09L3.09-3.09Q3.09-2.12 3.68-1.69L3.68-1.69L3.68-1.69Q4.26-1.26 5.10-1.26Z" transform="translate(94.81500000000001 18.48)"></path><path fill="#CCB25C" d="M3.95 0.27L3.95 0.27L3.95 0.27Q2.88 0.27 2.40-0.39L2.40-0.39L2.40-0.39Q1.93-1.05 1.93-2.27L1.93-2.27L1.93-16.72L3.84-16.72L3.84-2.14L3.84-2.14Q3.84-1.70 4.01-1.51L4.01-1.51L4.01-1.51Q4.18-1.32 4.39-1.32L4.39-1.32L4.39-1.32Q4.47-1.32 4.56-1.33L4.56-1.33L4.56-1.33Q4.64-1.34 4.79-1.36L4.79-1.36L5.06 0.11L5.06 0.11Q4.70 0.27 3.95 0.27Z" transform="translate(106.65900000000002 18.48)"></path><path fill="#CCB25C" d="M3.84 0L1.93 0L1.93-11.40L3.84-11.40L3.84 0ZM2.90-13.76L2.90-13.76L2.90-13.76Q2.33-13.76 1.95-14.11L1.95-14.11L1.95-14.11Q1.58-14.47 1.58-14.99L1.58-14.99L1.58-14.99Q1.58-16.17 2.90-16.23L2.90-16.23L2.90-16.23Q3.47-16.23 3.84-15.91L3.84-15.91L3.84-15.91Q4.22-15.58 4.22-14.99L4.22-14.99L4.22-14.99Q4.22-14.47 3.84-14.11L3.84-14.11L3.84-14.11Q3.47-13.76 2.90-13.76Z" transform="translate(112.64400000000002 18.48)"></path><path fill="#CCB25C" d="M9.37 0L0.74 0L0.74-1.03L6.74-9.85L1.39-9.85L1.39-11.40L9.16-11.40L9.16-10.37L3.15-1.55L9.37-1.55L9.37 0Z" transform="translate(118.41900000000003 18.48)"></path><path fill="#CCB25C" d="M4.56 0.27L4.56 0.27L4.56 0.27Q3.13 0.27 2.17-0.58L2.17-0.58L2.17-0.58Q1.22-1.43 1.22-2.96L1.22-2.96L1.22-2.96Q1.22-4.83 2.92-5.83L2.92-5.83L2.92-5.83Q4.62-6.83 8.23-7.22L8.23-7.22L8.23-7.22Q8.23-7.96 8.03-8.62L8.03-8.62L8.03-8.62Q7.83-9.28 7.33-9.69L7.33-9.69L7.33-9.69Q6.83-10.10 5.88-10.10L5.88-10.10L5.88-10.10Q4.89-10.10 4.02-9.73L4.02-9.73L4.02-9.73Q3.15-9.37 2.46-8.88L2.46-8.88L1.70-10.21L1.70-10.21Q2.50-10.73 3.66-11.21L3.66-11.21L3.66-11.21Q4.83-11.70 6.20-11.70L6.20-11.70L6.20-11.70Q8.27-11.70 9.21-10.42L9.21-10.42L9.21-10.42Q10.14-9.13 10.14-7.01L10.14-7.01L10.14 0L8.57 0L8.40-1.36L8.34-1.36L8.34-1.36Q7.52-0.67 6.56-0.20L6.56-0.20L6.56-0.20Q5.61 0.27 4.56 0.27ZM5.10-1.26L5.10-1.26L5.10-1.26Q5.94-1.26 6.68-1.65L6.68-1.65L6.68-1.65Q7.41-2.04 8.23-2.77L8.23-2.77L8.23-5.96L8.23-5.96Q5.40-5.63 4.24-4.91L4.24-4.91L4.24-4.91Q3.09-4.20 3.09-3.09L3.09-3.09L3.09-3.09Q3.09-2.12 3.68-1.69L3.68-1.69L3.68-1.69Q4.26-1.26 5.10-1.26Z" transform="translate(128.37300000000002 18.48)"></path><path fill="#CCB25C" d="M5.52 0.27L5.52 0.27L5.52 0.27Q3.70 0.27 2.98-0.77L2.98-0.77L2.98-0.77Q2.27-1.81 2.27-3.53L2.27-3.53L2.27-9.85L0.57-9.85L0.57-11.30L2.35-11.40L2.58-14.60L4.18-14.60L4.18-11.40L7.27-11.40L7.27-9.85L4.18-9.85L4.18-3.49L4.18-3.49Q4.18-2.44 4.57-1.86L4.57-1.86L4.57-1.86Q4.96-1.28 5.94-1.28L5.94-1.28L5.94-1.28Q6.24-1.28 6.59-1.38L6.59-1.38L6.59-1.38Q6.95-1.47 7.25-1.58L7.25-1.58L7.62-0.15L7.62-0.15Q7.14 0.02 6.59 0.15L6.59 0.15L6.59 0.15Q6.05 0.27 5.52 0.27Z" transform="translate(140.217 18.48)"></path><path fill="#CCB25C" d="M3.84 0L1.93 0L1.93-11.40L3.84-11.40L3.84 0ZM2.90-13.76L2.90-13.76L2.90-13.76Q2.33-13.76 1.95-14.11L1.95-14.11L1.95-14.11Q1.58-14.47 1.58-14.99L1.58-14.99L1.58-14.99Q1.58-16.17 2.90-16.23L2.90-16.23L2.90-16.23Q3.47-16.23 3.84-15.91L3.84-15.91L3.84-15.91Q4.22-15.58 4.22-14.99L4.22-14.99L4.22-14.99Q4.22-14.47 3.84-14.11L3.84-14.11L3.84-14.11Q3.47-13.76 2.90-13.76Z" transform="translate(148.13400000000001 18.48)"></path><path fill="#CCB25C" d="M6.36 0.27L6.36 0.27L6.36 0.27Q4.98 0.27 3.77-0.43L3.77-0.43L3.77-0.43Q2.56-1.13 1.82-2.47L1.82-2.47L1.82-2.47Q1.07-3.80 1.07-5.69L1.07-5.69L1.07-5.69Q1.07-7.60 1.82-8.94L1.82-8.94L1.82-8.94Q2.56-10.27 3.77-10.98L3.77-10.98L3.77-10.98Q4.98-11.70 6.36-11.70L6.36-11.70L6.36-11.70Q7.77-11.70 8.97-10.98L8.97-10.98L8.97-10.98Q10.16-10.27 10.91-8.94L10.91-8.94L10.91-8.94Q11.66-7.60 11.66-5.69L11.66-5.69L11.66-5.69Q11.66-3.80 10.91-2.47L10.91-2.47L10.91-2.47Q10.16-1.13 8.97-0.43L8.97-0.43L8.97-0.43Q7.77 0.27 6.36 0.27ZM6.36-1.32L6.36-1.32L6.36-1.32Q7.85-1.32 8.77-2.52L8.77-2.52L8.77-2.52Q9.68-3.72 9.68-5.69L9.68-5.69L9.68-5.69Q9.68-7.67 8.77-8.88L8.77-8.88L8.77-8.88Q7.85-10.10 6.36-10.10L6.36-10.10L6.36-10.10Q4.89-10.10 3.98-8.88L3.98-8.88L3.98-8.88Q3.07-7.67 3.07-5.69L3.07-5.69L3.07-5.69Q3.07-3.72 3.98-2.52L3.98-2.52L3.98-2.52Q4.89-1.32 6.36-1.32Z" transform="translate(153.90900000000002 18.48)"></path><path fill="#CCB25C" d="M3.84 0L1.93 0L1.93-11.40L3.51-11.40L3.68-9.77L3.74-9.77L3.74-9.77Q4.56-10.58 5.48-11.14L5.48-11.14L5.48-11.14Q6.41-11.70 7.56-11.70L7.56-11.70L7.56-11.70Q9.37-11.70 10.21-10.55L10.21-10.55L10.21-10.55Q11.05-9.41 11.05-7.22L11.05-7.22L11.05 0L9.13 0L9.13-6.97L9.13-6.97Q9.13-8.59 8.62-9.30L8.62-9.30L8.62-9.30Q8.11-10.02 6.97-10.02L6.97-10.02L6.97-10.02Q6.09-10.02 5.39-9.58L5.39-9.58L5.39-9.58Q4.68-9.13 3.84-8.27L3.84-8.27L3.84 0Z" transform="translate(166.63500000000002 18.48)"></path></g></svg></g> <!----></g>  <!----></svg>