<svg data-noselect="" viewBox="0 0 343 286" width="343" height="286" preserveAspectRatio="none" version="1.1" xmlns="http://www.w3.org/2000/svg" style="background: rgba(255, 255, 255, 0);"><defs></defs> <g id="shape_SNqMH6ojNq" transform="translate(30,30) rotate(0,141.5,113) scale(1,1)" filter="" style="cursor: move; opacity: 1;"><g><rect fill="rgba(0,0,0,0)" width="303" height="246" x="-10" y="-10"></rect><svg version="1.1" id="图层_1" xmlns="http://www.w3.org/2000/svg" xmlns:xlink="http://www.w3.org/1999/xlink" x="0px" y="0px" width="283" height="226" viewBox="0 0 283.46 226.77" style="enable-background:new 0 0 283.46 226.77;" xml:space="preserve" preserveAspectRatio="none" data-parent="shape_SNqMH6ojNq">
<path id="XMLID_857_" style="fill:#1684C4;" d="M82.638,141.037c12-2.553,21.12-1.137,30.098,4.4
	c7.938,4.894,16.422,4.524,27.508-1.205c13.51-6.984,26.626-6.784,37.926,0.578c7.368,4.799,15.992,4.334,23.378,2.286
	c0.571-2.732,0.885-5.536,0.885-8.402c0-9.813-3.502-18.948-9.513-26.628l0.059-0.036l-50.479-70.527L92.02,112.03l0.059,0.036
	c-6.012,7.681-9.513,16.816-9.513,26.628C82.566,139.48,82.593,140.26,82.638,141.037z"></path>
<path id="XMLID_854_" style="fill:#98D0F0;" d="M174.683,148.428c-9.528-6.207-19.818-6.301-31.452-0.287
	c-6.826,3.528-13.125,5.291-18.989,5.291c-5.29,0.001-10.225-1.434-14.875-4.302c-7.853-4.843-15.407-5.93-26.19-3.442
	c4.131,23.906,29.109,42.292,59.322,42.292c27.404,0,50.496-15.13,57.637-35.782C190.504,154.149,181.603,152.937,174.683,148.428z"></path>
<ellipse id="XMLID_848_" style="fill:#98D0F0;" cx="142.437" cy="73.764" rx="5.721" ry="4.705"></ellipse>
<ellipse id="XMLID_828_" style="fill:#98D0F0;" cx="107.936" cy="122.119" rx="4.041" ry="3.323"></ellipse>
<ellipse id="XMLID_824_" style="fill:#98D0F0;" cx="180.726" cy="131.609" rx="4.359" ry="3.584"></ellipse>
<path id="XMLID_407_" style="fill:#FFFFFF;" d="M123.258,162.206c0-2.771,0-5.856,0-9.257c0-3.398,0-6.873,0-10.421
	c0-3.547,0-7.168,0-10.864c0-3.695,0-7.317,0-10.865c0-3.547,0-7.02,0-10.421c0-3.473,0-6.596,0-9.367c0-2.772,0-5.192,0-7.262
	h26.424c2.426,0,4.762,0.277,7.01,0.831c2.246,0.555,4.359,1.424,6.336,2.605c2.067,1.109,3.594,2.273,4.584,3.493
	c0.988,1.219,1.483,2.495,1.483,3.824c0,1.552,0,3.345,0,5.377c0,2.034,0,4.268,0,6.707s0,4.916,0,7.428c0,2.513,0,5.063,0,7.65
	c0,2.587,0,5.155,0,7.705c0,2.549,0,5.044,0,7.483c0,2.438,0,4.656,0,6.652c0,1.995,0,3.807,0,5.432c0,1.33-0.495,2.605-1.483,3.824
	c-0.989,1.219-2.516,2.383-4.584,3.492c-1.977,1.109-4.09,1.923-6.336,2.439c-2.247,0.518-4.584,0.776-7.01,0.776
	c-1.888,0-3.933,0-6.135,0c-2.204,0-4.607,0-7.213,0c-2.517,0-4.876,0-7.078,0c-2.203,0-4.203,0-5.999,0
	C123.258,167.4,123.258,164.978,123.258,162.206z M132.83,165.255c0.628,0,1.258,0,1.887,0c0.539,0,1.123,0,1.753,0
	c0.628,0,1.258,0,1.887,0c1.348,0,2.674,0,3.977,0c1.303,0,2.539,0,3.707,0c5.033,0,8.852-0.702,11.46-2.107
	c2.605-1.403,3.91-3.473,3.91-6.208c0-1.33,0-2.899,0-4.712c0-1.81,0-3.861,0-6.152c0-2.29,0-4.618,0-6.984c0-2.364,0-4.767,0-7.206
	c0-2.511,0-4.969,0-7.372c0-2.401,0-4.747,0-7.04c0-2.289,0-4.359,0-6.207c0-1.847,0-3.474,0-4.879c0-2.808-1.305-4.914-3.91-6.319
	c-2.607-1.403-6.427-2.106-11.46-2.106h-15.099v67.292C131.571,165.255,132.2,165.255,132.83,165.255z"></path>
</svg></g> <!----></g>  <!----></svg>