<svg data-noselect="" viewBox="0 0 245 202" width="245" height="202" preserveAspectRatio="none" version="1.1" xmlns="http://www.w3.org/2000/svg" style="background: rgba(255, 255, 255, 0);"><defs></defs> <g id="shape_cHTcVmiWwk" transform="translate(77,30) rotate(0,0,0) scale(1,1)" filter="" style="cursor: move; opacity: 1;"><g><rect fill="rgba(0,0,0,0)" width="111" height="92" x="-10" y="-10"></rect><svg xmlns="http://www.w3.org/2000/svg" xmlns:xlink="http://www.w3.org/1999/xlink" shape-rendering="auto" id="layer1" text-rendering="auto" width="91" contentscripttype="text/ecmascript" color-rendering="auto" color-interpolation="auto" xml:space="preserve" preserveAspectRatio="none" viewBox="0 0 91.433 72.715" image-rendering="auto" zoomAndPan="magnify" version="1.1" contentstyletype="text/css" x="0px" enable-background="new 0 0 91.433 72.715" height="72" y="0px" data-parent="shape_cHTcVmiWwk">
 <g fill="#3786C7">
  <g>
   <g>
    <g>
     <path d="M68.844,26.678c-0.318,0.263-0.788,0.223-1.054-0.094l-2.607-3.115      c-0.266-0.316-0.223-0.789,0.093-1.055l0,0c0.318-0.264,0.788-0.223,1.054,0.094l2.607,3.115      C69.203,25.94,69.159,26.412,68.844,26.678L68.844,26.678z"></path>
     <path d="M64.928,26.33c-0.265-0.317-0.223-0.788,0.095-1.054l3.116-2.605c0.313-0.268,0.785-0.225,1.054,0.092      l0,0c0.262,0.317,0.221,0.789-0.094,1.055l-3.115,2.607C65.667,26.688,65.193,26.647,64.928,26.33L64.928,26.33z"></path>
    </g>
    <g>
     <path d="M76.676,24.69c-0.203,0.172-0.508,0.146-0.684-0.061l-1.688-2.021c-0.175-0.206-0.149-0.511,0.059-0.685      l0,0c0.205-0.171,0.513-0.145,0.682,0.063l1.691,2.02C76.912,24.212,76.882,24.518,76.676,24.69L76.676,24.69z"></path>
     <path d="M74.138,24.465c-0.173-0.207-0.146-0.513,0.059-0.685l2.023-1.69c0.205-0.172,0.511-0.145,0.684,0.061      l0,0c0.171,0.205,0.145,0.512-0.061,0.684l-2.021,1.69C74.616,24.698,74.309,24.67,74.138,24.465L74.138,24.465z"></path>
    </g>
    <g>
     <path d="M62.413,10.291c-0.266,0.025-0.504-0.171-0.527-0.44l-0.24-2.623c-0.024-0.268,0.171-0.504,0.437-0.528      l0,0c0.271-0.024,0.504,0.171,0.528,0.439l0.242,2.624C62.876,10.031,62.68,10.266,62.413,10.291L62.413,10.291z"></path>
     <path d="M60.451,8.66c-0.021-0.267,0.173-0.504,0.441-0.528l2.62-0.241c0.271-0.025,0.508,0.173,0.532,0.439l0,0      c0.025,0.267-0.171,0.503-0.441,0.529l-2.622,0.24C60.715,9.123,60.477,8.926,60.451,8.66L60.451,8.66z"></path>
    </g>
    <g>
     <path d="M73.937,12.256c-0.268-0.011-0.472-0.236-0.465-0.505l0.11-2.632c0.013-0.269,0.238-0.477,0.504-0.465      l0,0c0.271,0.011,0.477,0.236,0.468,0.505l-0.11,2.633C74.431,12.06,74.205,12.268,73.937,12.256L73.937,12.256z"></path>
     <path d="M72.21,10.379c0.014-0.267,0.24-0.476,0.507-0.464l2.633,0.109c0.267,0.012,0.474,0.238,0.463,0.505l0,0      c-0.011,0.268-0.237,0.477-0.504,0.466l-2.633-0.11C72.409,10.875,72.201,10.648,72.21,10.379L72.21,10.379z"></path>
    </g>
    <g>
     <path d="M79.712,20.225c-0.327,0.037-0.623-0.198-0.658-0.527l-0.361-3.223c-0.034-0.328,0.199-0.623,0.53-0.66      l0,0c0.324-0.037,0.623,0.199,0.658,0.527l0.358,3.224C80.276,19.894,80.043,20.189,79.712,20.225L79.712,20.225z"></path>
     <path d="M77.265,18.267c-0.041-0.329,0.197-0.623,0.523-0.66l3.224-0.36c0.327-0.037,0.623,0.199,0.658,0.528      l0,0c0.039,0.328-0.197,0.623-0.523,0.66l-3.225,0.36C77.594,18.832,77.299,18.595,77.265,18.267L77.265,18.267z"></path>
    </g>
    <g>
     <path d="M70.417,40.336c-0.256,0.213-0.632,0.18-0.844-0.074l-2.08-2.486c-0.21-0.253-0.179-0.629,0.074-0.842      l0,0c0.253-0.211,0.63-0.18,0.842,0.076l2.079,2.486C70.704,39.75,70.668,40.125,70.417,40.336L70.417,40.336z"></path>
     <path d="M67.29,40.061c-0.21-0.254-0.18-0.631,0.076-0.843l2.485-2.081c0.251-0.213,0.628-0.179,0.84,0.074l0,0      c0.212,0.254,0.18,0.631-0.073,0.842l-2.486,2.082C67.879,40.346,67.502,40.315,67.29,40.061L67.29,40.061z"></path>
    </g>
    <g>
     <path d="M85.095,28.948c-0.203,0.172-0.511,0.145-0.682-0.063l-1.686-2.014c-0.173-0.205-0.149-0.51,0.059-0.683      l0,0c0.206-0.173,0.509-0.144,0.682,0.062l1.688,2.014C85.328,28.47,85.301,28.776,85.095,28.948L85.095,28.948z"></path>
     <path d="M82.559,28.723c-0.168-0.206-0.143-0.51,0.063-0.684l2.014-1.686c0.206-0.173,0.511-0.146,0.685,0.061      l0,0c0.171,0.205,0.145,0.512-0.061,0.682l-2.015,1.688C83.037,28.956,82.734,28.928,82.559,28.723L82.559,28.723z"></path>
    </g>
    <g>
     <path d="M56.684,4.775c0.003,0.267-0.212,0.488-0.478,0.491l-2.629,0.03c-0.269,0.004-0.487-0.209-0.491-0.476      l0,0c-0.002-0.269,0.212-0.488,0.479-0.49l2.629-0.034C56.461,4.294,56.68,4.508,56.684,4.775L56.684,4.775z"></path>
     <path d="M54.907,6.597C54.64,6.6,54.421,6.385,54.414,6.118l-0.03-2.629C54.38,3.223,54.594,3.002,54.86,3l0,0      c0.271-0.003,0.488,0.21,0.493,0.478l0.03,2.627C55.388,6.374,55.174,6.593,54.907,6.597L54.907,6.597z"></path>
    </g>
    <g>
     <path d="M72.847,17.453c-0.071,0.259-0.338,0.408-0.598,0.336l-2.531-0.712      c-0.258-0.071-0.404-0.338-0.335-0.595l0,0c0.071-0.26,0.342-0.408,0.599-0.335l2.529,0.709      C72.769,16.93,72.92,17.197,72.847,17.453L72.847,17.453z"></path>
     <path d="M70.629,18.701c-0.256-0.074-0.407-0.341-0.338-0.6l0.714-2.53c0.071-0.256,0.338-0.407,0.598-0.334l0,0      c0.257,0.073,0.406,0.339,0.335,0.597l-0.709,2.531C71.154,18.622,70.889,18.772,70.629,18.701L70.629,18.701z"></path>
    </g>
    <g>
     <path d="M71.804,45.444c-0.201,0.172-0.509,0.146-0.68-0.061l-1.689-2.016c-0.171-0.204-0.146-0.51,0.061-0.682      l0,0c0.205-0.172,0.511-0.145,0.684,0.061l1.686,2.016C72.037,44.968,72.009,45.274,71.804,45.444L71.804,45.444z"></path>
     <path d="M69.272,45.219c-0.174-0.205-0.149-0.51,0.058-0.682l2.017-1.687c0.206-0.173,0.509-0.146,0.684,0.061      l0,0c0.171,0.206,0.146,0.511-0.061,0.683l-2.019,1.687C69.75,45.454,69.443,45.426,69.272,45.219L69.272,45.219z"></path>
    </g>
    <g>
     <path d="M76.672,38.092c-0.203,0.171-0.511,0.145-0.682-0.061l-1.686-2.016      c-0.175-0.205-0.149-0.511,0.059-0.682l0,0c0.205-0.172,0.508-0.146,0.682,0.061l1.686,2.016      C76.903,37.616,76.875,37.92,76.672,38.092L76.672,38.092z"></path>
     <path d="M74.138,37.868c-0.173-0.206-0.146-0.512,0.059-0.682l2.017-1.688c0.206-0.172,0.509-0.145,0.684,0.061      l0,0c0.171,0.205,0.146,0.51-0.061,0.682l-2.014,1.688C74.616,38.1,74.309,38.073,74.138,37.868L74.138,37.868z"></path>
    </g>
    <g>
     <path d="M65.644,13.651c0.4,0.173,0.58,0.634,0.411,1.033l-1.688,3.925c-0.169,0.4-0.634,0.584-1.032,0.413l0,0      c-0.402-0.172-0.584-0.633-0.411-1.033l1.686-3.925C64.78,13.665,65.243,13.479,65.644,13.651L65.644,13.651z"></path>
     <path d="M67.176,17.492c-0.174,0.399-0.639,0.582-1.034,0.411l-3.93-1.686c-0.396-0.172-0.582-0.634-0.406-1.034      l0,0c0.171-0.4,0.632-0.585,1.029-0.414l3.925,1.687C67.16,16.629,67.347,17.091,67.176,17.492L67.176,17.492z"></path>
    </g>
    <g>
     <path d="M69.41,34.577c-0.396,0.178-0.86-0.002-1.031-0.402l-1.731-3.906c-0.175-0.398,0.007-0.861,0.402-1.038      l0,0c0.398-0.175,0.861,0.005,1.039,0.402l1.727,3.906C69.99,33.937,69.811,34.402,69.41,34.577L69.41,34.577z"></path>
     <path d="M65.56,33.085c-0.178-0.397,0.002-0.864,0.4-1.04l3.907-1.725c0.398-0.177,0.861,0.003,1.036,0.402l0,0      c0.176,0.398-0.002,0.863-0.4,1.037l-3.907,1.727C66.199,33.663,65.734,33.483,65.56,33.085L65.56,33.085z"></path>
    </g>
    <g>
     <path d="M77.565,28.624c0.162,0.209,0.125,0.514-0.087,0.678l-2.072,1.614c-0.217,0.163-0.52,0.126-0.682-0.087      l0,0c-0.164-0.211-0.128-0.515,0.084-0.68l2.077-1.611C77.096,28.374,77.4,28.413,77.565,28.624L77.565,28.624z"></path>
     <path d="M77.245,31.145c-0.21,0.166-0.515,0.129-0.68-0.084l-1.609-2.076c-0.167-0.211-0.128-0.515,0.084-0.679      l0,0c0.21-0.165,0.516-0.127,0.68,0.085l1.614,2.076C77.5,30.678,77.459,30.983,77.245,31.145L77.245,31.145z"></path>
    </g>
    <path d="M62.972,23.05c-0.121-0.384-0.4-0.679-0.854-0.899c-0.429-0.175-0.879-0.338-1.351-0.494     c-0.08-0.395-0.162-0.781-0.242-1.16c-0.221-0.82-1.449-1.383-1.718-0.948c-0.069,0.108-0.05,0.237-0.037,0.313     c0.089,0.422,0.178,0.857,0.271,1.301c-0.513-0.127-1.045-0.246-1.595-0.352c-0.145-0.016-0.346-0.035-0.513,0.048     c-0.582,0.286-0.279,1.447,0.881,1.683c0.539,0.063,1.063,0.134,1.566,0.216c0.084,0.397,0.167,0.8,0.258,1.21     c0.015,0.072,0.03,0.145,0.045,0.219c0.16,0.602,0.662,0.829,0.935,0.87c0.353,0.05,0.813-0.132,0.723-0.698     c-0.013-0.063-0.025-0.129-0.039-0.194c-0.08-0.366-0.157-0.728-0.229-1.081c0.456,0.104,0.897,0.218,1.313,0.34     C62.954,23.543,62.991,23.268,62.972,23.05z"></path>
    <path d="M61.863,36.956c-0.205,0.385-0.157,0.674-0.145,0.77c0.098,0.436,0.19,0.863,0.279,1.285     c-0.413,0.336-0.853,0.666-1.31,0.994c-0.153,0.127-0.556,0.463-0.645,1.033c-0.08,0.482,0.192,1.09,0.984,0.535     c0.45-0.369,0.879-0.742,1.283-1.117c0.089,0.402,0.173,0.798,0.258,1.184c0.134,0.467,0.547,0.191,0.746-0.018     c0.272-0.289,0.639-0.947,0.563-1.445c-0.078-0.346-0.153-0.698-0.231-1.059c0.355-0.385,0.688-0.774,0.993-1.165     c0.313-0.439,0.443-0.839,0.4-1.216c-0.061-0.178-0.197-0.367-0.649,0.066c-0.315,0.344-0.657,0.686-1.021,1.025     c-0.084-0.378-0.166-0.76-0.25-1.149C62.95,36.063,62.206,36.326,61.863,36.956z"></path>
    <path d="M47.445,16.935c-0.477,0.366-0.173,1.428,1.157,1.687c0.658,0.08,1.305,0.173,1.935,0.279     c0.105,0.512,0.219,1.038,0.331,1.575c0.184,0.684,0.817,0.984,1.164,1.055c0.459,0.095,1.063-0.07,0.961-0.732     c-0.106-0.502-0.21-0.991-0.308-1.467c0.593,0.137,1.173,0.289,1.737,0.456c0.589,0.13,0.846-0.005,0.812-0.427     c-0.149-0.469-0.521-0.82-1.13-1.08c-0.57-0.204-1.155-0.39-1.761-0.566c-0.093-0.445-0.182-0.881-0.271-1.299     c-0.267-0.956-1.891-1.488-2.166-0.924c-0.052,0.102-0.039,0.188-0.025,0.282c0.093,0.45,0.19,0.915,0.292,1.396     c-0.637-0.14-1.29-0.263-1.952-0.371C47.969,16.774,47.686,16.75,47.445,16.935z"></path>
    <path d="M53.021,39.366c0.587-0.254,1.158-0.512,1.71-0.773c0.119,0.554,0.237,1.102,0.354,1.64     c0.182,0.66,0.735,0.59,1.034,0.441c0.398-0.194,0.911-0.778,0.803-1.474c-0.112-0.503-0.223-1.012-0.331-1.527     c0.509-0.266,1-0.533,1.47-0.804c0.479-0.331,0.686-0.751,0.627-1.278c-0.156-0.473-0.48-0.611-0.993-0.427     c-0.482,0.226-0.98,0.452-1.501,0.677c-0.113-0.529-0.226-1.064-0.345-1.607c-0.246-0.922-1.344-0.883-1.776-0.143     c-0.207,0.361-0.158,0.676-0.134,0.812c0.123,0.579,0.246,1.155,0.37,1.725c-0.561,0.223-1.141,0.446-1.733,0.667     c-0.233,0.113-0.476,0.23-0.68,0.588C51.491,38.595,51.82,39.756,53.021,39.366z"></path>
    <path d="M58.908,53.349c0.407-0.473,0.829-1.163,0.799-1.45c-0.048-0.205-0.098-0.428-0.154-0.667     c0.446-0.565,0.87-1.143,1.271-1.733c0.404-0.634,0.602-1.116,0.588-1.434c-0.097-0.184-0.342,0.002-0.778,0.584     c-0.407,0.568-0.835,1.126-1.285,1.669c-0.061-0.278-0.128-0.577-0.197-0.888c-0.155-0.49-1.097,0.289-1.508,1.11     c-0.197,0.4-0.171,0.593-0.162,0.675c0.075,0.337,0.145,0.654,0.214,0.955c-0.5,0.514-1.017,1.014-1.554,1.496     c-0.718,0.693-0.828,1.111-0.842,1.259c-0.017,0.2,0.139,0.589,1.073-0.228c0.535-0.5,1.048-1.017,1.543-1.547     c0.059,0.257,0.112,0.496,0.16,0.715C58.173,54.112,58.661,53.635,58.908,53.349z"></path>
    <path d="M40.459,11.836c-0.279,0.003-0.595,0.006-0.87,0.205c-0.6,0.424-0.201,1.368,1.227,1.511     c0.74,0.026,1.472,0.07,2.192,0.133c0.104,0.498,0.21,1.012,0.324,1.544c0.184,0.669,0.909,0.949,1.312,1.01     c0.536,0.082,1.253-0.105,1.157-0.775c-0.108-0.511-0.208-1.002-0.308-1.478c0.697,0.107,1.385,0.233,2.058,0.376     c0.712,0.106,1.032-0.05,1.011-0.49c-0.169-0.473-0.602-0.812-1.326-1.036c-0.68-0.167-1.372-0.316-2.075-0.443     c-0.089-0.436-0.175-0.855-0.257-1.254c-0.26-0.894-2.121-1.258-2.469-0.691c-0.061,0.101-0.052,0.182-0.041,0.267     c0.084,0.417,0.175,0.853,0.271,1.307C41.938,11.939,41.203,11.877,40.459,11.836z"></path>
    <path d="M52.591,32.933c-0.206-0.636-0.626-0.907-1.29-0.827c-0.614,0.139-1.242,0.278-1.889,0.422     c-0.139-0.656-0.281-1.316-0.422-1.98c-0.32-1.207-1.753-1.293-2.223-0.393c-0.186,0.35-0.134,0.666-0.107,0.818     c0.149,0.693,0.296,1.383,0.441,2.068c-0.678,0.15-1.368,0.303-2.068,0.456c-0.273,0.09-0.557,0.183-0.797,0.558     c-0.465,0.725-0.127,2.115,1.322,1.9c0.699-0.176,1.381-0.353,2.051-0.527c0.146,0.677,0.29,1.348,0.436,2.014     c0.221,0.82,0.904,0.9,1.274,0.816c0.499-0.109,1.136-0.654,0.997-1.514c-0.139-0.639-0.274-1.282-0.415-1.93     c0.638-0.175,1.263-0.35,1.869-0.521C52.396,34.045,52.666,33.6,52.591,32.933z"></path>
    <path d="M48.572,55.388c-0.143,0.474,0.174,1.054,1.313,0.522c0.658-0.354,1.301-0.729,1.926-1.119     c0.089,0.412,0.178,0.807,0.26,1.18c0.145,0.445,0.783,0.178,1.097-0.027c0.461-0.293,1.073-0.938,1.009-1.448     c-0.08-0.358-0.165-0.736-0.254-1.13l0,0c0.585-0.426,1.153-0.865,1.696-1.32c0.569-0.52,0.824-1,0.79-1.465     c-0.149-0.369-0.498-0.344-1.097,0.077c-0.55,0.434-1.121,0.851-1.707,1.256c-0.098-0.435-0.197-0.884-0.297-1.349     c-0.24-0.813-1.543-0.285-2.01,0.617c-0.182,0.35-0.147,0.578-0.132,0.688c0.108,0.484,0.21,0.955,0.312,1.409     c-0.63,0.372-1.274,0.731-1.937,1.071C49.323,54.481,48.743,54.827,48.572,55.388z"></path>
    <path d="M31.358,8.813c-0.374,0.394-0.064,1.057,1.365,0.968c0.783-0.091,1.563-0.155,2.339-0.194     c0.085,0.42,0.176,0.864,0.271,1.327c0.173,0.579,0.948,0.752,1.381,0.764c0.586,0.015,1.376-0.233,1.302-0.835     c-0.097-0.456-0.184-0.888-0.268-1.301c0.762,0.015,1.517,0.054,2.261,0.113c0.794,0.025,1.164-0.147,1.162-0.542     c-0.162-0.41-0.632-0.667-1.433-0.785c-0.749-0.073-1.506-0.121-2.27-0.145c-0.076-0.365-0.143-0.707-0.208-1.026     c-0.24-0.751-2.382-0.711-2.67-0.176c-0.036,0.067-0.03,0.125-0.028,0.171c0.065,0.325,0.139,0.676,0.215,1.046     c-0.774,0.035-1.559,0.093-2.342,0.177C32.202,8.415,31.655,8.504,31.358,8.813z"></path>
    <path d="M37.237,31.249c0.768-0.154,1.531-0.305,2.282-0.447c0.16,0.748,0.32,1.496,0.479,2.24     c0.244,0.924,1.025,1.09,1.445,1.043c0.569-0.064,1.298-0.594,1.138-1.572c-0.153-0.729-0.31-1.463-0.465-2.195     c0.729-0.132,1.447-0.258,2.157-0.382c0.744-0.208,1.052-0.665,0.965-1.44c-0.238-0.748-0.727-1.098-1.499-1.069     c-0.714,0.099-1.435,0.204-2.171,0.32c-0.127-0.602-0.255-1.203-0.385-1.802c-0.026-0.135-0.054-0.271-0.084-0.404     c-0.347-1.303-1.947-1.438-2.486-0.485c-0.21,0.366-0.153,0.706-0.13,0.868c0.03,0.137,0.059,0.275,0.089,0.414     c0.13,0.611,0.26,1.225,0.39,1.838c-0.753,0.132-1.52,0.27-2.289,0.416c-0.301,0.089-0.608,0.18-0.872,0.574     C35.299,29.911,35.671,31.403,37.237,31.249z"></path>
    <path d="M43.644,49.988c0.134,0.608,0.262,1.208,0.39,1.787c-0.729,0.247-1.476,0.479-2.229,0.698     c-0.223,0.082-0.746,0.275-1.006,0.758c-0.329,0.617,0.043,1.543,1.44,1.242c0.753-0.225,1.495-0.463,2.225-0.719     c0.119,0.543,0.235,1.074,0.349,1.586c0.188,0.627,0.917,0.569,1.319,0.438c0.545-0.179,1.268-0.74,1.166-1.43     c-0.11-0.502-0.223-1.02-0.342-1.555c0.694-0.291,1.378-0.597,2.043-0.916c0.692-0.398,1.004-0.883,0.949-1.488     c-0.194-0.534-0.64-0.666-1.36-0.402c-0.671,0.303-1.354,0.592-2.054,0.869c-0.123-0.568-0.251-1.151-0.381-1.748     c-0.299-1.059-1.828-0.838-2.367,0.1C43.581,49.571,43.624,49.852,43.644,49.988z"></path>
    <path d="M51.201,61.676c-0.645,0.41-1.307,0.795-1.988,1.158c-0.021-0.076-0.048-0.181-0.078-0.314     c-0.201-0.348-2.399,0.896-2.447,1.138c-0.002,0.008-0.002,0.019-0.002,0.026c0.035,0.137,0.061,0.243,0.082,0.32     c-0.718,0.307-1.449,0.59-2.195,0.844c-1.141,0.396-1.197,0.461-1.258,0.535c0.277-0.039,0.816-0.212,1.305-0.377     c0.747-0.255,1.479-0.536,2.196-0.844c0.005,0.004,0.005,0.005,0.005,0.005c0.107-0.052,0.227-0.107,0.344-0.161     c0.431-0.191,0.854-0.391,1.274-0.601c0.294-0.142,0.577-0.28,0.826-0.413c0,0-0.002-0.002-0.004-0.004     c0.682-0.365,1.341-0.752,1.988-1.16c0.904-0.584,1.008-0.695,1.093-0.785C52.26,61.042,51.9,61.243,51.201,61.676z"></path>
    <path d="M23.182,8.083c-0.186,0.282,0.014,0.644,1.324,0.252c0.745-0.252,1.504-0.48,2.278-0.684     c0.061,0.301,0.126,0.626,0.195,0.974c0.139,0.425,0.919,0.409,1.358,0.332c0.604-0.105,1.435-0.465,1.394-0.937     c-0.069-0.347-0.137-0.673-0.197-0.974c0.792-0.141,1.58-0.253,2.365-0.338c0.829-0.119,1.244-0.321,1.271-0.618     c-0.144-0.283-0.621-0.393-1.459-0.334c-0.789,0.081-1.577,0.192-2.367,0.332c-0.047-0.243-0.093-0.466-0.127-0.662     c-0.201-0.481-2.549,0.165-2.737,0.532c-0.011,0.021-0.015,0.052-0.013,0.075c0.034,0.194,0.078,0.416,0.127,0.661     c-0.771,0.205-1.531,0.434-2.28,0.691C24.091,7.468,23.416,7.728,23.182,8.083z"></path>
    <path d="M36.761,23.366c-0.242-0.748-0.77-1.081-1.611-1.02c-0.774,0.129-1.558,0.271-2.346,0.428     c-0.149-0.703-0.294-1.392-0.435-2.063c-0.327-1.196-2.006-1.168-2.597-0.219c-0.223,0.361-0.178,0.667-0.153,0.814     c0.139,0.672,0.283,1.358,0.433,2.063c-0.779,0.183-1.545,0.375-2.302,0.578c-0.29,0.109-0.596,0.221-0.853,0.611     c-0.485,0.734-0.132,2.133,1.382,1.895c0.76-0.193,1.528-0.381,2.305-0.561c0.134,0.629,0.269,1.269,0.409,1.918     c0.021,0.114,0.047,0.229,0.071,0.344c0.251,0.945,1.07,1.109,1.515,1.059c0.61-0.071,1.401-0.629,1.237-1.652     c-0.023-0.113-0.048-0.23-0.073-0.344c-0.135-0.65-0.272-1.29-0.405-1.918c0.786-0.158,1.566-0.307,2.342-0.439     C36.486,24.635,36.841,24.147,36.761,23.366z"></path>
    <path d="M42.025,47.969c-0.231-0.671-0.744-0.925-1.571-0.782c-0.761,0.2-1.531,0.391-2.314,0.569     c-0.144-0.666-0.29-1.346-0.438-2.035c-0.342-1.229-2.022-1.217-2.609-0.248c-0.219,0.365-0.169,0.68-0.146,0.829     c0.146,0.688,0.296,1.368,0.438,2.034c-0.783,0.152-1.564,0.287-2.336,0.41c-0.301,0.074-0.613,0.152-0.879,0.482     c-0.518,0.635-0.199,1.889,1.372,1.79c0.774-0.116,1.553-0.248,2.341-0.396c0.137,0.639,0.274,1.266,0.406,1.879     c0.215,0.757,1.023,0.863,1.468,0.808c0.609-0.079,1.412-0.562,1.287-1.388c-0.132-0.612-0.269-1.238-0.409-1.879     c0.785-0.18,1.554-0.376,2.313-0.582C41.742,49.172,42.093,48.684,42.025,47.969z"></path>
    <path d="M45.443,63.471c-0.134-0.201-0.575-0.182-1.391,0.061c-0.749,0.246-1.517,0.468-2.294,0.664     c-0.058-0.244-0.118-0.514-0.186-0.809c-0.236-0.639-2.451-0.145-2.73,0.406c-0.037,0.07-0.03,0.119-0.026,0.164     c0.067,0.295,0.128,0.564,0.185,0.809c-0.79,0.129-1.575,0.229-2.361,0.301c-0.235,0.026-0.956,0.111-1.202,0.336     c-0.199,0.182-0.003,0.483,1.373,0.401c0.788-0.069,1.575-0.167,2.363-0.294c0.043,0.178,0.08,0.325,0.108,0.443     c0.088,0.141,0.853,0.035,1.289-0.049c0.602-0.113,1.456-0.353,1.472-0.521c-0.03-0.118-0.067-0.267-0.11-0.446     c0.778-0.193,1.542-0.418,2.295-0.668C45.018,63.983,45.416,63.721,45.443,63.471z"></path>
    <path d="M28.142,19.116c-0.221-0.645-0.731-0.878-1.556-0.708c-0.753,0.22-1.491,0.455-2.221,0.701     c-0.125-0.596-0.244-1.174-0.361-1.732c-0.274-0.979-1.78-0.677-2.328,0.24c-0.203,0.344-0.168,0.597-0.151,0.719     c0.115,0.547,0.231,1.112,0.355,1.694c-0.692,0.279-1.374,0.571-2.038,0.875c-0.193,0.106-0.649,0.359-0.859,0.883     c-0.262,0.635,0.041,1.586,1.287,1.174c0.671-0.284,1.357-0.559,2.052-0.82c0.132,0.621,0.266,1.259,0.402,1.916     c0.221,0.809,0.958,0.873,1.36,0.783c0.559-0.125,1.285-0.711,1.147-1.619c-0.146-0.668-0.279-1.322-0.411-1.958     c0.727-0.235,1.469-0.461,2.222-0.675C27.838,20.292,28.199,19.811,28.142,19.116z"></path>
    <path d="M26.451,41.585c0.154,0.705,0.306,1.406,0.455,2.098c-0.731,0.106-1.452,0.206-2.164,0.296     c-0.192,0.045-0.435,0.098-0.647,0.286c-0.729,0.645-0.342,2.049,1.149,2.046c0.714-0.069,1.441-0.149,2.175-0.238     c0.143,0.672,0.285,1.337,0.428,1.992c0.223,0.816,0.995,1.023,1.413,1.014c0.586-0.012,1.346-0.43,1.203-1.326     c-0.143-0.668-0.29-1.348-0.438-2.035c0.756-0.114,1.52-0.236,2.292-0.371c0.813-0.221,1.168-0.703,1.088-1.477     c-0.247-0.746-0.776-1.072-1.623-0.996c-0.77,0.143-1.529,0.277-2.282,0.402c-0.151-0.706-0.305-1.422-0.461-2.142     c-0.344-1.282-1.932-1.353-2.462-0.386C26.376,41.11,26.43,41.432,26.451,41.585z"></path>
    <path d="M37.558,62.891c-0.169-0.368-0.667-0.523-1.521-0.475c-0.778,0.08-1.558,0.133-2.332,0.162     c-0.082-0.376-0.171-0.77-0.265-1.186c-0.281-0.891-2.271-0.92-2.639-0.26c-0.061,0.114-0.053,0.194-0.039,0.279     c0.088,0.407,0.175,0.795,0.255,1.16c-0.762-0.031-1.515-0.086-2.259-0.166c-0.223-0.012-0.742-0.045-1.017,0.136     c-0.342,0.226-0.11,0.8,1.274,1.026c0.75,0.089,1.508,0.154,2.27,0.193c0.071,0.314,0.136,0.605,0.199,0.873     c0.123,0.336,0.88,0.467,1.307,0.492c0.597,0.034,1.417-0.08,1.391-0.443c-0.064-0.273-0.132-0.57-0.203-0.891     c0.777-0.021,1.554-0.072,2.337-0.146C37.15,63.527,37.555,63.28,37.558,62.891z"></path>
    <path d="M20.095,16.837c-0.184-0.493-0.621-0.578-1.337-0.256c-0.651,0.346-1.29,0.707-1.908,1.083     c-0.094-0.452-0.185-0.885-0.269-1.3c-0.21-0.706-1.476-0.055-1.947,0.825c-0.176,0.328-0.154,0.516-0.144,0.607     c0.083,0.396,0.169,0.812,0.258,1.243c-0.577,0.409-1.138,0.83-1.679,1.264c-0.176,0.156-0.641,0.576-0.769,1.146     c-0.095,0.439,0.121,1,1.082,0.366c0.548-0.409,1.112-0.808,1.694-1.192c0.1,0.471,0.199,0.96,0.308,1.465     c0.168,0.61,0.789,0.504,1.127,0.346c0.48-0.221,1.105-0.859,1.002-1.583c-0.11-0.528-0.219-1.04-0.318-1.532     c0.621-0.358,1.262-0.701,1.917-1.031C19.812,17.879,20.131,17.403,20.095,16.837z"></path>
    <path d="M19.865,43.211c0.212,0.789,0.9,1,1.272,1c0.523-0.002,1.203-0.398,1.06-1.279     c-0.143-0.663-0.285-1.33-0.428-2.002c-0.792,0.129-1.563,0.253-2.315,0.366C19.593,41.94,19.729,42.579,19.865,43.211z"></path>
    <path d="M16.553,39.711c-0.614,0.637-0.271,1.917,1.013,1.864c0.614-0.088,1.244-0.18,1.889-0.279     c0.753-0.113,1.523-0.237,2.315-0.366l0,0c0.675-0.111,1.36-0.228,2.062-0.348c0.74-0.207,1.061-0.686,0.974-1.457     c-0.238-0.746-0.727-1.07-1.497-0.99c-0.694,0.145-1.378,0.285-2.047,0.424c-0.147-0.682-0.292-1.368-0.439-2.057     c-0.305-1.145-1.614-1.203-2.122-0.344c-0.233,0.395-0.176,0.75-0.151,0.902c0.143,0.656,0.279,1.313,0.422,1.968     c-0.637,0.13-1.26,0.255-1.867,0.379C16.938,39.458,16.732,39.524,16.553,39.711z"></path>
    <path d="M29.272,59.761c-0.184-0.487-0.671-0.774-1.479-0.876c-0.735-0.049-1.465-0.121-2.184-0.211     c-0.1-0.451-0.203-0.919-0.309-1.402c-0.297-1.021-2.132-1.324-2.441-0.642c-0.052,0.116-0.036,0.206-0.025,0.302     c0.102,0.461,0.199,0.908,0.296,1.34c-0.694-0.139-1.378-0.295-2.051-0.471c-0.251-0.053-0.539-0.113-0.781-0.024     c-0.525,0.189-0.188,0.954,1.086,1.399c0.676,0.199,1.363,0.377,2.064,0.535c0.084,0.392,0.169,0.766,0.247,1.121     c0.145,0.461,0.883,0.769,1.25,0.867c0.561,0.148,1.317,0.139,1.257-0.35c-0.082-0.372-0.171-0.762-0.262-1.172     c0.723,0.108,1.456,0.195,2.196,0.26C28.927,60.459,29.301,60.239,29.272,59.761z"></path>
    <path d="M26.689,65.75l0.054,0.015l-1.519-0.427C25.686,65.479,26.177,65.62,26.689,65.75z"></path>
    <path d="M9.105,19.776c0.05,0.245,0.102,0.504,0.158,0.779c-0.443,0.543-0.863,1.102-1.26,1.666     c-0.675,1.028-0.593,1.434-0.586,1.45c0.028,0.116,0.16,0.3,0.781-0.487c0.404-0.543,0.83-1.074,1.276-1.596     c0.063,0.314,0.132,0.643,0.203,0.988c0.117,0.396,0.593,0.1,0.856-0.137c0.351-0.315,0.881-1.017,0.808-1.563     c-0.076-0.37-0.147-0.723-0.217-1.062c0.496-0.492,1.011-0.972,1.545-1.437c0.58-0.547,0.844-0.998,0.831-1.418     c-0.139-0.32-0.489-0.238-1.068,0.248c-0.533,0.486-1.046,0.983-1.537,1.498c-0.061-0.298-0.116-0.576-0.168-0.837     c-0.135-0.401-1.043,0.502-1.456,1.326C9.086,19.57,9.097,19.715,9.105,19.776z"></path>
    <path d="M10.478,36.416c-0.461,0.649-0.185,1.687,0.812,1.46c0.482-0.164,0.984-0.33,1.508-0.498     c0.116,0.559,0.233,1.115,0.354,1.669c0.226,0.86,1.023,0.793,1.056,0.788c0.439-0.043,0.998-0.461,0.868-1.258     c-0.128-0.596-0.253-1.194-0.383-1.793c0.563-0.172,1.145-0.345,1.741-0.519c0.63-0.258,0.898-0.729,0.815-1.44     c-0.214-0.678-0.634-0.932-1.289-0.774c-0.589,0.212-1.16,0.422-1.714,0.634c-0.104-0.49-0.21-0.982-0.313-1.471     c-0.023-0.111-0.046-0.223-0.069-0.332c-0.249-0.943-1.229-0.831-1.675-0.045c-0.242,0.426-0.186,0.79-0.164,0.911     c0.02,0.102,0.043,0.204,0.064,0.308c0.098,0.456,0.192,0.912,0.292,1.369c-0.515,0.21-1.008,0.422-1.479,0.633     C10.768,36.135,10.613,36.221,10.478,36.416z"></path>
    <path d="M21.59,55.002c-0.187-0.533-0.625-0.877-1.353-1.052c-0.657-0.114-1.305-0.245-1.935-0.39     c-0.104-0.467-0.205-0.941-0.312-1.432c-0.264-0.946-1.759-1.399-2.085-0.822c-0.076,0.133-0.055,0.271-0.044,0.352     c0.1,0.453,0.195,0.898,0.292,1.331c-0.597-0.181-1.179-0.376-1.741-0.587c-0.21-0.065-0.448-0.139-0.647-0.068     c-0.417,0.148-0.112,0.915,0.945,1.438c0.571,0.246,1.16,0.477,1.762,0.69c0.091,0.405,0.178,0.8,0.262,1.181     c0.143,0.502,0.794,0.895,1.114,1.035c0.493,0.214,1.153,0.27,1.075-0.267c-0.089-0.409-0.182-0.833-0.276-1.269     c0.638,0.175,1.289,0.333,1.953,0.475C21.309,55.716,21.633,55.516,21.59,55.002z"></path>
    <path d="M20.488,63.344c-0.015-0.063-0.034-0.148-0.064-0.258c-0.121-0.256-2.138-1.352-2.294-1.248     c0,0.006-0.002,0.012,0,0.016c0.024,0.102,0.043,0.18,0.059,0.237c-0.641-0.384-1.268-0.791-1.883-1.218     c-0.938-0.658-0.94-0.66-1.013-0.676c0.295,0.247,0.82,0.623,1.048,0.783c0.612,0.432,1.242,0.842,1.885,1.229     c0,0,0.002,0,0.004,0.002c0.023,0.015,0.05,0.028,0.076,0.044c0.521,0.311,1.051,0.602,1.586,0.88     c0.223,0.121,0.441,0.235,0.64,0.335c0,0-0.002,0-0.004-0.002c0.673,0.332,1.361,0.641,2.058,0.924     c0.989,0.398,1.125,0.418,1.212,0.429c-0.085-0.067-0.461-0.235-1.251-0.561C21.848,63.98,21.163,63.672,20.488,63.344z"></path>
    <path d="M6.366,22.026c-0.167-0.043-1.091,1.973-1.073,2.346c0.021,0.107,0.046,0.23,0.073,0.367l0,0     c-0.283,0.664-0.543,1.338-0.776,2.022c-0.301,0.927-0.342,1.284-0.34,1.413c0.016,0,0.035-0.004,0.044-0.007     c0.088-0.146,0.166-0.315,0.392-0.934c0.235-0.664,0.499-1.319,0.785-1.966c0.032,0.166,0.071,0.346,0.108,0.539     c0.077,0.229,0.472-0.467,0.552-0.607c0.212-0.383,0.602-1.197,0.563-1.547c-0.044-0.217-0.083-0.418-0.121-0.604     c0.342-0.623,0.709-1.234,1.099-1.833c0.433-0.693,0.628-1.121,0.63-1.39c-0.007-0.015-0.02-0.034-0.028-0.048     c-0.188-0.002-0.474,0.398-0.729,0.791c-0.387,0.614-0.748,1.244-1.09,1.885c-0.03-0.152-0.055-0.29-0.078-0.412     C6.373,22.037,6.371,22.032,6.366,22.026z"></path>
    <path d="M7.801,36.429c0.013,0.063,0.023,0.127,0.041,0.189c0.167,0.642,0.74,0.417,0.766,0.407     c0.299-0.121,0.733-0.563,0.623-1.236c-0.013-0.07-0.027-0.144-0.045-0.214c-0.084-0.404-0.169-0.8-0.251-1.19     c0.415-0.281,0.851-0.561,1.305-0.837c0.486-0.356,0.69-0.81,0.625-1.387c-0.164-0.512-0.486-0.616-0.986-0.32     c-0.446,0.322-0.872,0.647-1.274,0.974c-0.096-0.436-0.184-0.863-0.271-1.279c-0.158-0.572-0.701-0.314-1.05,0.281     c-0.116,0.205-0.307,0.606-0.244,1.012c0.078,0.373,0.158,0.752,0.24,1.142c-0.353,0.333-0.682,0.665-0.986,1     c-0.098,0.121-0.351,0.438-0.398,0.887c-0.032,0.306,0.084,0.796,0.662,0.356c0.313-0.283,0.655-0.564,1.02-0.846     C7.649,35.715,7.723,36.069,7.801,36.429z"></path>
    <path d="M14.623,49.731c-0.165-0.502-0.537-0.832-1.139-1.01c-0.538-0.118-1.063-0.248-1.566-0.389     c-0.091-0.414-0.182-0.838-0.274-1.264c-0.228-0.84-1.374-1.206-1.63-0.696C9.962,46.485,9.979,46.6,9.99,46.668     c0.082,0.38,0.162,0.756,0.242,1.125c-0.458-0.166-0.896-0.345-1.313-0.535c-0.155-0.057-0.328-0.125-0.474-0.078     c-0.296,0.098-0.066,0.718,0.717,1.205c0.428,0.237,0.876,0.463,1.343,0.674c0.078,0.354,0.154,0.701,0.228,1.039     c0.126,0.452,0.643,0.851,0.896,0.996c0.461,0.264,0.92,0.271,0.851-0.174c-0.082-0.382-0.169-0.77-0.253-1.168     c0.515,0.185,1.045,0.356,1.595,0.515C14.408,50.389,14.67,50.215,14.623,49.731z"></path>
    <path d="M16.047,60.329c0.437,0.296,0.707,0.455,0.956,0.518c0.021-0.014,0.043-0.031,0.064-0.045     c-0.105-0.199-0.456-0.5-1.138-0.973c-0.604-0.41-1.192-0.837-1.766-1.287c-0.035-0.15-0.071-0.318-0.117-0.503     c-0.151-0.446-1.8-1.745-1.91-1.638c-0.009,0.008-0.007,0.029-0.007,0.041c0.039,0.164,0.074,0.313,0.104,0.447     c-0.532-0.494-1.043-1.01-1.536-1.543c-0.699-0.751-0.74-0.758-0.801-0.771c0.039,0.087,0.205,0.368,0.887,1.136     c0.496,0.549,1.011,1.079,1.547,1.588c0.024,0.1,0.044,0.184,0.061,0.248c0.05,0.107,0.498,0.551,0.883,0.902     c0.398,0.36,0.9,0.777,1.05,0.838c0.007-0.002,0.011-0.006,0.015-0.01c-0.017-0.07-0.038-0.162-0.064-0.273     C14.848,59.467,15.438,59.909,16.047,60.329z"></path>
    <path d="M4.241,35.202c-0.168,0.462-0.313,0.928-0.431,1.393c-0.011,0.039-0.216,0.953-0.088,1.115     c0.061-0.053,0.11-0.17,0.216-0.501c0.13-0.413,0.283-0.827,0.466-1.239c0.047,0.227,0.097,0.459,0.146,0.697     c0.087,0.318,0.363-0.039,0.42-0.113c0.176-0.24,0.42-0.754,0.353-1.17c-0.061-0.292-0.119-0.576-0.18-0.854     c0.24-0.411,0.509-0.818,0.799-1.224c0.317-0.487,0.45-0.899,0.409-1.294c-0.108-0.312-0.323-0.241-0.637,0.213     c-0.276,0.451-0.536,0.906-0.768,1.365c-0.057-0.262-0.106-0.514-0.156-0.756c-0.064-0.221-0.212-0.001-0.272,0.104     c-0.238,0.406-0.454,1.299-0.407,1.645C4.157,34.783,4.2,34.989,4.241,35.202z"></path>
    <path d="M5.428,44.192c0.253,0.174,0.529,0.34,0.832,0.495c0.055,0.245,0.106,0.487,0.158,0.725     c0.087,0.329,0.438,0.646,0.608,0.767c0.367,0.257,0.638,0.214,0.582-0.092c-0.065-0.294-0.13-0.59-0.192-0.889     c0.356,0.134,0.737,0.26,1.14,0.377c0.436,0.088,0.623-0.061,0.584-0.457c-0.132-0.406-0.411-0.658-0.848-0.768     c-0.39-0.065-0.758-0.137-1.105-0.219c-0.067-0.309-0.132-0.621-0.199-0.934c-0.16-0.596-0.868-0.713-1.047-0.388     c-0.055,0.097-0.039,0.185-0.03,0.242c0.054,0.257,0.107,0.513,0.164,0.765c-0.292-0.1-0.559-0.209-0.799-0.323     c-0.088-0.036-0.184-0.077-0.264-0.054C4.841,43.492,5.017,43.879,5.428,44.192z"></path>
    <path d="M11.332,55.237c0-0.014,0.002-0.033,0.006-0.047c-0.097-0.24-0.378-0.588-0.937-1.154     c-0.48-0.479-0.943-0.973-1.38-1.484c-0.037-0.162-0.074-0.335-0.115-0.517c-0.123-0.405-1.253-1.743-1.417-1.797     c-0.002,0.005-0.007,0.01-0.013,0.017c0,0.004,0.002,0.015,0.002,0.02c0.032,0.15,0.064,0.291,0.093,0.424     c-0.385-0.549-0.751-1.113-1.095-1.692c-0.45-0.764-0.45-0.764-0.536-0.874c0.008,0.033,0.127,0.351,0.614,1.222     c0.351,0.61,0.721,1.202,1.116,1.777c0.023,0.114,0.048,0.221,0.071,0.319c0.046,0.139,0.361,0.644,0.686,1.1     c0.364,0.509,0.701,0.912,0.795,0.943c0-0.008,0.004-0.016,0.004-0.022c-0.023-0.118-0.057-0.247-0.087-0.388     c0.446,0.536,0.911,1.059,1.398,1.563C11.104,55.211,11.211,55.223,11.332,55.237z"></path>
    <path d="M3.374,39.405c0.015,0.063,0.03,0.129,0.041,0.195c0.002-0.008,0.002-0.008,0.032-0.617     c0.046-1.004,0.046-1.004,0.03-1.115c-0.025-0.117-0.052-0.232-0.071-0.342c0.041-0.537,0.112-1.072,0.212-1.605     c0.124-0.691,0.158-1.012,0.139-1.228c-0.013-0.011-0.028-0.023-0.041-0.033c-0.084,0.126-0.137,0.363-0.203,0.759     c-0.089,0.577-0.151,1.156-0.185,1.738c-0.021-0.102-0.041-0.197-0.058-0.289c-0.003-0.006-0.003-0.01-0.007-0.012     c-0.078,0.115-0.028,1.779,0.032,2.171c0.013,0.054,0.021,0.109,0.037,0.165c0.034,0.584,0.097,1.168,0.19,1.75     c0.034,0.186,0.066,0.379,0.121,0.643c-0.048-0.23-0.073-0.396-0.104-0.569C3.456,40.479,3.4,39.942,3.374,39.405z"></path>
    <path d="M3.96,42.172c0.018,0.085,0.039,0.17,0.057,0.254c0.026,0.109,0.147,0.277,0.242,0.371     c0.156,0.154,0.267,0.15,0.271,0.049c0-0.014-0.004-0.033-0.004-0.049c-0.035-0.147-0.065-0.296-0.1-0.446     c0.166,0.044,0.356,0.08,0.577,0.11c0.238,0.009,0.347-0.113,0.318-0.364c-0.119-0.371-0.385-0.358-0.474-0.353     c-0.206,0.031-0.383,0.057-0.535,0.078C4.28,41.67,4.25,41.517,4.216,41.362c-0.057-0.211-0.228-0.176-0.325-0.002     c-0.02,0.039-0.066,0.143-0.054,0.244c0.02,0.088,0.039,0.176,0.059,0.263c-0.085,0.007-0.146,0.007-0.173,0     C3.7,41.862,3.7,41.862,3.7,41.85c0.007,0.055,0.028,0.094,0.044,0.121C3.787,42.043,3.86,42.112,3.96,42.172z"></path>
    <path d="M61.502,19.35l-0.138-0.237c0.052,0.09,0.102,0.172,0.151,0.255     C61.511,19.362,61.509,19.357,61.502,19.35z"></path>
    <path d="M65.024,28.199c0.02,0.089,0.042,0.173,0.063,0.27C65.063,28.37,65.044,28.284,65.024,28.199z"></path>
    <polygon points="65.739,32.752 65.739,32.755 65.739,32.75    "></polygon>
    <path d="M51.504,8.92l-0.032-0.022c0.011,0.009,0.023,0.015,0.035,0.023C51.507,8.921,51.507,8.921,51.504,8.92z"></path>
    <path d="M63.577,30.073c-0.119-0.365-0.367-0.514-0.759-0.459c-0.373,0.09-0.771,0.184-1.188,0.283     c-0.089-0.426-0.18-0.852-0.272-1.281c-0.214-0.805-1.179-0.918-1.499-0.344c-0.128,0.23-0.094,0.458-0.076,0.555     c0.102,0.48,0.203,0.958,0.308,1.432c-0.468,0.111-0.948,0.223-1.452,0.34c-0.197,0.068-0.402,0.138-0.577,0.418     c-0.345,0.561-0.057,1.599,0.96,1.375c0.496-0.162,0.968-0.321,1.422-0.479c0.1,0.47,0.201,0.936,0.299,1.396     c0.153,0.568,0.62,0.543,0.846,0.449c0.32-0.13,0.723-0.57,0.63-1.137c-0.087-0.412-0.178-0.829-0.267-1.248     c0.402-0.15,0.788-0.299,1.149-0.443C63.465,30.741,63.621,30.461,63.577,30.073z"></path>
    <path d="M64.754,47.185c0.29-0.489,0.576-1.225,0.533-1.558c-0.055-0.23-0.108-0.475-0.163-0.729     c0.314-0.57,0.606-1.149,0.87-1.735c0.262-0.623,0.385-1.098,0.354-1.412c-0.052-0.115-0.157-0.154-0.538,0.576     c-0.275,0.551-0.573,1.097-0.894,1.635c-0.063-0.281-0.126-0.572-0.195-0.873c-0.123-0.422-0.657,0.137-0.956,0.688     c-0.13,0.239-0.34,0.695-0.283,1.064c0.071,0.336,0.145,0.662,0.214,0.977c-0.376,0.52-0.772,1.031-1.194,1.535     c-0.723,0.938-0.634,1.426-0.619,1.479c0.02,0.09,0.163,0.495,0.87-0.341c0.415-0.531,0.808-1.073,1.175-1.624     c0.061,0.284,0.126,0.558,0.18,0.815C64.2,47.96,64.545,47.538,64.754,47.185z"></path>
    <path d="M51.479,9.681c-0.34,0.174-0.074,0.798,1.196,1.229c0.68,0.201,1.353,0.424,2.008,0.666     c0.073,0.339,0.147,0.697,0.225,1.068c0.137,0.477,0.788,0.859,1.149,1.009c0.45,0.187,1.143,0.309,1.086-0.153     c-0.071-0.347-0.141-0.678-0.205-0.995c0.627,0.289,1.239,0.595,1.834,0.921c0.632,0.32,0.927,0.355,0.931,0.113     c-0.121-0.33-0.493-0.684-1.127-1.081c-0.602-0.351-1.221-0.684-1.853-0.993c-0.054-0.278-0.11-0.541-0.157-0.786     c-0.215-0.689-2.127-1.485-2.272-1.145c-0.011,0.024-0.009,0.059-0.006,0.083c0.052,0.263,0.11,0.544,0.171,0.842     c-0.662-0.263-1.34-0.505-2.025-0.726C52.225,9.678,51.738,9.546,51.479,9.681z"></path>
    <path d="M56.918,27.307c-0.171-0.539-0.528-0.826-1.093-0.877c-0.526,0.002-1.071,0.013-1.634,0.032     c-0.1-0.458-0.194-0.919-0.292-1.376c-0.023-0.104-0.043-0.207-0.065-0.309c-0.272-1.033-1.533-1.338-1.96-0.687     c-0.166,0.257-0.125,0.526-0.102,0.657c0.023,0.111,0.046,0.221,0.069,0.332c0.105,0.492,0.21,0.986,0.313,1.479     c-0.599,0.035-1.216,0.08-1.846,0.132c-0.175,0.032-0.392,0.072-0.582,0.245c-0.605,0.548-0.372,2.031,1.054,1.979     c0.623-0.088,1.231-0.167,1.824-0.244c0.13,0.603,0.258,1.205,0.385,1.804c0.195,0.743,0.797,0.878,1.119,0.841     c0.431-0.049,0.98-0.456,0.858-1.207c-0.118-0.556-0.237-1.115-0.358-1.678c0.554-0.063,1.09-0.117,1.607-0.168     C56.756,28.153,56.977,27.85,56.918,27.307z"></path>
    <path d="M53.8,47.81c-0.089,0.427,0.126,1.19,1.171,0.546c0.556-0.398,1.093-0.808,1.609-1.228     c0.098,0.439,0.19,0.864,0.279,1.274c0.146,0.496,0.682,0.203,0.938-0.02c0.37-0.318,0.861-1.02,0.772-1.572     c-0.08-0.383-0.166-0.779-0.257-1.188c0.472-0.441,0.922-0.89,1.354-1.349c0.438-0.521,0.629-0.996,0.588-1.454     c-0.134-0.356-0.417-0.332-0.891,0.075c-0.438,0.422-0.898,0.838-1.377,1.246c-0.093-0.434-0.19-0.883-0.287-1.339     c-0.206-0.718-1.149-0.362-1.588,0.405c-0.263,0.453-0.21,0.785-0.193,0.895c0.108,0.49,0.212,0.969,0.314,1.436     c-0.524,0.391-1.069,0.771-1.63,1.146C54.419,46.824,53.926,47.2,53.8,47.81z"></path>
    <path d="M41.904,5.905c-0.19,0.166,0.015,0.573,1.348,0.771c0.753,0.087,1.5,0.2,2.235,0.338     c0.056,0.273,0.116,0.57,0.18,0.887c0.127,0.406,0.85,0.682,1.259,0.781c0.513,0.125,1.312,0.171,1.276-0.241     c-0.064-0.303-0.118-0.585-0.173-0.849C48.743,7.784,49.449,8,50.146,8.24c0.733,0.231,1.093,0.244,1.118,0.033     c-0.123-0.271-0.541-0.542-1.278-0.833c-0.696-0.252-1.406-0.481-2.122-0.686c-0.044-0.213-0.083-0.407-0.113-0.577     c-0.082-0.216-0.725-0.472-1.321-0.627c-0.561-0.148-1.19-0.199-1.231-0.043c-0.002,0.011,0,0.021,0,0.031     c0.032,0.177,0.071,0.378,0.117,0.602c-0.74-0.146-1.484-0.267-2.24-0.363C42.846,5.756,42.153,5.691,41.904,5.905z"></path>
    <path d="M44.316,18.923c-0.143,0.237-0.105,0.451-0.086,0.592c0.129,0.611,0.262,1.239,0.397,1.879     c-0.705,0.022-1.421,0.056-2.144,0.103c-0.286,0.043-0.578,0.09-0.829,0.404c-0.498,0.615-0.119,1.963,1.328,1.965     c0.721-0.068,1.431-0.124,2.13-0.17c0.123,0.572,0.244,1.154,0.372,1.746c0.021,0.105,0.041,0.211,0.064,0.314     c0.229,0.865,0.943,1.092,1.331,1.09c0.519-0.008,1.188-0.41,1.047-1.297c-0.023-0.101-0.043-0.199-0.064-0.299     c-0.119-0.568-0.238-1.127-0.354-1.676c0.669-0.022,1.326-0.035,1.97-0.037c0.666-0.067,0.956-0.404,0.891-1.031     c-0.198-0.629-0.638-0.98-1.335-1.078c-0.65-0.031-1.317-0.051-1.992-0.058c-0.13-0.614-0.258-1.214-0.379-1.8     C46.361,18.446,44.763,18.17,44.316,18.923z"></path>
    <path d="M47.958,47.092c0.675-0.275,1.335-0.563,1.979-0.857c0.128,0.582,0.254,1.153,0.372,1.711     c0.192,0.68,0.844,0.597,1.199,0.438c0.476-0.209,1.097-0.84,0.979-1.576c-0.114-0.534-0.233-1.082-0.356-1.641     c0.61-0.313,1.198-0.638,1.771-0.967c0.593-0.406,0.851-0.896,0.788-1.5c-0.187-0.542-0.569-0.672-1.201-0.409     c-0.58,0.299-1.175,0.593-1.789,0.881c-0.128-0.582-0.256-1.175-0.385-1.775c-0.275-1.011-1.552-0.87-2.063-0.002     c-0.244,0.415-0.19,0.757-0.166,0.903c0.136,0.627,0.268,1.246,0.399,1.854c-0.648,0.271-1.315,0.537-1.997,0.793     c-0.253,0.124-0.536,0.26-0.776,0.641C46.253,46.325,46.602,47.514,47.958,47.092z"></path>
    <path d="M55.01,58.165c0.566-0.49,1.116-1,1.648-1.527c0.552-0.572,0.828-0.971,0.839-1.217     c-0.011-0.013-0.023-0.029-0.032-0.042c-0.177-0.013-0.454,0.173-0.954,0.638c-0.532,0.52-1.082,1.019-1.655,1.499     c-0.05-0.212-0.102-0.446-0.162-0.704c-0.182-0.494-1.744,0.644-2.036,1.334c-0.056,0.127-0.05,0.181-0.043,0.243     c0.061,0.269,0.117,0.515,0.169,0.735c-0.615,0.438-1.244,0.855-1.894,1.252c-0.896,0.578-1.036,0.887-1.058,0.969     c-0.002,0.003-0.108,0.508,1.22-0.271c0.647-0.402,1.276-0.827,1.889-1.273c0.042,0.165,0.072,0.301,0.1,0.408     c0.074,0.106,0.678-0.322,0.985-0.563c0.445-0.349,1.072-0.917,1.079-1.091C55.078,58.45,55.044,58.321,55.01,58.165z"></path>
    <path d="M54.086,59.802c-0.228,0.179-0.475,0.368-0.669,0.526C53.592,60.192,53.826,60.008,54.086,59.802z"></path>
    <path d="M54.371,59.572l0.186-0.157c-0.159,0.133-0.319,0.264-0.471,0.388     C54.185,59.721,54.284,59.643,54.371,59.572z"></path>
    <path d="M54.901,59.124l0.041-0.033l-0.386,0.324C54.676,59.319,54.791,59.221,54.901,59.124z"></path>
    <path d="M35.463,4.211c-0.84,0.092-1.276,0.21-1.339,0.359c0.11,0.133,0.564,0.165,1.426,0.097     c0.783-0.076,1.568-0.119,2.348-0.136c0.027,0.159,0.064,0.342,0.104,0.552c0.1,0.259,0.861,0.359,1.296,0.377     c0.545,0.022,1.413-0.048,1.411-0.331c-0.039-0.203-0.076-0.384-0.104-0.539c0.767,0.047,1.53,0.126,2.287,0.229     c0.81,0.098,1.212,0.091,1.271-0.028c-0.108-0.144-0.548-0.276-1.351-0.402c-0.755-0.107-1.519-0.188-2.285-0.239     c-0.017-0.098-0.029-0.168-0.034-0.213c-0.1-0.104-2.451-0.174-2.702-0.08c-0.002,0.053,0.006,0.125,0.023,0.224     C37.034,4.095,36.253,4.139,35.463,4.211z"></path>
    <path d="M36.198,14.281c-0.104,0.2-0.08,0.372-0.064,0.475c0.114,0.561,0.238,1.139,0.363,1.736     c-0.768,0.073-1.543,0.167-2.321,0.277c-0.29,0.066-0.619,0.141-0.898,0.458c-0.597,0.676-0.13,1.828,1.357,1.726     c0.778-0.116,1.549-0.217,2.314-0.302c0.132,0.635,0.271,1.291,0.411,1.959c0.228,0.84,1.043,1.047,1.441,1.037     c0.579-0.013,1.333-0.428,1.198-1.311c-0.136-0.655-0.274-1.295-0.402-1.918c0.746-0.048,1.486-0.082,2.218-0.097     c0.762-0.083,1.102-0.424,1.052-1.045c-0.208-0.622-0.694-0.955-1.484-1.019c-0.735-0.001-1.478,0.015-2.23,0.047     c-0.121-0.583-0.24-1.15-0.354-1.698C38.492,13.514,36.629,13.455,36.198,14.281z"></path>
    <path d="M45.132,44.395c-0.141-0.656-0.283-1.321-0.43-1.995c0.712-0.218,1.412-0.441,2.096-0.671     c0.712-0.313,1.021-0.816,0.939-1.543c-0.223-0.684-0.694-0.941-1.441-0.795c-0.689,0.209-1.393,0.412-2.106,0.613     c-0.149-0.693-0.301-1.395-0.453-2.101c-0.342-1.261-1.91-1.234-2.434-0.231c-0.203,0.387-0.153,0.717-0.126,0.877     c0.154,0.721,0.306,1.436,0.461,2.145c-0.746,0.193-1.499,0.38-2.259,0.564c-0.296,0.102-0.604,0.207-0.869,0.594     c-0.561,0.82-0.059,2.107,1.401,1.881c0.76-0.193,1.513-0.391,2.251-0.596c0.151,0.689,0.296,1.37,0.438,2.039     c0.229,0.827,0.987,0.895,1.4,0.803C44.555,45.858,45.275,45.284,45.132,44.395z"></path>
    <path d="M42.51,61.586c-0.175,0.336,0.067,0.837,1.408,0.464c0.747-0.247,1.482-0.517,2.203-0.811     c0.073,0.323,0.139,0.618,0.203,0.891c0.124,0.324,0.824,0.128,1.219-0.039c0.532-0.226,1.268-0.712,1.232-1.091     c-0.058-0.268-0.125-0.559-0.196-0.875c0.686-0.342,1.353-0.707,2.006-1.092c0.679-0.441,1.004-0.85,0.995-1.242     c-0.149-0.313-0.548-0.288-1.26,0.078c-0.653,0.375-1.324,0.729-2.01,1.064c-0.08-0.366-0.166-0.754-0.26-1.162     c-0.248-0.785-1.973-0.178-2.393,0.65c-0.104,0.201-0.085,0.334-0.076,0.412c0.094,0.417,0.18,0.813,0.267,1.188     c-0.723,0.286-1.461,0.552-2.209,0.795C43.389,60.911,42.729,61.159,42.51,61.586z"></path>
    <path d="M27.687,11.232c-0.112,0.189-0.095,0.333-0.086,0.419c0.095,0.457,0.192,0.936,0.298,1.436     c-0.776,0.195-1.538,0.41-2.286,0.646c-0.221,0.085-0.738,0.287-1,0.735c-0.32,0.555-0.034,1.405,1.376,1.079     c0.749-0.229,1.513-0.442,2.289-0.635c0.112,0.544,0.231,1.109,0.353,1.691c0.201,0.721,1.004,0.808,1.445,0.745     c0.61-0.085,1.417-0.558,1.308-1.345c-0.124-0.583-0.24-1.146-0.354-1.692c0.788-0.148,1.571-0.275,2.353-0.381     c0.819-0.167,1.205-0.522,1.173-1.086c-0.199-0.541-0.703-0.78-1.55-0.729c-0.781,0.101-1.566,0.222-2.356,0.369     c-0.104-0.499-0.201-0.979-0.298-1.436C30.082,10.146,28.165,10.429,27.687,11.232z"></path>
    <path d="M29.749,37.02c-0.783,0.797-0.345,2.381,1.255,2.221c0.766-0.153,1.54-0.313,2.323-0.475     c0.158,0.743,0.316,1.479,0.474,2.209c0.245,0.906,1.065,1.059,1.507,1.006c0.612-0.068,1.401-0.609,1.246-1.591     c-0.156-0.73-0.314-1.468-0.472-2.212c0.783-0.168,1.558-0.34,2.325-0.515c0.801-0.263,1.146-0.784,1.059-1.593     c-0.253-0.777-0.779-1.105-1.614-1.01c-0.771,0.166-1.547,0.332-2.33,0.5c-0.16-0.754-0.324-1.513-0.484-2.271     c-0.368-1.365-2.058-1.383-2.623-0.326c-0.214,0.401-0.16,0.75-0.132,0.916c0.162,0.761,0.322,1.516,0.484,2.269     c-0.78,0.167-1.556,0.33-2.319,0.492C30.237,36.706,29.979,36.791,29.749,37.02z"></path>
    <path d="M40.979,60.735c-0.092-0.411-0.19-0.843-0.288-1.295c0.778-0.193,1.547-0.404,2.3-0.637     c0.79-0.301,1.16-0.701,1.13-1.232c-0.19-0.475-0.68-0.613-1.495-0.422c-0.753,0.23-1.521,0.439-2.305,0.627     c-0.105-0.496-0.219-1.013-0.338-1.547c-0.309-1.045-2.239-0.802-2.687,0.098c-0.106,0.214-0.083,0.381-0.067,0.479     c0.117,0.533,0.229,1.05,0.338,1.547c-0.786,0.137-1.571,0.25-2.35,0.342c-0.234,0.041-0.771,0.139-1.048,0.492     c-0.349,0.448,0,1.227,1.409,1.158c0.78-0.086,1.566-0.195,2.355-0.331c0.1,0.452,0.195,0.884,0.288,1.294     c0.164,0.506,0.952,0.527,1.394,0.461C40.223,61.676,41.047,61.293,40.979,60.735z"></path>
    <path d="M40.984,66.018l0.217-0.049c-0.192,0.041-0.372,0.08-0.535,0.113     C40.777,66.059,40.885,66.038,40.984,66.018z"></path>
    <path d="M41.648,65.868l0.061-0.014l-0.508,0.115C41.344,65.937,41.495,65.905,41.648,65.868z"></path>
    <path d="M40.666,66.083c-0.276,0.054-0.579,0.109-0.826,0.158C39.961,66.218,40.264,66.165,40.666,66.083z"></path>
    <path d="M20.043,10.641c-0.065,0.127-0.059,0.189-0.055,0.261c0.067,0.32,0.139,0.661,0.21,1.026     c-0.682,0.335-1.348,0.694-1.999,1.069c-0.21,0.139-0.774,0.502-0.952,1.002c-0.139,0.393,0.078,0.889,1.225,0.322     c0.651-0.365,1.322-0.71,2.004-1.037c0.086,0.41,0.175,0.844,0.269,1.297c0.162,0.547,0.867,0.465,1.259,0.329     c0.55-0.187,1.281-0.738,1.205-1.37c-0.095-0.462-0.188-0.904-0.274-1.326c0.721-0.282,1.454-0.545,2.2-0.788     c0.798-0.304,1.179-0.674,1.177-1.128c-0.173-0.407-0.651-0.497-1.465-0.276c-0.744,0.248-1.479,0.515-2.196,0.806     c-0.077-0.371-0.145-0.72-0.214-1.046C22.217,9.114,20.404,9.909,20.043,10.641z"></path>
    <path d="M21.572,32.452c-0.694,0.814-0.29,2.312,1.151,2.094c0.692-0.176,1.397-0.354,2.111-0.531     c0.158,0.732,0.312,1.463,0.468,2.189c0.24,0.902,0.999,1.07,1.412,1.025c0.574-0.063,1.312-0.596,1.149-1.593     c-0.16-0.744-0.32-1.491-0.479-2.238c0.742-0.177,1.495-0.352,2.259-0.524c0.801-0.27,1.151-0.804,1.061-1.634     c-0.258-0.8-0.792-1.136-1.625-1.022c-0.764,0.182-1.513,0.368-2.25,0.558c-0.132-0.612-0.262-1.226-0.39-1.836     c-0.032-0.139-0.061-0.274-0.089-0.411c-0.328-1.235-1.785-1.242-2.355-0.285c-0.265,0.441-0.199,0.837-0.174,1.004     c0.028,0.136,0.057,0.27,0.087,0.405c0.125,0.599,0.251,1.195,0.379,1.797c-0.712,0.194-1.411,0.393-2.097,0.594     C22.003,32.118,21.771,32.213,21.572,32.452z"></path>
    <path d="M31.387,58.838c0.593,0.021,1.38-0.254,1.285-0.938c-0.112-0.51-0.229-1.039-0.346-1.584     c0.764-0.061,1.538-0.139,2.314-0.239c0.826-0.17,1.203-0.558,1.151-1.184c-0.219-0.602-0.735-0.868-1.588-0.815     c-0.775,0.105-1.548,0.193-2.312,0.263c-0.127-0.58-0.257-1.175-0.389-1.784c-0.323-1.139-2.056-1.236-2.543-0.393     c-0.149,0.253-0.119,0.462-0.095,0.602c0.13,0.596,0.255,1.18,0.378,1.747c-0.746,0.028-1.483,0.039-2.22,0.032     c-0.268,0.018-0.575,0.037-0.835,0.264c-0.55,0.476-0.128,1.475,1.251,1.621c0.731,0.023,1.476,0.027,2.227,0.014     c0.116,0.535,0.231,1.052,0.339,1.552C30.192,58.627,30.96,58.821,31.387,58.838z"></path>
    <path d="M36.971,66.442c-0.785,0.067-1.566,0.105-2.348,0.111c-0.02-0.076-0.047-0.185-0.08-0.318     c-0.099-0.186-0.979-0.262-1.282-0.273c-0.984-0.039-1.394,0.082-1.42,0.166c-0.002,0.007-0.002,0.018-0.002,0.025     c0.032,0.131,0.057,0.235,0.08,0.313c-0.769-0.059-1.529-0.146-2.282-0.26c-1.139-0.166-1.19-0.141-1.256-0.107     c0.279,0.089,0.814,0.18,1.301,0.258c0.755,0.113,1.517,0.203,2.285,0.263c0,0.003,0.002,0.005,0.002,0.005     c0.084,0.002,0.171,0.006,0.258,0.01c0.527,0.036,1.056,0.059,1.588,0.068c0.303,0.008,0.597,0.016,0.863,0.014     c0,0-0.005,0-0.007-0.004c0.781-0.008,1.564-0.044,2.35-0.111c1.125-0.1,1.253-0.153,1.359-0.197     C38.28,66.364,37.819,66.375,36.971,66.442z"></path>
    <path d="M14.976,15.018c0.461-0.314,1.086-0.952,1.043-1.395c-0.063-0.316-0.121-0.609-0.176-0.883     c0.608-0.433,1.233-0.845,1.874-1.238c0.692-0.453,1.032-0.829,1.049-1.149c-0.125-0.234-0.527-0.152-1.227,0.253     c-0.643,0.401-1.266,0.823-1.871,1.265c-0.043-0.221-0.085-0.422-0.117-0.598c-0.149-0.355-1.774,0.99-2.015,1.527     c-0.027,0.064-0.027,0.095-0.027,0.124c0.03,0.17,0.066,0.362,0.112,0.574c-0.563,0.486-1.107,0.989-1.632,1.507     c-0.703,0.738-0.809,1.104-0.824,1.2c0,0.004-0.078,0.564,0.982-0.405c0.525-0.508,1.073-0.999,1.636-1.471     c0.054,0.259,0.11,0.543,0.171,0.844C14.064,15.52,14.648,15.236,14.976,15.018z"></path>
    <path d="M14.216,29.483c-0.354,0.713-0.082,1.825,1.08,1.43c0.577-0.262,1.173-0.519,1.782-0.771     c0.117,0.544,0.231,1.098,0.354,1.66c0.021,0.1,0.041,0.199,0.063,0.299c0.214,0.813,0.876,0.9,1.233,0.822     c0.499-0.108,1.142-0.678,0.993-1.604c-0.024-0.104-0.046-0.21-0.067-0.313c-0.126-0.589-0.249-1.168-0.37-1.736     c0.649-0.242,1.309-0.482,1.986-0.717c0.716-0.326,1.023-0.857,0.943-1.619c-0.228-0.701-0.699-0.943-1.441-0.738     c-0.673,0.254-1.328,0.518-1.973,0.788c-0.132-0.638-0.262-1.262-0.39-1.868c-0.271-0.992-1.513-0.739-2.013,0.178     c-0.227,0.418-0.177,0.737-0.157,0.875c0.123,0.58,0.249,1.178,0.376,1.785c-0.604,0.284-1.194,0.575-1.764,0.869     C14.634,28.961,14.408,29.106,14.216,29.483z"></path>
    <path d="M24.45,53.374c-0.121-0.555-0.242-1.123-0.368-1.7c0.701,0.011,1.415,0.007,2.138-0.01     c0.766-0.085,1.108-0.452,1.043-1.12c-0.225-0.658-0.716-0.99-1.506-1.017c-0.719,0.039-1.426,0.063-2.122,0.075     c-0.13-0.605-0.265-1.22-0.398-1.843c-0.313-1.151-1.883-1.336-2.307-0.521c-0.128,0.244-0.093,0.455-0.071,0.591     c0.128,0.597,0.255,1.185,0.381,1.763c-0.669-0.017-1.326-0.047-1.969-0.088c-0.176,0.002-0.396,0.008-0.589,0.117     c-0.653,0.371-0.322,1.521,1.002,1.777c0.649,0.072,1.309,0.129,1.984,0.175c0.121,0.553,0.237,1.097,0.353,1.628     c0.19,0.671,0.896,0.957,1.283,1.021C23.849,54.313,24.564,54.108,24.45,53.374z"></path>
    <path d="M27.065,65.159c0.736,0.164,1.48,0.304,2.231,0.415c0.809,0.101,1.216,0.05,1.248-0.153     c-0.132-0.228-0.593-0.402-1.41-0.539c-0.749-0.107-1.491-0.239-2.225-0.396c-0.052-0.221-0.108-0.465-0.171-0.73     c-0.238-0.676-2.387-1.055-2.522-0.707c-0.009,0.023-0.007,0.059-0.005,0.084c0.059,0.256,0.112,0.488,0.16,0.699     c-0.712-0.215-1.415-0.454-2.105-0.717c-0.64-0.229-0.965-0.293-1.116-0.215c-0.032,0.172,0.45,0.49,1.262,0.83     c0.692,0.273,1.397,0.521,2.111,0.746c0.037,0.152,0.067,0.283,0.093,0.386c0.08,0.144,0.806,0.388,1.175,0.497     c0.649,0.189,1.359,0.322,1.374,0.203C27.135,65.454,27.107,65.321,27.065,65.159z"></path>
    <path d="M11.189,29.793c0.162,0.605,0.684,0.527,0.967,0.387c0.406-0.201,0.922-0.814,0.81-1.547     c-0.11-0.535-0.224-1.059-0.331-1.568c0.525-0.354,1.07-0.703,1.629-1.044c0.595-0.427,0.859-0.929,0.798-1.537     c-0.179-0.534-0.566-0.626-1.181-0.284c-0.554,0.371-1.091,0.752-1.607,1.141c-0.103-0.479-0.197-0.941-0.29-1.389     c-0.185-0.654-1.021-0.236-1.474,0.547c-0.297,0.517-0.251,0.834-0.238,0.938c0.089,0.417,0.18,0.847,0.272,1.292     c-0.472,0.405-0.921,0.817-1.35,1.237c-0.139,0.152-0.504,0.554-0.587,1.11c-0.054,0.376,0.094,0.996,0.898,0.385     c0.439-0.382,0.896-0.758,1.374-1.127C10.979,28.808,11.083,29.295,11.189,29.793z"></path>
    <path d="M14.116,42.524c-0.146,0.262-0.11,0.504-0.089,0.621c0.115,0.537,0.229,1.069,0.342,1.598     c0.649-0.004,1.32-0.02,2.017-0.046c-0.123-0.565-0.244-1.138-0.367-1.716C15.746,41.971,14.523,41.815,14.116,42.524z"></path>
    <path d="M17.156,48.284c-0.114-0.536-0.231-1.08-0.351-1.633c0.602,0.016,1.223,0.022,1.854,0.018     c0.671-0.07,0.961-0.42,0.894-1.07c-0.208-0.645-0.647-0.969-1.337-0.991c-0.628,0.038-1.238,0.067-1.831,0.09     c-0.696,0.026-1.367,0.042-2.017,0.046c-0.556,0.002-1.095-0.003-1.616-0.015c-0.141,0.01-0.319,0.021-0.474,0.128     c-0.525,0.359-0.255,1.352,0.838,1.564c0.532,0.057,1.079,0.104,1.645,0.141c0.109,0.512,0.22,1.02,0.326,1.518     c0.217,0.795,1.068,0.985,1.104,0.992C16.661,49.172,17.273,48.994,17.156,48.284z"></path>
    <path d="M23.094,61.825c-0.147-0.347-0.569-0.641-1.329-0.922c-0.684-0.227-1.352-0.476-2.012-0.746     c-0.067-0.299-0.137-0.615-0.21-0.949c-0.24-0.77-2.013-1.49-2.225-1.103c-0.023,0.044-0.017,0.099-0.011,0.14     c0.067,0.311,0.132,0.604,0.197,0.883c-0.63-0.318-1.242-0.656-1.837-1.014c-0.552-0.313-0.82-0.397-0.931-0.297     c-0.009,0.234,0.42,0.673,1.121,1.141c0.602,0.379,1.218,0.738,1.85,1.077c0.052,0.238,0.104,0.46,0.149,0.662     c0.102,0.286,0.757,0.703,1.086,0.883c0.589,0.32,1.21,0.512,1.192,0.265c-0.054-0.219-0.106-0.456-0.162-0.713     c0.662,0.288,1.337,0.555,2.022,0.799C22.734,62.161,23.094,62.127,23.094,61.825z"></path>
    <path d="M7.146,30.098c0.264-0.296,0.653-0.963,0.573-1.486C7.643,28.25,7.571,27.899,7.5,27.561     c0.372-0.487,0.764-0.967,1.18-1.438c0.449-0.559,0.645-1.027,0.609-1.475c-0.13-0.345-0.415-0.267-0.865,0.24     c-0.409,0.504-0.796,1.016-1.16,1.535c-0.064-0.309-0.125-0.605-0.184-0.891c-0.093-0.316-0.467,0.072-0.757,0.614     c-0.16,0.3-0.448,0.964-0.4,1.335C5.975,27.735,6.031,28,6.087,28.278c-0.31,0.537-0.595,1.08-0.853,1.631     c-0.433,0.982-0.348,1.371-0.348,1.375c0.032,0.125,0.138,0.232,0.534-0.476c0.266-0.513,0.561-1.021,0.876-1.521     c0.063,0.303,0.128,0.614,0.195,0.938C6.619,30.675,7.091,30.159,7.146,30.098z"></path>
    <path d="M7.306,41.43c-0.353,0.352-0.158,1.068,0.599,1.118c0.375-0.011,0.771-0.03,1.188-0.054     c0.086,0.41,0.177,0.819,0.264,1.223c0.169,0.643,0.815,0.759,0.844,0.764c0.361,0.061,0.831-0.121,0.731-0.723     c-0.098-0.455-0.195-0.912-0.294-1.375c0.465-0.037,0.949-0.082,1.456-0.133c0.536-0.11,0.768-0.443,0.701-1.016     c-0.178-0.557-0.53-0.804-1.08-0.754c-0.495,0.098-0.967,0.189-1.426,0.277c-0.1-0.468-0.199-0.939-0.301-1.411     c-0.208-0.786-1.05-0.772-1.383-0.153c-0.145,0.27-0.108,0.49-0.091,0.596c0.089,0.42,0.178,0.838,0.269,1.257     c-0.409,0.075-0.79,0.148-1.153,0.214C7.526,41.292,7.411,41.325,7.306,41.43z"></path>
    <path d="M16.12,56.59c-0.141-0.39-0.511-0.738-1.16-1.098c-0.577-0.296-1.145-0.609-1.686-0.938     c-0.069-0.309-0.138-0.629-0.212-0.959c-0.212-0.746-1.648-1.586-1.805-1.244c-0.02,0.039-0.011,0.09-0.004,0.129     c0.063,0.296,0.128,0.582,0.187,0.857c-0.502-0.367-0.985-0.751-1.445-1.148c-0.381-0.315-0.541-0.41-0.678-0.417     c-0.009,0.009-0.021,0.021-0.03,0.028c0.004,0.215,0.351,0.689,0.885,1.206c0.472,0.434,0.963,0.851,1.472,1.251     c0.056,0.25,0.108,0.49,0.16,0.715c0.093,0.307,0.597,0.801,0.913,1.059c0.521,0.428,0.965,0.61,0.967,0.402     c0-0.013-0.002-0.029-0.006-0.042c-0.055-0.255-0.115-0.523-0.176-0.804c0.552,0.359,1.121,0.702,1.705,1.027     C15.837,56.93,16.133,56.922,16.12,56.59z"></path>
    <path d="M4.086,29.494c-0.182,0.08-0.576,1.994-0.532,2.382c0.025,0.116,0.052,0.24,0.078,0.373     c-0.133,0.655-0.234,1.314-0.31,1.98c-0.055,0.525-0.102,1.154-0.063,1.34c0.021-0.065,0.034-0.121,0.141-0.945     c0.084-0.631,0.194-1.257,0.333-1.881c0.028,0.15,0.063,0.307,0.095,0.473c0.014,0.032,0.028,0.086,0.1-0.047     c0.055-0.102,0.137-0.305,0.219-0.559c0.034-0.108,0.346-1.076,0.294-1.45c-0.041-0.202-0.08-0.395-0.119-0.577     c0.199-0.611,0.427-1.219,0.673-1.818c0.286-0.701,0.402-1.141,0.388-1.421c-0.009-0.018-0.02-0.039-0.026-0.056     c-0.148-0.022-0.348,0.406-0.502,0.783c-0.244,0.627-0.463,1.263-0.655,1.904c-0.032-0.16-0.067-0.313-0.093-0.455     C4.101,29.511,4.097,29.499,4.086,29.494z"></path>
    <path d="M4.951,38.559c0.009,0.048,0.021,0.096,0.03,0.146c0.048,0.219,0.096,0.436,0.139,0.654     c-0.229,0.191-0.429,0.381-0.608,0.566c-0.063,0.076-0.13,0.158-0.182,0.324c-0.095,0.302-0.013,0.609,0.342,0.423     c0.19-0.121,0.407-0.247,0.649-0.378c0.059,0.267,0.112,0.531,0.169,0.797c0.107,0.41,0.508,0.382,0.525,0.381     c0.231-0.02,0.528-0.242,0.459-0.674c-0.071-0.324-0.141-0.652-0.21-0.978c0.299-0.138,0.621-0.282,0.967-0.427     c0.37-0.203,0.528-0.52,0.477-0.965c-0.132-0.417-0.379-0.531-0.755-0.354c-0.334,0.203-0.646,0.404-0.931,0.601     c-0.059-0.267-0.112-0.533-0.169-0.8c-0.016-0.061-0.028-0.121-0.041-0.18c-0.108-0.414-0.457-0.295-0.684,0.085     C5.088,37.85,4.891,38.208,4.951,38.559z"></path>
    <path d="M6.083,47.218c0.31,0.429,0.643,0.845,0.995,1.247c0.043,0.193,0.084,0.383,0.125,0.564     c0.065,0.236,0.395,0.703,0.667,1.023c0.42,0.492,0.71,0.655,0.703,0.495c0.004-0.011-0.002-0.026-0.002-0.036     c-0.05-0.224-0.102-0.455-0.151-0.691c0.406,0.371,0.837,0.729,1.285,1.071c0.484,0.338,0.718,0.358,0.696,0.062     c-0.119-0.35-0.406-0.685-0.908-1.053C9.049,49.6,8.63,49.286,8.231,48.959c-0.057-0.254-0.112-0.514-0.171-0.78     c-0.156-0.565-1.164-1.368-1.272-1.144c-0.009,0.025-0.004,0.062,0,0.09c0.048,0.217,0.093,0.428,0.139,0.637     c-0.347-0.356-0.671-0.727-0.968-1.108c-0.272-0.345-0.353-0.425-0.424-0.472C5.479,46.302,5.912,46.971,6.083,47.218z"></path>
    <path d="M10.862,56.029c-0.5-0.562-0.978-1.144-1.438-1.743c-0.011-0.032-0.024-0.078-0.035-0.139     c-0.059-0.136-1.495-2.125-1.508-2.142c0.004,0.044,0.013,0.083,0.018,0.11c-0.386-0.604-0.749-1.225-1.095-1.859l0.491,0.896     c0.201,0.345,0.41,0.687,0.62,1.021c0.366,0.569,0.753,1.12,1.149,1.665c0.132,0.182,0.255,0.357,0.381,0.518l-0.002-0.001     c0.461,0.602,0.943,1.187,1.445,1.751c0.437,0.494,0.733,0.809,0.883,0.943C11.498,56.684,11.165,56.369,10.862,56.029z"></path>
    <path d="M6.74,50.141c0.02,0.039,0.046,0.078,0.063,0.115l-0.1-0.18C6.717,50.098,6.728,50.122,6.74,50.141z"></path>
    <path d="M6.466,49.639l0.238,0.438c-0.188-0.357-0.366-0.719-0.557-1.078C6.254,49.219,6.323,49.358,6.466,49.639     z"></path>
    <path d="M3,35.512l0.015,0.476c-0.002-0.124-0.009-0.269-0.011-0.448C3,35.52,3,35.515,3,35.512z"></path>
    <path d="M3.056,37.053c0.026,0.52,0.057,0.867,0.087,1.172l-0.096-1.291C3.047,36.97,3.054,37.01,3.056,37.053z"></path>
    <path d="M3.032,36.602l-0.018-0.614C3.021,36.292,3.025,36.458,3.032,36.602z"></path>
    <path d="M3.039,36.784l0.008,0.15c-0.006-0.129-0.013-0.224-0.015-0.332L3.039,36.784z"></path>
    <path d="M3.145,38.25c0,0.003,0,0.008,0,0.012c0-0.012-0.002-0.025-0.002-0.037L3.145,38.25z"></path>
    <path d="M3.203,38.563c0.007,0.035,0.015,0.072,0.02,0.113c0-0.333-0.035-0.662-0.043-0.993     c-0.018-0.478,0.025-0.955-0.037-1.429c-0.016-0.07-0.028-0.137-0.037-0.197c0.005-0.713,0.039-1.424,0.104-2.128     c0.112-1.256,0.112-1.256,0.105-1.39c0,0-0.007-0.004-0.011-0.005c-0.069,0.219-0.13,0.907-0.149,1.132     c-0.061,0.729-0.091,1.461-0.091,2.197c-0.009-0.05-0.018-0.094-0.025-0.135C3,35.917,3.077,37.715,3.164,38.375     c0.004,0.022,0.011,0.05,0.016,0.077c0.066,0.742,0.166,1.487,0.294,2.233c0.043,0.248,0.084,0.487,0.153,0.817     c-0.063-0.314-0.104-0.543-0.146-0.778C3.358,40.002,3.264,39.282,3.203,38.563z"></path>
    <path d="M3.646,41.595c0.018,0.08,0.035,0.165,0.054,0.255C3.682,41.76,3.662,41.677,3.646,41.595     c0.004,0.031,0.013,0.067,0.02,0.102c0.013,0.048,0.021,0.097,0.034,0.153c-0.011-0.045-0.019-0.082-0.025-0.123     c-0.024-0.107-0.03-0.186-0.041-0.271c-0.026-0.256-0.021-0.514,0.011-0.777c0.013,0.072,0.03,0.148,0.045,0.223     c0.003,0.013,0.007,0.025,0.009,0.039c0.007,0.029,0.024,0.083,0.108-0.068c0.011-0.014,0.02-0.036,0.028-0.053     c0.032-0.057,0.177-0.361,0.134-0.615c-0.004-0.022-0.009-0.044-0.015-0.068c-0.026-0.131-0.055-0.26-0.083-0.389     c0.1-0.269,0.228-0.54,0.379-0.814c0.119-0.232,0.251-0.541,0.21-0.885c-0.009-0.021-0.015-0.051-0.021-0.07     c-0.03-0.049-0.132-0.172-0.333,0.264c-0.143,0.334-0.256,0.666-0.34,0.997c-0.032-0.144-0.061-0.282-0.091-0.419     c-0.007-0.025-0.009-0.031-0.02-0.039c-0.11,0.021-0.175,1.068-0.123,1.367c0.015,0.078,0.032,0.158,0.05,0.238     c-0.02,0.326-0.009,0.648,0.03,0.967c0.015,0.103,0.027,0.206,0.054,0.344c-0.007-0.038-0.018-0.078-0.021-0.111     c0,0.002,0,0.003,0,0.004c-0.007-0.029-0.013-0.059-0.018-0.086c0.005,0.027,0.011,0.057,0.018,0.088     C3.645,41.592,3.646,41.594,3.646,41.595z"></path>
    <path d="M4.495,44.635c0.011,0.051,0.021,0.102,0.034,0.148c0.02,0.072,0.18,0.548,0.394,1.078     c0.238,0.581,0.438,0.985,0.491,1.059c-0.015-0.092-0.034-0.18-0.056-0.271c0.278,0.561,0.579,1.107,0.906,1.641     c0.192,0.305,0.365,0.566,0.515,0.692c0.007-0.01,0.02-0.021,0.024-0.032c-0.063-0.189-0.219-0.461-0.641-1.117     c-0.316-0.493-0.61-1-0.876-1.519c-0.024-0.101-0.046-0.204-0.072-0.313c-0.047-0.173-0.794-1.731-0.798-1.741     c0.009,0.064,0.023,0.125,0.034,0.182c-0.205-0.549-0.385-1.111-0.538-1.686c-0.053-0.211-0.106-0.417-0.171-0.719     c0.036,0.166,0.071,0.29,0.104,0.408c0.108,0.377,0.244,0.744,0.413,1.1c0.013,0.074,0.03,0.147,0.046,0.218     c0.025,0.102,0.171,0.458,0.333,0.788c0.164,0.334,0.326,0.594,0.383,0.613c0.007-0.01,0.009-0.025,0.007-0.035     c-0.028-0.122-0.057-0.251-0.083-0.379c0.226,0.332,0.479,0.654,0.76,0.963c0.201,0.213,0.322,0.314,0.422,0.275     c0.011-0.025,0.013-0.07,0.011-0.1c-0.078-0.237-0.244-0.479-0.568-0.803c-0.267-0.257-0.509-0.523-0.726-0.799     c-0.028-0.135-0.059-0.271-0.089-0.411c-0.075-0.284-0.551-0.825-0.597-0.854c-0.005,0.001-0.009,0.001-0.011,0.003     c0,0.005,0,0.015,0.002,0.018c0.018,0.082,0.035,0.159,0.052,0.237c-0.155-0.299-0.279-0.608-0.374-0.925     c-0.03-0.107-0.059-0.205-0.093-0.342c-0.009-0.055-0.02-0.104-0.033-0.164c0.094,0.445,0.154,0.689,0.228,0.975     C4.09,43.44,4.278,44.044,4.495,44.635z"></path>
    <path d="M3.846,42.504v0.002c-0.004-0.028-0.013-0.061-0.021-0.102L3.846,42.504z"></path>
    <path d="M6.606,49.796c0.324,0.595,0.534,0.944,0.621,1.034c-0.028-0.068-0.028-0.068-0.669-1.238     c-0.353-0.645-0.682-1.307-0.982-1.98c-0.013-0.051-0.023-0.104-0.039-0.164c-0.019-0.061-0.93-2.334-0.938-2.355     c0.007,0.033,0.013,0.064,0.02,0.094c-0.242-0.705-0.457-1.424-0.643-2.158l0.02,0.08c0.19,0.734,0.404,1.455,0.645,2.163     c0.007,0.022,0.009,0.038,0.013,0.052c0.003,0.004,0.165,0.51,0.422,1.178c0.275,0.726,0.513,1.262,0.557,1.349     c-0.005-0.021-0.011-0.052-0.021-0.089C5.918,48.456,6.249,49.133,6.606,49.796z"></path>
    <path d="M3.971,43.013c0,0.005,0.003,0.011,0.005,0.015l-0.13-0.521C3.885,42.665,3.897,42.713,3.971,43.013z"></path>
   </g>
  </g>
 </g>
 <!--Copyright (c) Logomaker.com.cn  @2015-06-27-->
</svg></g> <!----></g><g id="shapge_K0OsX7JjYa" transform="translate(30,108) rotate(0,0,0) scale(1,1)" filter="" style="cursor: move; opacity: 1;"><g><svg xmlns="http://www.w3.org/2000/svg" version="1.1" xmlns:xlink="http://www.w3.org/1999/xlink" overflow="hidden" style="top:0; left: 0" width="185" height="34" viewBox="0 0 185.281 34.104" preserveAspectRatio="none" data-parent="shapge_K0OsX7JjYa"><rect fill="rgba(0,0,0,0)" width="185" height="34"></rect> <rect opacity="0"></rect><g transform="translate(0 0)" data-width="185.281"><path fill="#3786C7" d="M8.35 0L2.90 0L2.90-21.26L8.24-21.26L8.24-21.26Q13.14-21.26 15.70-18.52L15.70-18.52L15.70-18.52Q18.27-15.78 18.27-10.70L18.27-10.70L18.27-10.70Q18.27-5.66 15.72-2.83L15.72-2.83L15.72-2.83Q13.17 0 8.35 0L8.35 0ZM5.60-19.08L5.60-2.20L8.00-2.20L8.00-2.20Q11.77-2.20 13.63-4.44L13.63-4.44L13.63-4.44Q15.49-6.67 15.49-10.70L15.49-10.70L15.49-10.70Q15.49-14.76 13.63-16.92L13.63-16.92L13.63-16.92Q11.77-19.08 8.00-19.08L8.00-19.08L5.60-19.08Z" transform="translate(0 25.52)"></path><path fill="#3786C7" d="M6.29 0.38L6.29 0.38L6.29 0.38Q4.32 0.38 3.00-0.80L3.00-0.80L3.00-0.80Q1.68-1.97 1.68-4.09L1.68-4.09L1.68-4.09Q1.68-6.67 4.03-8.05L4.03-8.05L4.03-8.05Q6.38-9.43 11.37-9.98L11.37-9.98L11.37-9.98Q11.37-10.99 11.09-11.90L11.09-11.90L11.09-11.90Q10.82-12.82 10.12-13.38L10.12-13.38L10.12-13.38Q9.43-13.95 8.12-13.95L8.12-13.95L8.12-13.95Q6.76-13.95 5.55-13.44L5.55-13.44L5.55-13.44Q4.35-12.93 3.39-12.27L3.39-12.27L2.35-14.09L2.35-14.09Q3.45-14.82 5.06-15.49L5.06-15.49L5.06-15.49Q6.67-16.15 8.55-16.15L8.55-16.15L8.55-16.15Q11.43-16.15 12.72-14.38L12.72-14.38L12.72-14.38Q14.01-12.62 14.01-9.69L14.01-9.69L14.01 0L11.83 0L11.60-1.89L11.51-1.89L11.51-1.89Q10.38-0.93 9.06-0.28L9.06-0.28L9.06-0.28Q7.74 0.38 6.29 0.38ZM7.05-1.74L7.05-1.74L7.05-1.74Q8.21-1.74 9.22-2.28L9.22-2.28L9.22-2.28Q10.24-2.81 11.37-3.83L11.37-3.83L11.37-8.24L11.37-8.24Q7.45-7.77 5.86-6.79L5.86-6.79L5.86-6.79Q4.26-5.80 4.26-4.26L4.26-4.26L4.26-4.26Q4.26-2.93 5.08-2.33L5.08-2.33L5.08-2.33Q5.89-1.74 7.05-1.74Z" transform="translate(19.923000000000002 25.52)"></path><path fill="#3786C7" d="M7.63 0.38L7.63 0.38L7.63 0.38Q5.10 0.38 4.12-1.06L4.12-1.06L4.12-1.06Q3.13-2.49 3.13-4.87L3.13-4.87L3.13-13.60L0.78-13.60L0.78-15.60L3.25-15.75L3.57-20.16L5.77-20.16L5.77-15.75L10.03-15.75L10.03-13.60L5.77-13.60L5.77-4.81L5.77-4.81Q5.77-3.36 6.31-2.57L6.31-2.57L6.31-2.57Q6.84-1.77 8.21-1.77L8.21-1.77L8.21-1.77Q8.61-1.77 9.11-1.90L9.11-1.90L9.11-1.90Q9.60-2.03 10.01-2.18L10.01-2.18L10.53-0.20L10.53-0.20Q9.86 0.03 9.11 0.20L9.11 0.20L9.11 0.20Q8.35 0.38 7.63 0.38Z" transform="translate(36.279 25.52)"></path><path fill="#3786C7" d="M6.29 0.38L6.29 0.38L6.29 0.38Q4.32 0.38 3.00-0.80L3.00-0.80L3.00-0.80Q1.68-1.97 1.68-4.09L1.68-4.09L1.68-4.09Q1.68-6.67 4.03-8.05L4.03-8.05L4.03-8.05Q6.38-9.43 11.37-9.98L11.37-9.98L11.37-9.98Q11.37-10.99 11.09-11.90L11.09-11.90L11.09-11.90Q10.82-12.82 10.12-13.38L10.12-13.38L10.12-13.38Q9.43-13.95 8.12-13.95L8.12-13.95L8.12-13.95Q6.76-13.95 5.55-13.44L5.55-13.44L5.55-13.44Q4.35-12.93 3.39-12.27L3.39-12.27L2.35-14.09L2.35-14.09Q3.45-14.82 5.06-15.49L5.06-15.49L5.06-15.49Q6.67-16.15 8.55-16.15L8.55-16.15L8.55-16.15Q11.43-16.15 12.72-14.38L12.72-14.38L12.72-14.38Q14.01-12.62 14.01-9.69L14.01-9.69L14.01 0L11.83 0L11.60-1.89L11.51-1.89L11.51-1.89Q10.38-0.93 9.06-0.28L9.06-0.28L9.06-0.28Q7.74 0.38 6.29 0.38ZM7.05-1.74L7.05-1.74L7.05-1.74Q8.21-1.74 9.22-2.28L9.22-2.28L9.22-2.28Q10.24-2.81 11.37-3.83L11.37-3.83L11.37-8.24L11.37-8.24Q7.45-7.77 5.86-6.79L5.86-6.79L5.86-6.79Q4.26-5.80 4.26-4.26L4.26-4.26L4.26-4.26Q4.26-2.93 5.08-2.33L5.08-2.33L5.08-2.33Q5.89-1.74 7.05-1.74Z" transform="translate(47.212 25.52)"></path><path fill="#3786C7" d="" transform="translate(63.568000000000005 25.52)"></path><path fill="#3786C7" d="M6.58-11.89L5.54-8.64L11.98-8.64L10.96-11.89L10.96-11.89Q9.83-15.46 8.82-19.08L8.82-19.08L8.70-19.08L8.70-19.08Q7.71-15.43 6.58-11.89L6.58-11.89ZM17.52 0L14.67 0L12.64-6.50L4.87-6.50L2.81 0L0.09 0L7.31-21.26L10.29-21.26L17.52 0Z" transform="translate(75.11 25.52)"></path><path fill="#3786C7" d="M5.31 0L2.67 0L2.67-15.75L4.84-15.75L5.08-13.49L5.16-13.49L5.16-13.49Q6.29-14.62 7.57-15.38L7.57-15.38L7.57-15.38Q8.85-16.15 10.44-16.15L10.44-16.15L10.44-16.15Q12.93-16.15 14.09-14.57L14.09-14.57L14.09-14.57Q15.25-12.99 15.25-9.98L15.25-9.98L15.25 0L12.62 0L12.62-9.63L12.62-9.63Q12.62-11.86 11.90-12.85L11.90-12.85L11.90-12.85Q11.19-13.83 9.63-13.83L9.63-13.83L9.63-13.83Q8.41-13.83 7.44-13.22L7.44-13.22L7.44-13.22Q6.47-12.62 5.31-11.43L5.31-11.43L5.31 0Z" transform="translate(92.713 25.52)"></path><path fill="#3786C7" d="M6.29 0.38L6.29 0.38L6.29 0.38Q4.32 0.38 3.00-0.80L3.00-0.80L3.00-0.80Q1.68-1.97 1.68-4.09L1.68-4.09L1.68-4.09Q1.68-6.67 4.03-8.05L4.03-8.05L4.03-8.05Q6.38-9.43 11.37-9.98L11.37-9.98L11.37-9.98Q11.37-10.99 11.09-11.90L11.09-11.90L11.09-11.90Q10.82-12.82 10.12-13.38L10.12-13.38L10.12-13.38Q9.43-13.95 8.12-13.95L8.12-13.95L8.12-13.95Q6.76-13.95 5.55-13.44L5.55-13.44L5.55-13.44Q4.35-12.93 3.39-12.27L3.39-12.27L2.35-14.09L2.35-14.09Q3.45-14.82 5.06-15.49L5.06-15.49L5.06-15.49Q6.67-16.15 8.55-16.15L8.55-16.15L8.55-16.15Q11.43-16.15 12.72-14.38L12.72-14.38L12.72-14.38Q14.01-12.62 14.01-9.69L14.01-9.69L14.01 0L11.83 0L11.60-1.89L11.51-1.89L11.51-1.89Q10.38-0.93 9.06-0.28L9.06-0.28L9.06-0.28Q7.74 0.38 6.29 0.38ZM7.05-1.74L7.05-1.74L7.05-1.74Q8.21-1.74 9.22-2.28L9.22-2.28L9.22-2.28Q10.24-2.81 11.37-3.83L11.37-3.83L11.37-8.24L11.37-8.24Q7.45-7.77 5.86-6.79L5.86-6.79L5.86-6.79Q4.26-5.80 4.26-4.26L4.26-4.26L4.26-4.26Q4.26-2.93 5.08-2.33L5.08-2.33L5.08-2.33Q5.89-1.74 7.05-1.74Z" transform="translate(110.43199999999999 25.52)"></path><path fill="#3786C7" d="M5.45 0.38L5.45 0.38L5.45 0.38Q3.97 0.38 3.32-0.54L3.32-0.54L3.32-0.54Q2.67-1.45 2.67-3.13L2.67-3.13L2.67-23.08L5.31-23.08L5.31-2.96L5.31-2.96Q5.31-2.35 5.54-2.09L5.54-2.09L5.54-2.09Q5.77-1.83 6.06-1.83L6.06-1.83L6.06-1.83Q6.18-1.83 6.29-1.84L6.29-1.84L6.29-1.84Q6.41-1.86 6.61-1.89L6.61-1.89L6.99 0.15L6.99 0.15Q6.50 0.38 5.45 0.38Z" transform="translate(126.78799999999998 25.52)"></path><path fill="#3786C7" d="M2.93 6.79L2.93 6.79L2.93 6.79Q1.80 6.79 1.07 6.47L1.07 6.47L1.59 4.35L1.59 4.35Q1.83 4.44 2.16 4.52L2.16 4.52L2.16 4.52Q2.49 4.61 2.78 4.61L2.78 4.61L2.78 4.61Q4.15 4.61 5.02 3.65L5.02 3.65L5.02 3.65Q5.89 2.70 6.35 1.22L6.35 1.22L6.70 0.03L0.38-15.75L3.13-15.75L6.35-6.99L6.35-6.99Q6.44-6.70 6.55-6.41L6.55-6.41L6.55-6.41Q7.19-4.50 7.86-2.58L7.86-2.58L8.00-2.58L8.00-2.58Q8.29-3.48 8.55-4.44L8.55-4.44L8.55-4.44Q8.96-5.77 9.34-6.99L9.34-6.99L12.15-15.75L14.73-15.75L8.79 1.31L8.79 1.31Q8.24 2.87 7.47 4.10L7.47 4.10L7.47 4.10Q6.70 5.34 5.60 6.06L5.60 6.06L5.60 6.06Q4.50 6.79 2.93 6.79Z" transform="translate(135.053 25.52)"></path><path fill="#3786C7" d="M6.79 0.38L6.79 0.38L6.79 0.38Q5.10 0.38 3.58-0.23L3.58-0.23L3.58-0.23Q2.06-0.84 0.90-1.80L0.90-1.80L2.20-3.54L2.20-3.54Q3.22-2.70 4.34-2.19L4.34-2.19L4.34-2.19Q5.45-1.68 6.87-1.68L6.87-1.68L6.87-1.68Q8.44-1.68 9.21-2.41L9.21-2.41L9.21-2.41Q9.98-3.13 9.98-4.15L9.98-4.15L9.98-4.15Q9.98-4.96 9.44-5.50L9.44-5.50L9.44-5.50Q8.90-6.03 8.09-6.42L8.09-6.42L8.09-6.42Q7.28-6.82 6.38-7.13L6.38-7.13L6.38-7.13Q5.25-7.54 4.18-8.09L4.18-8.09L4.18-8.09Q3.10-8.64 2.39-9.50L2.39-9.50L2.39-9.50Q1.68-10.35 1.68-11.69L1.68-11.69L1.68-11.69Q1.68-13.57 3.12-14.86L3.12-14.86L3.12-14.86Q4.55-16.15 7.11-16.15L7.11-16.15L7.11-16.15Q8.55-16.15 9.82-15.63L9.82-15.63L9.82-15.63Q11.08-15.11 12.01-14.38L12.01-14.38L10.73-12.67L10.73-12.67Q9.92-13.28 9.05-13.67L9.05-13.67L9.05-13.67Q8.18-14.07 7.11-14.07L7.11-14.07L7.11-14.07Q5.63-14.07 4.93-13.40L4.93-13.40L4.93-13.40Q4.23-12.73 4.23-11.80L4.23-11.80L4.23-11.80Q4.23-11.08 4.68-10.61L4.68-10.61L4.68-10.61Q5.13-10.15 5.86-9.82L5.86-9.82L5.86-9.82Q6.58-9.48 7.42-9.19L7.42-9.19L7.42-9.19Q7.57-9.13 7.71-9.08L7.71-9.08L7.71-9.08Q8.87-8.67 9.98-8.12L9.98-8.12L9.98-8.12Q11.08-7.57 11.80-6.68L11.80-6.68L11.80-6.68Q12.53-5.80 12.53-4.29L12.53-4.29L12.53-4.29Q12.53-2.38 11.05-1.00L11.05-1.00L11.05-1.00Q9.57 0.38 6.79 0.38Z" transform="translate(150.162 25.52)"></path><path fill="#3786C7" d="M5.31 0L2.67 0L2.67-15.75L5.31-15.75L5.31 0ZM4.00-19.00L4.00-19.00L4.00-19.00Q3.22-19.00 2.70-19.49L2.70-19.49L2.70-19.49Q2.18-19.98 2.18-20.71L2.18-20.71L2.18-20.71Q2.18-22.33 4.00-22.42L4.00-22.42L4.00-22.42Q4.79-22.42 5.31-21.97L5.31-21.97L5.31-21.97Q5.83-21.52 5.83-20.71L5.83-20.71L5.83-20.71Q5.83-19.98 5.31-19.49L5.31-19.49L5.31-19.49Q4.79-19.00 4.00-19.00Z" transform="translate(163.734 25.52)"></path><path fill="#3786C7" d="M6.79 0.38L6.79 0.38L6.79 0.38Q5.10 0.38 3.58-0.23L3.58-0.23L3.58-0.23Q2.06-0.84 0.90-1.80L0.90-1.80L2.20-3.54L2.20-3.54Q3.22-2.70 4.34-2.19L4.34-2.19L4.34-2.19Q5.45-1.68 6.87-1.68L6.87-1.68L6.87-1.68Q8.44-1.68 9.21-2.41L9.21-2.41L9.21-2.41Q9.98-3.13 9.98-4.15L9.98-4.15L9.98-4.15Q9.98-4.96 9.44-5.50L9.44-5.50L9.44-5.50Q8.90-6.03 8.09-6.42L8.09-6.42L8.09-6.42Q7.28-6.82 6.38-7.13L6.38-7.13L6.38-7.13Q5.25-7.54 4.18-8.09L4.18-8.09L4.18-8.09Q3.10-8.64 2.39-9.50L2.39-9.50L2.39-9.50Q1.68-10.35 1.68-11.69L1.68-11.69L1.68-11.69Q1.68-13.57 3.12-14.86L3.12-14.86L3.12-14.86Q4.55-16.15 7.11-16.15L7.11-16.15L7.11-16.15Q8.55-16.15 9.82-15.63L9.82-15.63L9.82-15.63Q11.08-15.11 12.01-14.38L12.01-14.38L10.73-12.67L10.73-12.67Q9.92-13.28 9.05-13.67L9.05-13.67L9.05-13.67Q8.18-14.07 7.11-14.07L7.11-14.07L7.11-14.07Q5.63-14.07 4.93-13.40L4.93-13.40L4.93-13.40Q4.23-12.73 4.23-11.80L4.23-11.80L4.23-11.80Q4.23-11.08 4.68-10.61L4.68-10.61L4.68-10.61Q5.13-10.15 5.86-9.82L5.86-9.82L5.86-9.82Q6.58-9.48 7.42-9.19L7.42-9.19L7.42-9.19Q7.57-9.13 7.71-9.08L7.71-9.08L7.71-9.08Q8.87-8.67 9.98-8.12L9.98-8.12L9.98-8.12Q11.08-7.57 11.80-6.68L11.80-6.68L11.80-6.68Q12.53-5.80 12.53-4.29L12.53-4.29L12.53-4.29Q12.53-2.38 11.05-1.00L11.05-1.00L11.05-1.00Q9.57 0.38 6.79 0.38Z" transform="translate(171.709 25.52)"></path></g></svg></g> <!----></g><g id="shapge_5BiMyynr64" transform="translate(55.5,148) rotate(0,0,0) scale(1,1)" filter="" style="cursor: move; opacity: 1;"><g><svg xmlns="http://www.w3.org/2000/svg" version="1.1" xmlns:xlink="http://www.w3.org/1999/xlink" overflow="hidden" style="top:0; left: 0" width="134" height="24" viewBox="0 0 134.169 24.695999999999998" preserveAspectRatio="none" data-parent="shapge_5BiMyynr64"><rect fill="rgba(0,0,0,0)" width="134" height="24"></rect> <rect opacity="0"></rect><g transform="translate(0 0)" data-width="134.169"><path fill="#333333" d="M6.05 0L2.10 0L2.10-15.39L5.96-15.39L5.96-15.39Q9.51-15.39 11.37-13.41L11.37-13.41L11.37-13.41Q13.23-11.42 13.23-7.75L13.23-7.75L13.23-7.75Q13.23-4.10 11.38-2.05L11.38-2.05L11.38-2.05Q9.53 0 6.05 0L6.05 0ZM4.05-13.82L4.05-1.60L5.80-1.60L5.80-1.60Q8.53-1.60 9.87-3.21L9.87-3.21L9.87-3.21Q11.21-4.83 11.21-7.75L11.21-7.75L11.21-7.75Q11.21-10.69 9.87-12.25L9.87-12.25L9.87-12.25Q8.53-13.82 5.80-13.82L5.80-13.82L4.05-13.82Z" transform="translate(0 18.48)"></path><path fill="#333333" d="M4.56 0.27L4.56 0.27L4.56 0.27Q3.13 0.27 2.17-0.58L2.17-0.58L2.17-0.58Q1.22-1.43 1.22-2.96L1.22-2.96L1.22-2.96Q1.22-4.83 2.92-5.83L2.92-5.83L2.92-5.83Q4.62-6.83 8.23-7.22L8.23-7.22L8.23-7.22Q8.23-7.96 8.03-8.62L8.03-8.62L8.03-8.62Q7.83-9.28 7.33-9.69L7.33-9.69L7.33-9.69Q6.83-10.10 5.88-10.10L5.88-10.10L5.88-10.10Q4.89-10.10 4.02-9.73L4.02-9.73L4.02-9.73Q3.15-9.37 2.46-8.88L2.46-8.88L1.70-10.21L1.70-10.21Q2.50-10.73 3.66-11.21L3.66-11.21L3.66-11.21Q4.83-11.70 6.20-11.70L6.20-11.70L6.20-11.70Q8.27-11.70 9.21-10.42L9.21-10.42L9.21-10.42Q10.14-9.13 10.14-7.01L10.14-7.01L10.14 0L8.57 0L8.40-1.36L8.34-1.36L8.34-1.36Q7.52-0.67 6.56-0.20L6.56-0.20L6.56-0.20Q5.61 0.27 4.56 0.27ZM5.10-1.26L5.10-1.26L5.10-1.26Q5.94-1.26 6.68-1.65L6.68-1.65L6.68-1.65Q7.41-2.04 8.23-2.77L8.23-2.77L8.23-5.96L8.23-5.96Q5.40-5.63 4.24-4.91L4.24-4.91L4.24-4.91Q3.09-4.20 3.09-3.09L3.09-3.09L3.09-3.09Q3.09-2.12 3.68-1.69L3.68-1.69L3.68-1.69Q4.26-1.26 5.10-1.26Z" transform="translate(14.427000000000001 18.48)"></path><path fill="#333333" d="M5.52 0.27L5.52 0.27L5.52 0.27Q3.70 0.27 2.98-0.77L2.98-0.77L2.98-0.77Q2.27-1.81 2.27-3.53L2.27-3.53L2.27-9.85L0.57-9.85L0.57-11.30L2.35-11.40L2.58-14.60L4.18-14.60L4.18-11.40L7.27-11.40L7.27-9.85L4.18-9.85L4.18-3.49L4.18-3.49Q4.18-2.44 4.57-1.86L4.57-1.86L4.57-1.86Q4.96-1.28 5.94-1.28L5.94-1.28L5.94-1.28Q6.24-1.28 6.59-1.38L6.59-1.38L6.59-1.38Q6.95-1.47 7.25-1.58L7.25-1.58L7.62-0.15L7.62-0.15Q7.14 0.02 6.59 0.15L6.59 0.15L6.59 0.15Q6.05 0.27 5.52 0.27Z" transform="translate(26.271 18.48)"></path><path fill="#333333" d="M4.56 0.27L4.56 0.27L4.56 0.27Q3.13 0.27 2.17-0.58L2.17-0.58L2.17-0.58Q1.22-1.43 1.22-2.96L1.22-2.96L1.22-2.96Q1.22-4.83 2.92-5.83L2.92-5.83L2.92-5.83Q4.62-6.83 8.23-7.22L8.23-7.22L8.23-7.22Q8.23-7.96 8.03-8.62L8.03-8.62L8.03-8.62Q7.83-9.28 7.33-9.69L7.33-9.69L7.33-9.69Q6.83-10.10 5.88-10.10L5.88-10.10L5.88-10.10Q4.89-10.10 4.02-9.73L4.02-9.73L4.02-9.73Q3.15-9.37 2.46-8.88L2.46-8.88L1.70-10.21L1.70-10.21Q2.50-10.73 3.66-11.21L3.66-11.21L3.66-11.21Q4.83-11.70 6.20-11.70L6.20-11.70L6.20-11.70Q8.27-11.70 9.21-10.42L9.21-10.42L9.21-10.42Q10.14-9.13 10.14-7.01L10.14-7.01L10.14 0L8.57 0L8.40-1.36L8.34-1.36L8.34-1.36Q7.52-0.67 6.56-0.20L6.56-0.20L6.56-0.20Q5.61 0.27 4.56 0.27ZM5.10-1.26L5.10-1.26L5.10-1.26Q5.94-1.26 6.68-1.65L6.68-1.65L6.68-1.65Q7.41-2.04 8.23-2.77L8.23-2.77L8.23-5.96L8.23-5.96Q5.40-5.63 4.24-4.91L4.24-4.91L4.24-4.91Q3.09-4.20 3.09-3.09L3.09-3.09L3.09-3.09Q3.09-2.12 3.68-1.69L3.68-1.69L3.68-1.69Q4.26-1.26 5.10-1.26Z" transform="translate(34.188 18.48)"></path><path fill="#333333" d="" transform="translate(46.032000000000004 18.48)"></path><path fill="#333333" d="M4.77-8.61L4.01-6.26L8.67-6.26L7.94-8.61L7.94-8.61Q7.12-11.19 6.38-13.82L6.38-13.82L6.30-13.82L6.30-13.82Q5.59-11.17 4.77-8.61L4.77-8.61ZM12.68 0L10.63 0L9.16-4.70L3.53-4.70L2.04 0L0.06 0L5.29-15.39L7.46-15.39L12.68 0Z" transform="translate(54.39 18.48)"></path><path fill="#333333" d="M3.84 0L1.93 0L1.93-11.40L3.51-11.40L3.68-9.77L3.74-9.77L3.74-9.77Q4.56-10.58 5.48-11.14L5.48-11.14L5.48-11.14Q6.41-11.70 7.56-11.70L7.56-11.70L7.56-11.70Q9.37-11.70 10.21-10.55L10.21-10.55L10.21-10.55Q11.05-9.41 11.05-7.22L11.05-7.22L11.05 0L9.13 0L9.13-6.97L9.13-6.97Q9.13-8.59 8.62-9.30L8.62-9.30L8.62-9.30Q8.11-10.02 6.97-10.02L6.97-10.02L6.97-10.02Q6.09-10.02 5.39-9.58L5.39-9.58L5.39-9.58Q4.68-9.13 3.84-8.27L3.84-8.27L3.84 0Z" transform="translate(67.137 18.48)"></path><path fill="#333333" d="M4.56 0.27L4.56 0.27L4.56 0.27Q3.13 0.27 2.17-0.58L2.17-0.58L2.17-0.58Q1.22-1.43 1.22-2.96L1.22-2.96L1.22-2.96Q1.22-4.83 2.92-5.83L2.92-5.83L2.92-5.83Q4.62-6.83 8.23-7.22L8.23-7.22L8.23-7.22Q8.23-7.96 8.03-8.62L8.03-8.62L8.03-8.62Q7.83-9.28 7.33-9.69L7.33-9.69L7.33-9.69Q6.83-10.10 5.88-10.10L5.88-10.10L5.88-10.10Q4.89-10.10 4.02-9.73L4.02-9.73L4.02-9.73Q3.15-9.37 2.46-8.88L2.46-8.88L1.70-10.21L1.70-10.21Q2.50-10.73 3.66-11.21L3.66-11.21L3.66-11.21Q4.83-11.70 6.20-11.70L6.20-11.70L6.20-11.70Q8.27-11.70 9.21-10.42L9.21-10.42L9.21-10.42Q10.14-9.13 10.14-7.01L10.14-7.01L10.14 0L8.57 0L8.40-1.36L8.34-1.36L8.34-1.36Q7.52-0.67 6.56-0.20L6.56-0.20L6.56-0.20Q5.61 0.27 4.56 0.27ZM5.10-1.26L5.10-1.26L5.10-1.26Q5.94-1.26 6.68-1.65L6.68-1.65L6.68-1.65Q7.41-2.04 8.23-2.77L8.23-2.77L8.23-5.96L8.23-5.96Q5.40-5.63 4.24-4.91L4.24-4.91L4.24-4.91Q3.09-4.20 3.09-3.09L3.09-3.09L3.09-3.09Q3.09-2.12 3.68-1.69L3.68-1.69L3.68-1.69Q4.26-1.26 5.10-1.26Z" transform="translate(79.968 18.48)"></path><path fill="#333333" d="M3.95 0.27L3.95 0.27L3.95 0.27Q2.88 0.27 2.40-0.39L2.40-0.39L2.40-0.39Q1.93-1.05 1.93-2.27L1.93-2.27L1.93-16.72L3.84-16.72L3.84-2.14L3.84-2.14Q3.84-1.70 4.01-1.51L4.01-1.51L4.01-1.51Q4.18-1.32 4.39-1.32L4.39-1.32L4.39-1.32Q4.47-1.32 4.56-1.33L4.56-1.33L4.56-1.33Q4.64-1.34 4.79-1.36L4.79-1.36L5.06 0.11L5.06 0.11Q4.70 0.27 3.95 0.27Z" transform="translate(91.81200000000001 18.48)"></path><path fill="#333333" d="M2.12 4.91L2.12 4.91L2.12 4.91Q1.30 4.91 0.78 4.68L0.78 4.68L1.16 3.15L1.16 3.15Q1.32 3.21 1.56 3.28L1.56 3.28L1.56 3.28Q1.81 3.34 2.02 3.34L2.02 3.34L2.02 3.34Q3.00 3.34 3.63 2.65L3.63 2.65L3.63 2.65Q4.26 1.95 4.60 0.88L4.60 0.88L4.85 0.02L0.27-11.40L2.27-11.40L4.60-5.06L4.60-5.06Q4.66-4.85 4.75-4.64L4.75-4.64L4.75-4.64Q5.21-3.26 5.69-1.87L5.69-1.87L5.80-1.87L5.80-1.87Q6.01-2.52 6.20-3.21L6.20-3.21L6.20-3.21Q6.49-4.18 6.76-5.06L6.76-5.06L8.80-11.40L10.67-11.40L6.36 0.95L6.36 0.95Q5.96 2.08 5.41 2.97L5.41 2.97L5.41 2.97Q4.85 3.86 4.05 4.39L4.05 4.39L4.05 4.39Q3.26 4.91 2.12 4.91Z" transform="translate(97.79700000000001 18.48)"></path><path fill="#333333" d="M4.91 0.27L4.91 0.27L4.91 0.27Q3.70 0.27 2.59-0.17L2.59-0.17L2.59-0.17Q1.49-0.61 0.65-1.30L0.65-1.30L1.60-2.56L1.60-2.56Q2.33-1.95 3.14-1.59L3.14-1.59L3.14-1.59Q3.95-1.22 4.98-1.22L4.98-1.22L4.98-1.22Q6.11-1.22 6.67-1.74L6.67-1.74L6.67-1.74Q7.22-2.27 7.22-3.00L7.22-3.00L7.22-3.00Q7.22-3.59 6.84-3.98L6.84-3.98L6.84-3.98Q6.45-4.37 5.86-4.65L5.86-4.65L5.86-4.65Q5.27-4.94 4.62-5.17L4.62-5.17L4.62-5.17Q3.80-5.46 3.02-5.86L3.02-5.86L3.02-5.86Q2.25-6.26 1.73-6.88L1.73-6.88L1.73-6.88Q1.22-7.50 1.22-8.46L1.22-8.46L1.22-8.46Q1.22-9.83 2.26-10.76L2.26-10.76L2.26-10.76Q3.30-11.70 5.15-11.70L5.15-11.70L5.15-11.70Q6.20-11.70 7.11-11.32L7.11-11.32L7.11-11.32Q8.02-10.94 8.69-10.42L8.69-10.42L7.77-9.18L7.77-9.18Q7.18-9.62 6.55-9.90L6.55-9.90L6.55-9.90Q5.92-10.19 5.15-10.19L5.15-10.19L5.15-10.19Q4.07-10.19 3.57-9.70L3.57-9.70L3.57-9.70Q3.07-9.22 3.07-8.55L3.07-8.55L3.07-8.55Q3.07-8.02 3.39-7.69L3.39-7.69L3.39-7.69Q3.72-7.35 4.24-7.11L4.24-7.11L4.24-7.11Q4.77-6.87 5.38-6.66L5.38-6.66L5.38-6.66Q5.48-6.62 5.59-6.57L5.59-6.57L5.59-6.57Q6.43-6.28 7.22-5.88L7.22-5.88L7.22-5.88Q8.02-5.48 8.55-4.84L8.55-4.84L8.55-4.84Q9.07-4.20 9.07-3.11L9.07-3.11L9.07-3.11Q9.07-1.72 8.00-0.72L8.00-0.72L8.00-0.72Q6.93 0.27 4.91 0.27Z" transform="translate(108.73800000000001 18.48)"></path><path fill="#333333" d="M3.84 0L1.93 0L1.93-11.40L3.84-11.40L3.84 0ZM2.90-13.76L2.90-13.76L2.90-13.76Q2.33-13.76 1.95-14.11L1.95-14.11L1.95-14.11Q1.58-14.47 1.58-14.99L1.58-14.99L1.58-14.99Q1.58-16.17 2.90-16.23L2.90-16.23L2.90-16.23Q3.47-16.23 3.84-15.91L3.84-15.91L3.84-15.91Q4.22-15.58 4.22-14.99L4.22-14.99L4.22-14.99Q4.22-14.47 3.84-14.11L3.84-14.11L3.84-14.11Q3.47-13.76 2.90-13.76Z" transform="translate(118.56600000000002 18.48)"></path><path fill="#333333" d="M4.91 0.27L4.91 0.27L4.91 0.27Q3.70 0.27 2.59-0.17L2.59-0.17L2.59-0.17Q1.49-0.61 0.65-1.30L0.65-1.30L1.60-2.56L1.60-2.56Q2.33-1.95 3.14-1.59L3.14-1.59L3.14-1.59Q3.95-1.22 4.98-1.22L4.98-1.22L4.98-1.22Q6.11-1.22 6.67-1.74L6.67-1.74L6.67-1.74Q7.22-2.27 7.22-3.00L7.22-3.00L7.22-3.00Q7.22-3.59 6.84-3.98L6.84-3.98L6.84-3.98Q6.45-4.37 5.86-4.65L5.86-4.65L5.86-4.65Q5.27-4.94 4.62-5.17L4.62-5.17L4.62-5.17Q3.80-5.46 3.02-5.86L3.02-5.86L3.02-5.86Q2.25-6.26 1.73-6.88L1.73-6.88L1.73-6.88Q1.22-7.50 1.22-8.46L1.22-8.46L1.22-8.46Q1.22-9.83 2.26-10.76L2.26-10.76L2.26-10.76Q3.30-11.70 5.15-11.70L5.15-11.70L5.15-11.70Q6.20-11.70 7.11-11.32L7.11-11.32L7.11-11.32Q8.02-10.94 8.69-10.42L8.69-10.42L7.77-9.18L7.77-9.18Q7.18-9.62 6.55-9.90L6.55-9.90L6.55-9.90Q5.92-10.19 5.15-10.19L5.15-10.19L5.15-10.19Q4.07-10.19 3.57-9.70L3.57-9.70L3.57-9.70Q3.07-9.22 3.07-8.55L3.07-8.55L3.07-8.55Q3.07-8.02 3.39-7.69L3.39-7.69L3.39-7.69Q3.72-7.35 4.24-7.11L4.24-7.11L4.24-7.11Q4.77-6.87 5.38-6.66L5.38-6.66L5.38-6.66Q5.48-6.62 5.59-6.57L5.59-6.57L5.59-6.57Q6.43-6.28 7.22-5.88L7.22-5.88L7.22-5.88Q8.02-5.48 8.55-4.84L8.55-4.84L8.55-4.84Q9.07-4.20 9.07-3.11L9.07-3.11L9.07-3.11Q9.07-1.72 8.00-0.72L8.00-0.72L8.00-0.72Q6.93 0.27 4.91 0.27Z" transform="translate(124.34100000000002 18.48)"></path></g></svg></g> <!----></g>  <!----></svg>